# Blender v2.93.5 OBJ File: ''
# www.blender.org
mtllib Model.mtl
o Model
v -0.173091 -0.000668 0.024727
v -0.173091 0.147696 0.024727
v -0.173091 0.147696 -0.024727
v -0.173091 -0.000668 -0.024727
v -0.123636 -0.000668 -0.123636
v -0.123636 0.147696 -0.123636
v -0.123636 0.147696 -0.173091
v -0.123636 -0.000668 -0.173091
v -0.123636 -0.000668 0.173091
v -0.123636 0.147696 0.173091
v -0.123636 0.147696 0.123636
v -0.123636 -0.000668 0.123636
v -0.024727 -0.000668 -0.222545
v -0.024727 0.147696 -0.222545
v -0.024727 0.147696 -0.272000
v -0.024727 -0.000668 -0.272000
v -0.024727 -0.000668 0.024727
v -0.024727 0.147696 0.024727
v -0.024727 0.147696 -0.024727
v -0.024727 -0.000668 -0.024727
v -0.024727 -0.000668 0.272000
v -0.024727 0.147696 0.272000
v -0.024727 0.147696 0.222545
v -0.024727 -0.000668 0.222545
v 0.074182 -0.000668 -0.123636
v 0.074182 0.147696 -0.123636
v 0.074182 0.147696 -0.173091
v 0.074182 -0.000668 -0.173091
v 0.074182 -0.000668 0.173091
v 0.074182 0.147696 0.173091
v 0.074182 0.147696 0.123636
v 0.074182 -0.000668 0.123636
v 0.123636 -0.000668 0.024727
v 0.123636 0.147696 0.024727
v 0.123636 0.147696 -0.024727
v 0.123636 -0.000668 -0.024727
v -0.123636 -0.000668 -0.024727
v -0.123636 0.147696 -0.024727
v -0.123636 0.147696 0.024727
v -0.123636 -0.000668 0.024727
v -0.074182 -0.000668 -0.173091
v -0.074182 0.147696 -0.173091
v -0.074182 0.147696 -0.123636
v -0.074182 -0.000668 -0.123636
v -0.074182 -0.000668 0.123636
v -0.074182 0.147696 0.123636
v -0.074182 0.147696 0.173091
v -0.074182 -0.000668 0.173091
v 0.024727 -0.000668 -0.272000
v 0.024727 0.147696 -0.272000
v 0.024727 0.147696 -0.222545
v 0.024727 -0.000668 -0.222545
v 0.024727 -0.000668 -0.024727
v 0.024727 0.147696 -0.024727
v 0.024727 0.147696 0.024727
v 0.024727 -0.000668 0.024727
v 0.024727 -0.000668 0.222545
v 0.024727 0.147696 0.222545
v 0.024727 0.147696 0.272000
v 0.024727 -0.000668 0.272000
v 0.123636 -0.000668 -0.173091
v 0.123636 0.147696 -0.173091
v 0.123636 0.147696 -0.123636
v 0.123636 -0.000668 -0.123636
v 0.123636 -0.000668 0.123636
v 0.123636 0.147696 0.123636
v 0.123636 0.147696 0.173091
v 0.123636 -0.000668 0.173091
v 0.173091 -0.000668 -0.024727
v 0.173091 0.147696 -0.024727
v 0.173091 0.147696 0.024727
v 0.173091 -0.000668 0.024727
v -0.024727 -0.000668 -0.272000
v 0.024727 -0.000668 -0.272000
v 0.024727 -0.000668 -0.222545
v -0.024727 -0.000668 -0.222545
v -0.123636 -0.000668 -0.173091
v -0.074182 -0.000668 -0.173091
v -0.074182 -0.000668 -0.123636
v -0.123636 -0.000668 -0.123636
v 0.074182 -0.000668 -0.173091
v 0.123636 -0.000668 -0.173091
v 0.123636 -0.000668 -0.123636
v 0.074182 -0.000668 -0.123636
v -0.173091 -0.000668 -0.024727
v -0.123636 -0.000668 -0.024727
v -0.123636 -0.000668 0.024727
v -0.173091 -0.000668 0.024727
v -0.024727 -0.000668 -0.024727
v 0.024727 -0.000668 -0.024727
v 0.024727 -0.000668 0.024727
v -0.024727 -0.000668 0.024727
v 0.123636 -0.000668 -0.024727
v 0.173091 -0.000668 -0.024727
v 0.173091 -0.000668 0.024727
v 0.123636 -0.000668 0.024727
v -0.123636 -0.000668 0.123636
v -0.074182 -0.000668 0.123636
v -0.074182 -0.000668 0.173091
v -0.123636 -0.000668 0.173091
v 0.074182 -0.000668 0.123636
v 0.123636 -0.000668 0.123636
v 0.123636 -0.000668 0.173091
v 0.074182 -0.000668 0.173091
v -0.024727 -0.000668 0.222545
v 0.024727 -0.000668 0.222545
v 0.024727 -0.000668 0.272000
v -0.024727 -0.000668 0.272000
v -0.024727 0.147696 -0.222545
v 0.024727 0.147696 -0.222545
v 0.024727 0.147696 -0.272000
v -0.024727 0.147696 -0.272000
v -0.123636 0.147696 -0.123636
v -0.074182 0.147696 -0.123636
v -0.074182 0.147696 -0.173091
v -0.123636 0.147696 -0.173091
v 0.074182 0.147696 -0.123636
v 0.123636 0.147696 -0.123636
v 0.123636 0.147696 -0.173091
v 0.074182 0.147696 -0.173091
v -0.173091 0.147696 0.024727
v -0.123636 0.147696 0.024727
v -0.123636 0.147696 -0.024727
v -0.173091 0.147696 -0.024727
v -0.024727 0.147696 0.024727
v 0.024727 0.147696 0.024727
v 0.024727 0.147696 -0.024727
v -0.024727 0.147696 -0.024727
v 0.123636 0.147696 0.024727
v 0.173091 0.147696 0.024727
v 0.173091 0.147696 -0.024727
v 0.123636 0.147696 -0.024727
v -0.123636 0.147696 0.173091
v -0.074182 0.147696 0.173091
v -0.074182 0.147696 0.123636
v -0.123636 0.147696 0.123636
v 0.074182 0.147696 0.173091
v 0.123636 0.147696 0.173091
v 0.123636 0.147696 0.123636
v 0.074182 0.147696 0.123636
v -0.024727 0.147696 0.272000
v 0.024727 0.147696 0.272000
v 0.024727 0.147696 0.222545
v -0.024727 0.147696 0.222545
v -0.024727 0.147696 -0.272000
v 0.024727 0.147696 -0.272000
v 0.024727 -0.000668 -0.272000
v -0.024727 -0.000668 -0.272000
v -0.123636 0.147696 -0.173091
v -0.074182 0.147696 -0.173091
v -0.074182 -0.000668 -0.173091
v -0.123636 -0.000668 -0.173091
v 0.074182 0.147696 -0.173091
v 0.123636 0.147696 -0.173091
v 0.123636 -0.000668 -0.173091
v 0.074182 -0.000668 -0.173091
v -0.173091 0.147696 -0.024727
v -0.123636 0.147696 -0.024727
v -0.123636 -0.000668 -0.024727
v -0.173091 -0.000668 -0.024727
v -0.024727 0.147696 -0.024727
v 0.024727 0.147696 -0.024727
v 0.024727 -0.000668 -0.024727
v -0.024727 -0.000668 -0.024727
v 0.123636 0.147696 -0.024727
v 0.173091 0.147696 -0.024727
v 0.173091 -0.000668 -0.024727
v 0.123636 -0.000668 -0.024727
v -0.123636 0.147696 0.123636
v -0.074182 0.147696 0.123636
v -0.074182 -0.000668 0.123636
v -0.123636 -0.000668 0.123636
v 0.074182 0.147696 0.123636
v 0.123636 0.147696 0.123636
v 0.123636 -0.000668 0.123636
v 0.074182 -0.000668 0.123636
v -0.024727 0.147696 0.222545
v 0.024727 0.147696 0.222545
v 0.024727 -0.000668 0.222545
v -0.024727 -0.000668 0.222545
v -0.024727 -0.000668 -0.222545
v 0.024727 -0.000668 -0.222545
v 0.024727 0.147696 -0.222545
v -0.024727 0.147696 -0.222545
v -0.123636 -0.000668 -0.123636
v -0.074182 -0.000668 -0.123636
v -0.074182 0.147696 -0.123636
v -0.123636 0.147696 -0.123636
v 0.074182 -0.000668 -0.123636
v 0.123636 -0.000668 -0.123636
v 0.123636 0.147696 -0.123636
v 0.074182 0.147696 -0.123636
v -0.173091 -0.000668 0.024727
v -0.123636 -0.000668 0.024727
v -0.123636 0.147696 0.024727
v -0.173091 0.147696 0.024727
v -0.024727 -0.000668 0.024727
v 0.024727 -0.000668 0.024727
v 0.024727 0.147696 0.024727
v -0.024727 0.147696 0.024727
v 0.123636 -0.000668 0.024727
v 0.173091 -0.000668 0.024727
v 0.173091 0.147696 0.024727
v 0.123636 0.147696 0.024727
v -0.123636 -0.000668 0.173091
v -0.074182 -0.000668 0.173091
v -0.074182 0.147696 0.173091
v -0.123636 0.147696 0.173091
v 0.074182 -0.000668 0.173091
v 0.123636 -0.000668 0.173091
v 0.123636 0.147696 0.173091
v 0.074182 0.147696 0.173091
v -0.024727 -0.000668 0.272000
v 0.024727 -0.000668 0.272000
v 0.024727 0.147696 0.272000
v -0.024727 0.147696 0.272000
vt 0.062500 0.500000
vt 0.062500 0.687500
vt 0.000000 0.687500
vt 0.000000 0.500000
vt 0.062500 0.500000
vt 0.062500 0.687500
vt 0.000000 0.687500
vt 0.000000 0.500000
vt 0.062500 0.500000
vt 0.062500 0.687500
vt 0.000000 0.687500
vt 0.000000 0.500000
vt 0.062500 0.500000
vt 0.062500 0.687500
vt 0.000000 0.687500
vt 0.000000 0.500000
vt 0.062500 0.500000
vt 0.062500 0.687500
vt 0.000000 0.687500
vt 0.000000 0.500000
vt 0.062500 0.500000
vt 0.062500 0.687500
vt 0.000000 0.687500
vt 0.000000 0.500000
vt 0.062500 0.500000
vt 0.062500 0.687500
vt 0.000000 0.687500
vt 0.000000 0.500000
vt 0.062500 0.500000
vt 0.062500 0.687500
vt 0.000000 0.687500
vt 0.000000 0.500000
vt 0.062500 0.500000
vt 0.062500 0.687500
vt 0.000000 0.687500
vt 0.000000 0.500000
vt 0.000000 0.500000
vt 0.000000 0.687500
vt 0.062500 0.687500
vt 0.062500 0.500000
vt 0.000000 0.500000
vt 0.000000 0.687500
vt 0.062500 0.687500
vt 0.062500 0.500000
vt 0.000000 0.500000
vt 0.000000 0.687500
vt 0.062500 0.687500
vt 0.062500 0.500000
vt 0.000000 0.500000
vt 0.000000 0.687500
vt 0.062500 0.687500
vt 0.062500 0.500000
vt 0.000000 0.500000
vt 0.000000 0.687500
vt 0.062500 0.687500
vt 0.062500 0.500000
vt 0.000000 0.500000
vt 0.000000 0.687500
vt 0.062500 0.687500
vt 0.062500 0.500000
vt 0.000000 0.500000
vt 0.000000 0.687500
vt 0.062500 0.687500
vt 0.062500 0.500000
vt 0.000000 0.500000
vt 0.000000 0.687500
vt 0.062500 0.687500
vt 0.062500 0.500000
vt 0.000000 0.500000
vt 0.000000 0.687500
vt 0.062500 0.687500
vt 0.062500 0.500000
vt 0.000000 1.000000
vt 0.062500 1.000000
vt 0.062500 0.937500
vt 0.000000 0.937500
vt 0.000000 1.000000
vt 0.062500 1.000000
vt 0.062500 0.937500
vt 0.000000 0.937500
vt 0.000000 1.000000
vt 0.062500 1.000000
vt 0.062500 0.937500
vt 0.000000 0.937500
vt 0.000000 1.000000
vt 0.062500 1.000000
vt 0.062500 0.937500
vt 0.000000 0.937500
vt 0.000000 1.000000
vt 0.062500 1.000000
vt 0.062500 0.937500
vt 0.000000 0.937500
vt 0.000000 1.000000
vt 0.062500 1.000000
vt 0.062500 0.937500
vt 0.000000 0.937500
vt 0.000000 1.000000
vt 0.062500 1.000000
vt 0.062500 0.937500
vt 0.000000 0.937500
vt 0.000000 1.000000
vt 0.062500 1.000000
vt 0.062500 0.937500
vt 0.000000 0.937500
vt 0.000000 1.000000
vt 0.062500 1.000000
vt 0.062500 0.937500
vt 0.000000 0.937500
vt 0.000000 0.875000
vt 0.062500 0.875000
vt 0.062500 0.937500
vt 0.000000 0.937500
vt 0.000000 0.875000
vt 0.062500 0.875000
vt 0.062500 0.937500
vt 0.000000 0.937500
vt 0.000000 0.875000
vt 0.062500 0.875000
vt 0.062500 0.937500
vt 0.000000 0.937500
vt 0.000000 0.875000
vt 0.062500 0.875000
vt 0.062500 0.937500
vt 0.000000 0.937500
vt 0.000000 0.875000
vt 0.062500 0.875000
vt 0.062500 0.937500
vt 0.000000 0.937500
vt 0.000000 0.875000
vt 0.062500 0.875000
vt 0.062500 0.937500
vt 0.000000 0.937500
vt 0.000000 0.875000
vt 0.062500 0.875000
vt 0.062500 0.937500
vt 0.000000 0.937500
vt 0.000000 0.875000
vt 0.062500 0.875000
vt 0.062500 0.937500
vt 0.000000 0.937500
vt 0.000000 0.875000
vt 0.062500 0.875000
vt 0.062500 0.937500
vt 0.000000 0.937500
vt 0.000000 0.812500
vt 0.062500 0.812500
vt 0.062500 1.000000
vt 0.000000 1.000000
vt 0.000000 0.812500
vt 0.062500 0.812500
vt 0.062500 1.000000
vt 0.000000 1.000000
vt 0.000000 0.812500
vt 0.062500 0.812500
vt 0.062500 1.000000
vt 0.000000 1.000000
vt 0.000000 0.812500
vt 0.062500 0.812500
vt 0.062500 1.000000
vt 0.000000 1.000000
vt 0.000000 0.812500
vt 0.062500 0.812500
vt 0.062500 1.000000
vt 0.000000 1.000000
vt 0.000000 0.812500
vt 0.062500 0.812500
vt 0.062500 1.000000
vt 0.000000 1.000000
vt 0.000000 0.812500
vt 0.062500 0.812500
vt 0.062500 1.000000
vt 0.000000 1.000000
vt 0.000000 0.812500
vt 0.062500 0.812500
vt 0.062500 1.000000
vt 0.000000 1.000000
vt 0.000000 0.812500
vt 0.062500 0.812500
vt 0.062500 1.000000
vt 0.000000 1.000000
vt 0.000000 1.000000
vt 0.062500 1.000000
vt 0.062500 0.812500
vt 0.000000 0.812500
vt 0.000000 1.000000
vt 0.062500 1.000000
vt 0.062500 0.812500
vt 0.000000 0.812500
vt 0.000000 1.000000
vt 0.062500 1.000000
vt 0.062500 0.812500
vt 0.000000 0.812500
vt 0.000000 1.000000
vt 0.062500 1.000000
vt 0.062500 0.812500
vt 0.000000 0.812500
vt 0.000000 1.000000
vt 0.062500 1.000000
vt 0.062500 0.812500
vt 0.000000 0.812500
vt 0.000000 1.000000
vt 0.062500 1.000000
vt 0.062500 0.812500
vt 0.000000 0.812500
vt 0.000000 1.000000
vt 0.062500 1.000000
vt 0.062500 0.812500
vt 0.000000 0.812500
vt 0.000000 1.000000
vt 0.062500 1.000000
vt 0.062500 0.812500
vt 0.000000 0.812500
vt 0.000000 1.000000
vt 0.062500 1.000000
vt 0.062500 0.812500
vt 0.000000 0.812500
vn -1.0000 -0.0000 0.0000
vn 1.0000 0.0000 0.0000
vn 0.0000 -1.0000 -0.0000
vn 0.0000 1.0000 0.0000
vn 0.0000 0.0000 -1.0000
vn 0.0000 -0.0000 1.0000
usemtl PlainTexture
s off
f 1/1/1 2/2/1 3/3/1 4/4/1
f 5/5/1 6/6/1 7/7/1 8/8/1
f 9/9/1 10/10/1 11/11/1 12/12/1
f 13/13/1 14/14/1 15/15/1 16/16/1
f 17/17/1 18/18/1 19/19/1 20/20/1
f 21/21/1 22/22/1 23/23/1 24/24/1
f 25/25/1 26/26/1 27/27/1 28/28/1
f 29/29/1 30/30/1 31/31/1 32/32/1
f 33/33/1 34/34/1 35/35/1 36/36/1
f 37/37/2 38/38/2 39/39/2 40/40/2
f 41/41/2 42/42/2 43/43/2 44/44/2
f 45/45/2 46/46/2 47/47/2 48/48/2
f 49/49/2 50/50/2 51/51/2 52/52/2
f 53/53/2 54/54/2 55/55/2 56/56/2
f 57/57/2 58/58/2 59/59/2 60/60/2
f 61/61/2 62/62/2 63/63/2 64/64/2
f 65/65/2 66/66/2 67/67/2 68/68/2
f 69/69/2 70/70/2 71/71/2 72/72/2
f 73/73/3 74/74/3 75/75/3 76/76/3
f 77/77/3 78/78/3 79/79/3 80/80/3
f 81/81/3 82/82/3 83/83/3 84/84/3
f 85/85/3 86/86/3 87/87/3 88/88/3
f 89/89/3 90/90/3 91/91/3 92/92/3
f 93/93/3 94/94/3 95/95/3 96/96/3
f 97/97/3 98/98/3 99/99/3 100/100/3
f 101/101/3 102/102/3 103/103/3 104/104/3
f 105/105/3 106/106/3 107/107/3 108/108/3
f 109/109/4 110/110/4 111/111/4 112/112/4
f 113/113/4 114/114/4 115/115/4 116/116/4
f 117/117/4 118/118/4 119/119/4 120/120/4
f 121/121/4 122/122/4 123/123/4 124/124/4
f 125/125/4 126/126/4 127/127/4 128/128/4
f 129/129/4 130/130/4 131/131/4 132/132/4
f 133/133/4 134/134/4 135/135/4 136/136/4
f 137/137/4 138/138/4 139/139/4 140/140/4
f 141/141/4 142/142/4 143/143/4 144/144/4
f 145/145/5 146/146/5 147/147/5 148/148/5
f 149/149/5 150/150/5 151/151/5 152/152/5
f 153/153/5 154/154/5 155/155/5 156/156/5
f 157/157/5 158/158/5 159/159/5 160/160/5
f 161/161/5 162/162/5 163/163/5 164/164/5
f 165/165/5 166/166/5 167/167/5 168/168/5
f 169/169/5 170/170/5 171/171/5 172/172/5
f 173/173/5 174/174/5 175/175/5 176/176/5
f 177/177/5 178/178/5 179/179/5 180/180/5
f 181/181/6 182/182/6 183/183/6 184/184/6
f 185/185/6 186/186/6 187/187/6 188/188/6
f 189/189/6 190/190/6 191/191/6 192/192/6
f 193/193/6 194/194/6 195/195/6 196/196/6
f 197/197/6 198/198/6 199/199/6 200/200/6
f 201/201/6 202/202/6 203/203/6 204/204/6
f 205/205/6 206/206/6 207/207/6 208/208/6
f 209/209/6 210/210/6 211/211/6 212/212/6
f 213/213/6 214/214/6 215/215/6 216/216/6
