# Blender v2.93.5 OBJ File: ''
# www.blender.org
mtllib Model.mtl
o Model.001
v -0.200000 0.700000 0.250000
v -0.200000 1.200000 0.250000
v -0.200000 1.200000 -0.300000
v -0.200000 0.700000 -0.300000
v -0.050000 0.000000 0.100000
v -0.050000 0.700000 0.100000
v -0.050000 0.700000 -0.150000
v -0.050000 0.000000 -0.150000
v 0.050000 0.300000 -0.250000
v 0.050000 0.450000 -0.250000
v 0.050000 0.450000 -0.300000
v 0.050000 0.300000 -0.300000
v 0.050000 0.500000 0.250000
v 0.050000 0.550000 0.250000
v 0.050000 0.550000 0.100000
v 0.050000 0.500000 0.100000
v 0.050000 0.300000 -0.150000
v 0.050000 0.350000 -0.150000
v 0.050000 0.350000 -0.250000
v 0.050000 0.300000 -0.250000
v 0.050000 0.550000 0.250000
v 0.050000 0.650000 0.250000
v 0.050000 0.650000 0.200000
v 0.050000 0.550000 0.200000
v 0.100000 0.300000 -0.300000
v 0.100000 0.450000 -0.300000
v 0.100000 0.450000 -0.250000
v 0.100000 0.300000 -0.250000
v 0.100000 0.500000 0.100000
v 0.100000 0.550000 0.100000
v 0.100000 0.550000 0.250000
v 0.100000 0.500000 0.250000
v 0.100000 0.300000 -0.250000
v 0.100000 0.350000 -0.250000
v 0.100000 0.350000 -0.150000
v 0.100000 0.300000 -0.150000
v 0.100000 0.550000 0.200000
v 0.100000 0.650000 0.200000
v 0.100000 0.650000 0.250000
v 0.100000 0.550000 0.250000
v 0.200000 0.000000 -0.150000
v 0.200000 1.200000 -0.150000
v 0.200000 1.200000 0.100000
v 0.200000 0.000000 0.100000
v 0.200000 0.700000 -0.300000
v 0.200000 1.200000 -0.300000
v 0.200000 1.200000 -0.150000
v 0.200000 0.700000 -0.150000
v 0.200000 0.700000 0.100000
v 0.200000 1.200000 0.100000
v 0.200000 1.200000 0.250000
v 0.200000 0.700000 0.250000
v -0.050000 0.000000 -0.150000
v 0.200000 0.000000 -0.150000
v 0.200000 0.000000 0.100000
v -0.050000 0.000000 0.100000
v 0.050000 0.300000 -0.300000
v 0.100000 0.300000 -0.300000
v 0.100000 0.300000 -0.150000
v 0.050000 0.300000 -0.150000
v 0.050000 0.500000 0.100000
v 0.100000 0.500000 0.100000
v 0.100000 0.500000 0.250000
v 0.050000 0.500000 0.250000
v -0.200000 0.700000 -0.300000
v 0.200000 0.700000 -0.300000
v 0.200000 0.700000 -0.150000
v -0.200000 0.700000 -0.150000
v -0.200000 0.700000 -0.150000
v -0.050000 0.700000 -0.150000
v -0.050000 0.700000 0.250000
v -0.200000 0.700000 0.250000
v -0.050000 0.700000 0.100000
v 0.200000 0.700000 0.100000
v 0.200000 0.700000 0.250000
v -0.050000 0.700000 0.250000
v 0.050000 0.350000 -0.150000
v 0.100000 0.350000 -0.150000
v 0.100000 0.350000 -0.250000
v 0.050000 0.350000 -0.250000
v 0.050000 0.450000 -0.250000
v 0.100000 0.450000 -0.250000
v 0.100000 0.450000 -0.300000
v 0.050000 0.450000 -0.300000
v 0.050000 0.550000 0.200000
v 0.100000 0.550000 0.200000
v 0.100000 0.550000 0.100000
v 0.050000 0.550000 0.100000
v 0.050000 0.650000 0.250000
v 0.100000 0.650000 0.250000
v 0.100000 0.650000 0.200000
v 0.050000 0.650000 0.200000
v -0.200000 1.200000 0.250000
v 0.200000 1.200000 0.250000
v 0.200000 1.200000 -0.300000
v -0.200000 1.200000 -0.300000
v -0.200000 1.200000 -0.300000
v 0.200000 1.200000 -0.300000
v 0.200000 0.700000 -0.300000
v -0.200000 0.700000 -0.300000
v 0.050000 0.450000 -0.300000
v 0.100000 0.450000 -0.300000
v 0.100000 0.300000 -0.300000
v 0.050000 0.300000 -0.300000
v -0.050000 0.700000 -0.150000
v 0.200000 0.700000 -0.150000
v 0.200000 0.350000 -0.150000
v -0.050000 0.350000 -0.150000
v -0.050000 0.300000 -0.150000
v 0.200000 0.300000 -0.150000
v 0.200000 0.000000 -0.150000
v -0.050000 0.000000 -0.150000
v -0.050000 0.350000 -0.150000
v 0.050000 0.350000 -0.150000
v 0.050000 0.300000 -0.150000
v -0.050000 0.300000 -0.150000
v 0.100000 0.350000 -0.150000
v 0.200000 0.350000 -0.150000
v 0.200000 0.300000 -0.150000
v 0.100000 0.300000 -0.150000
v 0.050000 0.650000 0.200000
v 0.100000 0.650000 0.200000
v 0.100000 0.550000 0.200000
v 0.050000 0.550000 0.200000
v 0.050000 0.350000 -0.250000
v 0.100000 0.350000 -0.250000
v 0.100000 0.450000 -0.250000
v 0.050000 0.450000 -0.250000
v -0.050000 0.000000 0.100000
v 0.200000 0.000000 0.100000
v 0.200000 0.500000 0.100000
v -0.050000 0.500000 0.100000
v -0.050000 0.550000 0.100000
v 0.200000 0.550000 0.100000
v 0.200000 0.700000 0.100000
v -0.050000 0.700000 0.100000
v -0.050000 0.500000 0.100000
v 0.050000 0.500000 0.100000
v 0.050000 0.550000 0.100000
v -0.050000 0.550000 0.100000
v 0.100000 0.500000 0.100000
v 0.200000 0.500000 0.100000
v 0.200000 0.550000 0.100000
v 0.100000 0.550000 0.100000
v -0.200000 0.700000 0.250000
v 0.200000 0.700000 0.250000
v 0.200000 1.200000 0.250000
v -0.200000 1.200000 0.250000
v 0.050000 0.500000 0.250000
v 0.100000 0.500000 0.250000
v 0.100000 0.650000 0.250000
v 0.050000 0.650000 0.250000
vt 0.046875 0.250000
vt 0.203125 0.250000
vt 0.203125 0.593750
vt 0.046875 0.593750
vt 0.484375 0.312500
vt 0.484375 0.750000
vt 0.406250 0.750000
vt 0.406250 0.312500
vt 0.218750 0.687500
vt 0.218750 0.781250
vt 0.203125 0.781250
vt 0.203125 0.687500
vt 0.203125 0.906250
vt 0.218750 0.906250
vt 0.218750 1.000000
vt 0.203125 1.000000
vt 0.000000 0.937500
vt 0.015625 0.937500
vt 0.015625 1.000000
vt 0.000000 1.000000
vt 0.328125 0.937500
vt 0.328125 1.000000
vt 0.312500 1.000000
vt 0.312500 0.937500
vt 0.000000 0.562500
vt 0.000000 0.656250
vt 0.015625 0.656250
vt 0.015625 0.562500
vt 0.000000 0.343750
vt 0.015625 0.343750
vt 0.015625 0.250000
vt 0.000000 0.250000
vt 0.000000 1.000000
vt 0.015625 1.000000
vt 0.015625 0.937500
vt 0.000000 0.937500
vt 0.312500 0.937500
vt 0.312500 1.000000
vt 0.328125 1.000000
vt 0.328125 0.937500
vt 0.515625 0.250000
vt 0.515625 1.000000
vt 0.593750 1.000000
vt 0.593750 0.250000
vt 0.046875 0.687500
vt 0.046875 1.000000
vt 0.093750 1.000000
vt 0.093750 0.687500
vt 0.046875 0.687500
vt 0.046875 1.000000
vt 0.093750 1.000000
vt 0.093750 0.687500
vt 0.203125 1.000000
vt 0.281250 1.000000
vt 0.281250 0.843750
vt 0.203125 0.843750
vt 0.203125 1.000000
vt 0.218750 1.000000
vt 0.218750 0.906250
vt 0.203125 0.906250
vt 0.203125 1.000000
vt 0.218750 1.000000
vt 0.218750 0.906250
vt 0.203125 0.906250
vt 0.046875 0.750000
vt 0.046875 1.000000
vt 0.093750 1.000000
vt 0.093750 0.750000
vt 0.046875 1.000000
vt 0.093750 1.000000
vt 0.093750 0.750000
vt 0.046875 0.750000
vt 0.046875 0.843750
vt 0.046875 1.000000
vt 0.093750 1.000000
vt 0.093750 0.843750
vt 0.000000 0.937500
vt 0.015625 0.937500
vt 0.015625 1.000000
vt 0.000000 1.000000
vt 0.000000 0.843750
vt 0.015625 0.843750
vt 0.015625 0.875000
vt 0.000000 0.875000
vt 0.000000 0.937500
vt 0.015625 0.937500
vt 0.015625 1.000000
vt 0.000000 1.000000
vt 0.000000 0.843750
vt 0.015625 0.843750
vt 0.015625 0.875000
vt 0.000000 0.875000
vt 0.046875 0.656250
vt 0.171875 0.656250
vt 0.171875 1.000000
vt 0.046875 1.000000
vt 0.046875 0.687500
vt 0.171875 0.687500
vt 0.171875 1.000000
vt 0.046875 1.000000
vt 0.000000 0.406250
vt 0.015625 0.406250
vt 0.015625 0.500000
vt 0.000000 0.500000
vt 0.234375 0.375000
vt 0.312500 0.375000
vt 0.312500 0.593750
vt 0.234375 0.593750
vt 0.406250 0.812500
vt 0.484375 0.812500
vt 0.484375 1.000000
vt 0.406250 1.000000
vt 0.015625 0.937500
vt 0.015625 1.000000
vt 0.000000 1.000000
vt 0.000000 0.937500
vt 0.015625 0.937500
vt 0.015625 1.000000
vt 0.000000 1.000000
vt 0.000000 0.937500
vt 0.359375 0.937500
vt 0.375000 0.937500
vt 0.375000 1.000000
vt 0.359375 1.000000
vt 0.000000 0.781250
vt 0.015625 0.781250
vt 0.015625 0.718750
vt 0.000000 0.718750
vt 0.625000 1.000000
vt 0.703125 1.000000
vt 0.703125 0.687500
vt 0.625000 0.687500
vt 0.203125 0.843750
vt 0.203125 1.000000
vt 0.250000 1.000000
vt 0.250000 0.843750
vt 0.000000 0.937500
vt 0.000000 1.000000
vt 0.015625 1.000000
vt 0.015625 0.937500
vt 0.000000 0.937500
vt 0.000000 1.000000
vt 0.015625 1.000000
vt 0.015625 0.937500
vt 0.046875 1.000000
vt 0.171875 1.000000
vt 0.171875 0.687500
vt 0.046875 0.687500
vt 0.250000 0.781250
vt 0.265625 0.781250
vt 0.265625 0.687500
vt 0.250000 0.687500
vn -1.0000 0.0000 0.0000
vn 1.0000 0.0000 0.0000
vn 0.0000 -1.0000 0.0000
vn 0.0000 1.0000 0.0000
vn 0.0000 0.0000 -1.0000
vn 0.0000 -0.0000 1.0000
usemtl PlainTexture.001
s off
f 1/1/1 2/2/1 3/3/1 4/4/1
f 5/5/1 6/6/1 7/7/1 8/8/1
f 9/9/1 10/10/1 11/11/1 12/12/1
f 13/13/1 14/14/1 15/15/1 16/16/1
f 17/17/1 18/18/1 19/19/1 20/20/1
f 21/21/1 22/22/1 23/23/1 24/24/1
f 25/25/2 26/26/2 27/27/2 28/28/2
f 29/29/2 30/30/2 31/31/2 32/32/2
f 33/33/2 34/34/2 35/35/2 36/36/2
f 37/37/2 38/38/2 39/39/2 40/40/2
f 41/41/2 42/42/2 43/43/2 44/44/2
f 45/45/2 46/46/2 47/47/2 48/48/2
f 49/49/2 50/50/2 51/51/2 52/52/2
f 53/53/3 54/54/3 55/55/3 56/56/3
f 57/57/3 58/58/3 59/59/3 60/60/3
f 61/61/3 62/62/3 63/63/3 64/64/3
f 65/65/3 66/66/3 67/67/3 68/68/3
f 69/69/3 70/70/3 71/71/3 72/72/3
f 73/73/3 74/74/3 75/75/3 76/76/3
f 77/77/4 78/78/4 79/79/4 80/80/4
f 81/81/4 82/82/4 83/83/4 84/84/4
f 85/85/4 86/86/4 87/87/4 88/88/4
f 89/89/4 90/90/4 91/91/4 92/92/4
f 93/93/4 94/94/4 95/95/4 96/96/4
f 97/97/5 98/98/5 99/99/5 100/100/5
f 101/101/5 102/102/5 103/103/5 104/104/5
f 105/105/5 106/106/5 107/107/5 108/108/5
f 109/109/5 110/110/5 111/111/5 112/112/5
f 113/113/5 114/114/5 115/115/5 116/116/5
f 117/117/5 118/118/5 119/119/5 120/120/5
f 121/121/5 122/122/5 123/123/5 124/124/5
f 125/125/6 126/126/6 127/127/6 128/128/6
f 129/129/6 130/130/6 131/131/6 132/132/6
f 133/133/6 134/134/6 135/135/6 136/136/6
f 137/137/6 138/138/6 139/139/6 140/140/6
f 141/141/6 142/142/6 143/143/6 144/144/6
f 145/145/6 146/146/6 147/147/6 148/148/6
f 149/149/6 150/150/6 151/151/6 152/152/6
