# Export of Cubik Model: Valla
# Designed by Ihton with Cubik Studio - https://cubik.studio
# from Cubik OBJ Exporter v1.0
mtllib Fence.mtl
v 4.8 0 4.8 0.9019608 0.8941177 0.9490196
v 8 0 4.8 0.9019608 0.8941177 0.9490196
v 8 0 8 0.9019608 0.8941177 0.9490196
v 4.8 0 8 0.9019608 0.8941177 0.9490196
v 8 16 4.8 0.9019608 0.8941177 0.9490196
v 4.8 16 4.8 0.9019608 0.8941177 0.9490196
v 4.8 16 8 0.9019608 0.8941177 0.9490196
v 8 16 8 0.9019608 0.8941177 0.9490196
v 8 16 8 0.9019608 0.8941177 0.9490196
v 4.8 16 8 0.9019608 0.8941177 0.9490196
v 4.8 0 8 0.9019608 0.8941177 0.9490196
v 8 0 8 0.9019608 0.8941177 0.9490196
v 4.8 16 4.8 0.9019608 0.8941177 0.9490196
v 8 16 4.8 0.9019608 0.8941177 0.9490196
v 8 0 4.8 0.9019608 0.8941177 0.9490196
v 4.8 0 4.8 0.9019608 0.8941177 0.9490196
v 8 16 4.8 0.9019608 0.8941177 0.9490196
v 8 16 8 0.9019608 0.8941177 0.9490196
v 8 0 8 0.9019608 0.8941177 0.9490196
v 8 0 4.8 0.9019608 0.8941177 0.9490196
v 4.8 16 8 0.9019608 0.8941177 0.9490196
v 4.8 16 4.8 0.9019608 0.8941177 0.9490196
v 4.8 0 4.8 0.9019608 0.8941177 0.9490196
v 4.8 0 8 0.9019608 0.8941177 0.9490196
vn 0 -1 0
vn 0 1 0
vn 0 0 1
vn 0 0 -1
vn 1 0 0
vn -1 0 0
vt 0.03125 0.1875
vt 0 0.1875
vt 0 0.15625
vt 0.03125 0.15625
vt 0 0.21875
vt 0.03125 0.21875
vt 0.03125 0
vt 0 0
vt 0.0625 0.15625
vt 0.0625 0
vt 0.09375 0.15625
vt 0.09375 0
vt 0.125 0.15625
vt 0.125 0
v -8 3.2 4.8 0.772549 0.6235294 0.9254902
v 4.8 3.2 4.8 0.772549 0.6235294 0.9254902
v 4.8 3.2 8 0.772549 0.6235294 0.9254902
v -8 3.2 8 0.772549 0.6235294 0.9254902
v 4.8 6.4 4.8 0.772549 0.6235294 0.9254902
v -8 6.4 4.8 0.772549 0.6235294 0.9254902
v -8 6.4 8 0.772549 0.6235294 0.9254902
v 4.8 6.4 8 0.772549 0.6235294 0.9254902
v 4.8 6.4 8 0.772549 0.6235294 0.9254902
v -8 6.4 8 0.772549 0.6235294 0.9254902
v -8 3.2 8 0.772549 0.6235294 0.9254902
v 4.8 3.2 8 0.772549 0.6235294 0.9254902
v -8 6.4 4.8 0.772549 0.6235294 0.9254902
v 4.8 6.4 4.8 0.772549 0.6235294 0.9254902
v 4.8 3.2 4.8 0.772549 0.6235294 0.9254902
v -8 3.2 4.8 0.772549 0.6235294 0.9254902
v 4.8 6.4 4.8 0.772549 0.6235294 0.9254902
v 4.8 6.4 8 0.772549 0.6235294 0.9254902
v 4.8 3.2 8 0.772549 0.6235294 0.9254902
v 4.8 3.2 4.8 0.772549 0.6235294 0.9254902
v -8 6.4 8 0.772549 0.6235294 0.9254902
v -8 6.4 4.8 0.772549 0.6235294 0.9254902
v -8 3.2 4.8 0.772549 0.6235294 0.9254902
v -8 3.2 8 0.772549 0.6235294 0.9254902
vt 0.25 0.09375
vt 0.125 0.09375
vt 0.125 0.0625
vt 0.25 0.0625
vt 0.125 0.125
vt 0.25 0.125
vt 0.25 0.15625
vt 0.25 0.1875
vt 0.125 0.1875
vt 0.03125 0.25
vt 0 0.25
vt 0.0625 0.1875
v -8 9.6 4.8 0.8470588 0.8196079 0.7921569
v 4.8 9.6 4.8 0.8470588 0.8196079 0.7921569
v 4.8 9.6 8 0.8470588 0.8196079 0.7921569
v -8 9.6 8 0.8470588 0.8196079 0.7921569
v 4.8 12.8 4.8 0.8470588 0.8196079 0.7921569
v -8 12.8 4.8 0.8470588 0.8196079 0.7921569
v -8 12.8 8 0.8470588 0.8196079 0.7921569
v 4.8 12.8 8 0.8470588 0.8196079 0.7921569
v 4.8 12.8 8 0.8470588 0.8196079 0.7921569
v -8 12.8 8 0.8470588 0.8196079 0.7921569
v -8 9.6 8 0.8470588 0.8196079 0.7921569
v 4.8 9.6 8 0.8470588 0.8196079 0.7921569
v -8 12.8 4.8 0.8470588 0.8196079 0.7921569
v 4.8 12.8 4.8 0.8470588 0.8196079 0.7921569
v 4.8 9.6 4.8 0.8470588 0.8196079 0.7921569
v -8 9.6 4.8 0.8470588 0.8196079 0.7921569
v 4.8 12.8 4.8 0.8470588 0.8196079 0.7921569
v 4.8 12.8 8 0.8470588 0.8196079 0.7921569
v 4.8 9.6 8 0.8470588 0.8196079 0.7921569
v 4.8 9.6 4.8 0.8470588 0.8196079 0.7921569
v -8 12.8 8 0.8470588 0.8196079 0.7921569
v -8 12.8 4.8 0.8470588 0.8196079 0.7921569
v -8 9.6 4.8 0.8470588 0.8196079 0.7921569
v -8 9.6 8 0.8470588 0.8196079 0.7921569
vt 0.25 0.03125
vt 0.125 0.03125
vt 0.25 0
vt 0.125 0.21875
vt 0.25 0.21875
vt 0.25 0.25
vt 0.125 0.25
vt 0.0625 0.21875
vt 0.0625 0.25
v -8 0 4.8 0.8509804 0.8862745 0.945098
v -4.8 0 4.8 0.8509804 0.8862745 0.945098
v -4.8 0 8 0.8509804 0.8862745 0.945098
v -8 0 8 0.8509804 0.8862745 0.945098
v -4.8 3.2 4.8 0.8509804 0.8862745 0.945098
v -8 3.2 4.8 0.8509804 0.8862745 0.945098
v -8 3.2 8 0.8509804 0.8862745 0.945098
v -4.8 3.2 8 0.8509804 0.8862745 0.945098
v -4.8 3.2 8 0.8509804 0.8862745 0.945098
v -8 3.2 8 0.8509804 0.8862745 0.945098
v -8 0 8 0.8509804 0.8862745 0.945098
v -4.8 0 8 0.8509804 0.8862745 0.945098
v -8 3.2 4.8 0.8509804 0.8862745 0.945098
v -4.8 3.2 4.8 0.8509804 0.8862745 0.945098
v -4.8 0 4.8 0.8509804 0.8862745 0.945098
v -8 0 4.8 0.8509804 0.8862745 0.945098
v -4.8 3.2 4.8 0.8509804 0.8862745 0.945098
v -4.8 3.2 8 0.8509804 0.8862745 0.945098
v -4.8 0 8 0.8509804 0.8862745 0.945098
v -4.8 0 4.8 0.8509804 0.8862745 0.945098
v -8 3.2 8 0.8509804 0.8862745 0.945098
v -8 3.2 4.8 0.8509804 0.8862745 0.945098
v -8 0 4.8 0.8509804 0.8862745 0.945098
v -8 0 8 0.8509804 0.8862745 0.945098
vt 0.09375 0.1875
vt 0.09375 0.21875
vt 0.09375 0.25
v -8 6.4 4.8 0.9490196 0.9607843 0.682353
v -4.8 6.4 4.8 0.9490196 0.9607843 0.682353
v -4.8 6.4 8 0.9490196 0.9607843 0.682353
v -8 6.4 8 0.9490196 0.9607843 0.682353
v -4.8 9.6 4.8 0.9490196 0.9607843 0.682353
v -8 9.6 4.8 0.9490196 0.9607843 0.682353
v -8 9.6 8 0.9490196 0.9607843 0.682353
v -4.8 9.6 8 0.9490196 0.9607843 0.682353
v -4.8 9.6 8 0.9490196 0.9607843 0.682353
v -8 9.6 8 0.9490196 0.9607843 0.682353
v -8 6.4 8 0.9490196 0.9607843 0.682353
v -4.8 6.4 8 0.9490196 0.9607843 0.682353
v -8 9.6 4.8 0.9490196 0.9607843 0.682353
v -4.8 9.6 4.8 0.9490196 0.9607843 0.682353
v -4.8 6.4 4.8 0.9490196 0.9607843 0.682353
v -8 6.4 4.8 0.9490196 0.9607843 0.682353
v -4.8 9.6 4.8 0.9490196 0.9607843 0.682353
v -4.8 9.6 8 0.9490196 0.9607843 0.682353
v -4.8 6.4 8 0.9490196 0.9607843 0.682353
v -4.8 6.4 4.8 0.9490196 0.9607843 0.682353
v -8 9.6 8 0.9490196 0.9607843 0.682353
v -8 9.6 4.8 0.9490196 0.9607843 0.682353
v -8 6.4 4.8 0.9490196 0.9607843 0.682353
v -8 6.4 8 0.9490196 0.9607843 0.682353
vt 0.28125 0.03125
vt 0.28125 0
vt 0.3125 0.03125
vt 0.3125 0
vt 0.34375 0.03125
vt 0.34375 0
vt 0.375 0.03125
vt 0.375 0
vt 0.40625 0.03125
vt 0.40625 0
vt 0.4375 0.03125
vt 0.4375 0
v -8 12.8 4.8 0.9490196 0.9843137 0.9803922
v -4.8 12.8 4.8 0.9490196 0.9843137 0.9803922
v -4.8 12.8 8 0.9490196 0.9843137 0.9803922
v -8 12.8 8 0.9490196 0.9843137 0.9803922
v -4.8 16 4.8 0.9490196 0.9843137 0.9803922
v -8 16 4.8 0.9490196 0.9843137 0.9803922
v -8 16 8 0.9490196 0.9843137 0.9803922
v -4.8 16 8 0.9490196 0.9843137 0.9803922
v -4.8 16 8 0.9490196 0.9843137 0.9803922
v -8 16 8 0.9490196 0.9843137 0.9803922
v -8 12.8 8 0.9490196 0.9843137 0.9803922
v -4.8 12.8 8 0.9490196 0.9843137 0.9803922
v -8 16 4.8 0.9490196 0.9843137 0.9803922
v -4.8 16 4.8 0.9490196 0.9843137 0.9803922
v -4.8 12.8 4.8 0.9490196 0.9843137 0.9803922
v -8 12.8 4.8 0.9490196 0.9843137 0.9803922
v -4.8 16 4.8 0.9490196 0.9843137 0.9803922
v -4.8 16 8 0.9490196 0.9843137 0.9803922
v -4.8 12.8 8 0.9490196 0.9843137 0.9803922
v -4.8 12.8 4.8 0.9490196 0.9843137 0.9803922
v -8 16 8 0.9490196 0.9843137 0.9803922
v -8 16 4.8 0.9490196 0.9843137 0.9803922
v -8 12.8 4.8 0.9490196 0.9843137 0.9803922
v -8 12.8 8 0.9490196 0.9843137 0.9803922
vt 0.46875 0.03125
vt 0.46875 0
vt 0.5 0.03125
vt 0.5 0
vt 0.28125 0.0625
vt 0.28125 0.09375
vt 0.28125 0.125
vt 0.28125 0.15625
usemtl Element
f 1/1/1 2/2/1 4/4/1
f 2/2/1 3/3/1 4/4/1
f 5/5/2 6/6/2 8/2/2
f 6/6/2 7/1/2 8/2/2
f 9/3/3 10/4/3 12/8/3
f 10/4/3 11/7/3 12/8/3
f 13/9/4 14/4/4 16/10/4
f 14/4/4 15/7/4 16/10/4
f 17/11/5 18/9/5 20/12/5
f 18/9/5 19/10/5 20/12/5
f 21/11/6 22/13/6 24/12/6
f 22/13/6 23/14/6 24/12/6
usemtl Element
f 25/15/1 26/16/1 28/18/1
f 26/16/1 27/17/1 28/18/1
f 29/19/2 30/20/2 32/16/2
f 30/20/2 31/15/2 32/16/2
f 33/13/3 34/21/3 36/19/3
f 34/21/3 35/20/3 36/19/3
f 37/22/4 38/23/4 40/21/4
f 38/23/4 39/13/4 40/21/4
f 41/24/5 42/25/5 44/6/5
f 42/25/5 43/5/5 44/6/5
f 45/1/6 46/26/6 48/4/6
f 46/26/6 47/9/6 48/4/6
usemtl Element
f 49/27/1 50/28/1 52/29/1
f 50/28/1 51/14/1 52/29/1
f 53/17/2 54/18/2 56/28/2
f 54/18/2 55/27/2 56/28/2
f 57/30/3 58/31/3 60/23/3
f 58/31/3 59/22/3 60/23/3
f 61/32/4 62/33/4 64/31/4
f 62/33/4 63/30/4 64/31/4
f 65/34/5 66/6/5 68/26/5
f 66/6/5 67/1/5 68/26/5
f 69/24/6 70/35/6 72/6/6
f 70/35/6 71/34/6 72/6/6
usemtl Element
f 73/36/1 74/26/1 76/11/1
f 74/26/1 75/9/1 76/11/1
f 77/34/2 78/37/2 80/26/2
f 78/37/2 79/36/2 80/26/2
f 81/35/3 82/38/3 84/34/3
f 82/38/3 83/37/3 84/34/3
f 85/23/4 86/36/4 88/13/4
f 86/36/4 87/11/4 88/13/4
f 89/30/5 90/37/5 92/23/5
f 90/37/5 91/36/5 92/23/5
f 93/38/6 94/33/6 96/37/6
f 94/33/6 95/30/6 96/37/6
usemtl Element
f 97/39/1 98/27/1 100/40/1
f 98/27/1 99/29/1 100/40/1
f 101/39/2 102/41/2 104/40/2
f 102/41/2 103/42/2 104/40/2
f 105/41/3 106/43/3 108/42/3
f 106/43/3 107/44/3 108/42/3
f 109/45/4 110/43/4 112/46/4
f 110/43/4 111/44/4 112/46/4
f 113/47/5 114/45/5 116/48/5
f 114/45/5 115/46/5 116/48/5
f 117/47/6 118/49/6 120/48/6
f 118/49/6 119/50/6 120/48/6
usemtl Element
f 121/51/1 122/49/1 124/52/1
f 122/49/1 123/50/1 124/52/1
f 125/51/2 126/53/2 128/52/2
f 126/53/2 127/54/2 128/52/2
f 129/18/3 130/55/3 132/27/3
f 130/55/3 131/39/3 132/27/3
f 133/56/4 134/15/4 136/55/4
f 134/15/4 135/18/4 136/55/4
f 137/57/5 138/20/5 140/56/5
f 138/20/5 139/15/5 140/56/5
f 141/21/6 142/58/6 144/20/6
f 142/58/6 143/57/6 144/20/6
