# This file uses centimeters as units for non-parametric coordinates.

mtllib signal.mtl
g default
v -0.050000 0.000448 0.098815
v -0.050000 0.000448 -0.101185
v -0.050000 0.800452 -0.301185
v -0.050000 0.800452 -0.501185
v -0.050000 0.900450 0.498816
v -0.050000 0.900450 0.098815
v -0.050000 0.900450 -0.101185
v -0.050000 0.900450 -0.301185
v -0.050000 0.900450 -0.501185
v -0.050000 0.900450 -0.601185
v -0.050000 1.000448 0.398815
v -0.050000 1.000448 -0.301185
v -0.050000 1.000448 -0.501185
v -0.050000 1.000448 -0.601185
v -0.050000 1.000448 -0.701185
v -0.050000 1.100447 0.398815
v -0.050000 1.100447 -0.301185
v -0.050000 1.100447 -0.501185
v -0.050000 1.100447 -0.601185
v -0.050000 1.100447 -0.701185
v -0.050000 1.200453 0.498816
v -0.050000 1.200453 -0.301185
v -0.050000 1.200453 -0.501185
v -0.050000 1.200453 -0.601185
v -0.050000 1.300452 -0.301185
v -0.050000 1.300452 -0.501185
v 0.050000 0.000448 0.098815
v 0.050000 0.000448 -0.101185
v 0.050000 0.800452 -0.301185
v 0.050000 0.800452 -0.501185
v 0.050000 0.900450 0.498816
v 0.050000 0.900450 0.098815
v 0.050000 0.900450 -0.101185
v 0.050000 0.900450 -0.301185
v 0.050000 0.900450 -0.501185
v 0.050000 0.900450 -0.601185
v 0.050000 1.000448 0.398815
v 0.050000 1.000448 -0.301185
v 0.050000 1.000448 -0.501185
v 0.050000 1.000448 -0.601185
v 0.050000 1.000448 -0.701185
v 0.050000 1.100447 0.398815
v 0.050000 1.100447 -0.301185
v 0.050000 1.100447 -0.501185
v 0.050000 1.100447 -0.601185
v 0.050000 1.100447 -0.701185
v 0.050000 1.200453 0.498816
v 0.050000 1.200453 -0.301185
v 0.050000 1.200453 -0.501185
v 0.050000 1.200453 -0.601185
v 0.050000 1.300452 -0.301185
v 0.050000 1.300452 -0.501185
v -0.050000 0.900450 0.498816
v -0.050000 1.200453 0.498816
v 0.050000 0.900450 0.498816
v 0.050000 1.200453 0.498816
v -0.050000 0.000448 0.098815
v -0.050000 0.900450 0.098815
v 0.050000 0.000448 0.098815
v 0.050000 0.900450 0.098815
v -0.050000 0.800452 -0.301185
v -0.050000 0.900450 -0.301185
v -0.050000 1.200453 -0.301185
v -0.050000 1.300452 -0.301185
v 0.050000 0.800452 -0.301185
v 0.050000 0.900450 -0.301185
v 0.050000 1.200453 -0.301185
v 0.050000 1.300452 -0.301185
v -0.050000 0.000448 -0.101185
v -0.050000 0.900450 -0.101185
v 0.050000 0.000448 -0.101185
v 0.050000 0.900450 -0.101185
v -0.050000 0.800452 -0.501185
v -0.050000 0.900450 -0.501185
v -0.050000 1.200453 -0.501185
v -0.050000 1.300452 -0.501185
v 0.050000 0.800452 -0.501185
v 0.050000 0.900450 -0.501185
v 0.050000 1.200453 -0.501185
v 0.050000 1.300452 -0.501185
v -0.050000 0.900450 -0.601185
v -0.050000 1.000448 -0.601185
v -0.050000 1.100447 -0.601185
v -0.050000 1.200453 -0.601185
v 0.050000 0.900450 -0.601185
v 0.050000 1.000448 -0.601185
v 0.050000 1.100447 -0.601185
v 0.050000 1.200453 -0.601185
v -0.050000 1.000448 -0.701185
v -0.050000 1.100447 -0.701185
v 0.050000 1.000448 -0.701185
v 0.050000 1.100447 -0.701185
v -0.050000 0.000448 0.098815
v 0.050000 0.000448 0.098815
v -0.050000 0.000448 -0.101185
v 0.050000 0.000448 -0.101185
v -0.050000 0.800452 -0.301185
v 0.050000 0.800452 -0.301185
v -0.050000 0.800452 -0.501185
v 0.050000 0.800452 -0.501185
v -0.050000 0.900450 0.498816
v 0.050000 0.900450 0.498816
v -0.050000 0.900450 0.098815
v 0.050000 0.900450 0.098815
v -0.050000 0.900450 -0.101185
v 0.050000 0.900450 -0.101185
v -0.050000 0.900450 -0.301185
v 0.050000 0.900450 -0.301185
v -0.050000 0.900450 -0.501185
v 0.050000 0.900450 -0.501185
v -0.050000 0.900450 -0.601185
v 0.050000 0.900450 -0.601185
v -0.050000 1.000448 -0.601185
v 0.050000 1.000448 -0.601185
v -0.050000 1.000448 -0.701185
v 0.050000 1.000448 -0.701185
v -0.050000 1.100447 -0.601185
v 0.050000 1.100447 -0.601185
v -0.050000 1.100447 -0.701185
v 0.050000 1.100447 -0.701185
v -0.050000 1.200453 0.498816
v 0.050000 1.200453 0.498816
v -0.050000 1.200453 -0.301185
v 0.050000 1.200453 -0.301185
v -0.050000 1.200453 -0.501185
v 0.050000 1.200453 -0.501185
v -0.050000 1.200453 -0.601185
v 0.050000 1.200453 -0.601185
v -0.050000 1.300452 -0.301185
v 0.050000 1.300452 -0.301185
v -0.050000 1.300452 -0.501185
v 0.050000 1.300452 -0.501185
vt 0.255859 0.500000
vt 0.146484 0.500000
vt 0.255859 0.500000
vt 0.255859 0.500000
vt 0.255859 0.500000
vt 0.255859 0.500000
vt 0.255859 0.500000
vt 0.255859 0.500000
vt 0.255859 0.500000
vt 0.255859 0.500000
vt 0.255859 0.500000
vt 0.255859 0.500000
vt 0.255859 0.500000
vt 0.255859 0.500000
vt 0.255859 0.500000
vt 0.255859 0.500000
vt 0.255859 0.500000
vt 0.255859 0.500000
vt 0.255859 0.500000
vt 0.146484 0.500000
vt 0.146484 0.500000
vt 0.255859 0.500000
vt 0.255859 0.500000
vt 0.255859 0.500000
vt 0.255859 0.500000
vt 0.255859 0.500000
vt 0.255859 0.500000
vt 0.146484 0.500000
vt 0.146484 0.500000
vt 0.255859 0.500000
vt 0.255859 0.500000
vt 0.255859 0.500000
vt 0.146484 0.500000
vt 0.146484 0.500000
vt 0.255859 0.500000
vt 0.255859 0.500000
vt 0.255859 0.500000
vt 0.146484 0.500000
vt 0.146484 0.500000
vt 0.146484 0.500000
vt 0.146484 0.500000
vt 0.146484 0.500000
vt 0.146484 0.500000
vt 0.146484 0.500000
vt 0.146484 0.500000
vt 0.146484 0.500000
vt 0.146484 0.500000
vt 0.146484 0.500000
vt 0.255859 0.500000
vt 0.255859 0.500000
vt 0.255859 0.500000
vt 0.146484 0.500000
vt 0.146484 0.500000
vt 0.146484 0.500000
vt 0.255859 0.500000
vt 0.255859 0.500000
vt 0.255859 0.500000
vt 0.255859 0.500000
vt 0.255859 0.500000
vt 0.255859 0.500000
vt 0.255859 0.500000
vt 0.255859 0.500000
vt 0.255859 0.500000
vt 0.146484 0.500000
vt 0.146484 0.500000
vt 0.146484 0.500000
vt 0.255859 0.500000
vt 0.255859 0.500000
vt 0.255859 0.500000
vt 0.255859 0.500000
vt 0.255859 0.500000
vt 0.255859 0.500000
vt 0.146484 0.500000
vt 0.146484 0.500000
vt 0.146484 0.500000
vt 0.255859 0.500000
vt 0.255859 0.500000
vt 0.255859 0.500000
vt 0.255859 0.500000
vt 0.255859 0.500000
vt 0.255859 0.500000
vt 0.255859 0.500000
vt 0.255859 0.500000
vt 0.255859 0.500000
vt 0.255859 0.500000
vt 0.255859 0.500000
vt 0.255859 0.500000
vt 0.255859 0.500000
vt 0.255859 0.500000
vt 0.255859 0.500000
vt 0.255859 0.500000
vt 0.255859 0.500000
vt 0.255859 0.500000
vt 0.255859 0.500000
vt 0.255859 0.500000
vt 0.255859 0.500000
vt 0.255859 0.500000
vt 0.255859 0.500000
vt 0.255859 0.500000
vt 0.255859 0.500000
vt 0.255859 0.500000
vt 0.255859 0.500000
vt 0.255859 0.500000
vt 0.255859 0.500000
vt 0.255859 0.500000
vt 0.146484 0.500000
vt 0.146484 0.500000
vt 0.146484 0.500000
vt 0.255859 0.500000
vt 0.255859 0.500000
vt 0.255859 0.500000
vt 0.255859 0.500000
vt 0.255859 0.500000
vt 0.255859 0.500000
vt 0.146484 0.500000
vt 0.146484 0.500000
vt 0.146484 0.500000
vt 0.255859 0.500000
vt 0.255859 0.500000
vt 0.255859 0.500000
vt 0.146484 0.500000
vt 0.146484 0.500000
vt 0.146484 0.500000
vt 0.255859 0.500000
vt 0.255859 0.500000
vt 0.255859 0.500000
vt 0.146484 0.500000
vt 0.146484 0.500000
vt 0.146484 0.500000
vt 0.146484 0.500000
vt 0.146484 0.500000
vt 0.146484 0.500000
vt 0.146484 0.500000
vt 0.146484 0.500000
vt 0.146484 0.500000
vt 0.146484 0.500000
vt 0.146484 0.500000
vt 0.146484 0.500000
vt 0.255859 0.500000
vt 0.255859 0.500000
vt 0.255859 0.500000
vt 0.146484 0.500000
vt 0.146484 0.500000
vt 0.146484 0.500000
vt 0.255859 0.500000
vt 0.255859 0.500000
vt 0.255859 0.500000
vt 0.255859 0.500000
vt 0.255859 0.500000
vt 0.255859 0.500000
vt 0.255859 0.500000
vt 0.255859 0.500000
vt 0.255859 0.500000
vt 0.146484 0.500000
vt 0.146484 0.500000
vt 0.146484 0.500000
vt 0.255859 0.500000
vt 0.255859 0.500000
vt 0.255859 0.500000
vt 0.255859 0.500000
vt 0.255859 0.500000
vt 0.255859 0.500000
vt 0.146484 0.500000
vt 0.146484 0.500000
vt 0.146484 0.500000
vt 0.255859 0.500000
vt 0.255859 0.500000
vt 0.255859 0.500000
vt 0.255859 0.500000
vt 0.255859 0.500000
vt 0.255859 0.500000
vt 0.255859 0.500000
vt 0.255859 0.500000
vt 0.255859 0.500000
vt 0.255859 0.500000
vt 0.255859 0.500000
vt 0.255859 0.500000
vt 0.255859 0.500000
vt 0.255859 0.500000
vt 0.255859 0.500000
vt 0.255859 0.500000
vt 0.255859 0.500000
vt 0.255859 0.500000
vt 0.255859 0.500000
vt 0.255859 0.500000
vt 0.255859 0.500000
vt 0.255859 0.500000
vt 0.255859 0.500000
vt 0.255859 0.500000
vt 0.255859 0.500000
vt 0.255859 0.500000
vt 0.255859 0.500000
vt 0.255859 0.500000
vt 0.255859 0.500000
vt 0.255859 0.500000
vt 0.255859 0.500000
vt 0.255859 0.500000
vt 0.255859 0.500000
vt 0.255859 0.500000
vt 0.255859 0.500000
vt 0.255859 0.500000
vt 0.255859 0.500000
vt 0.255859 0.500000
vt 0.255859 0.500000
vt 0.255859 0.500000
vt 0.255859 0.500000
vt 0.255859 0.500000
vt 0.255859 0.500000
vt 0.255859 0.500000
vt 0.255859 0.500000
vt 0.255859 0.500000
vt 0.255859 0.500000
vt 0.255859 0.500000
vt 0.255859 0.500000
vt 0.255859 0.500000
vt 0.255859 0.500000
vt 0.255859 0.500000
vt 0.255859 0.500000
vt 0.255859 0.500000
vt 0.255859 0.500000
vt 0.255859 0.500000
vt 0.255859 0.500000
vt 0.255859 0.500000
vt 0.255859 0.500000
vt 0.255859 0.500000
vt 0.255859 0.500000
vt 0.255859 0.500000
vt 0.255859 0.500000
vt 0.255859 0.500000
vt 0.255859 0.500000
vt 0.255859 0.500000
vt 0.255859 0.500000
vt 0.255859 0.500000
vt 0.255859 0.500000
vt 0.255859 0.500000
vt 0.255859 0.500000
vt 0.255859 0.500000
vt 0.255859 0.500000
vt 0.255859 0.500000
vt 0.255859 0.500000
vt 0.255859 0.500000
vt 0.255859 0.500000
vt 0.255859 0.500000
vt 0.255859 0.500000
vt 0.255859 0.500000
vt 0.255859 0.500000
vt 0.255859 0.500000
vt 0.255859 0.500000
vt 0.255859 0.500000
vt 0.255859 0.500000
vt 0.255859 0.500000
vt 0.255859 0.500000
vt 0.255859 0.500000
vt 0.255859 0.500000
vt 0.255859 0.500000
vt 0.255859 0.500000
vt 0.255859 0.500000
vt 0.255859 0.500000
vt 0.255859 0.500000
vt 0.255859 0.500000
vt 0.255859 0.500000
vt 0.255859 0.500000
vt 0.255859 0.500000
vt 0.255859 0.500000
vt 0.255859 0.500000
vt 0.255859 0.500000
vt 0.255859 0.500000
vt 0.255859 0.500000
vt 0.255859 0.500000
vt 0.255859 0.500000
vt 0.255859 0.500000
vt 0.255859 0.500000
vt 0.255859 0.500000
vt 0.255859 0.500000
vt 0.255859 0.500000
vt 0.255859 0.500000
vt 0.255859 0.500000
vt 0.255859 0.500000
vt 0.255859 0.500000
vt 0.255859 0.500000
vt 0.255859 0.500000
vt 0.255859 0.500000
vt 0.255859 0.500000
vt 0.255859 0.500000
vt 0.255859 0.500000
vt 0.255859 0.500000
vt 0.255859 0.500000
vt 0.255859 0.500000
vt 0.255859 0.500000
vt 0.255859 0.500000
vt 0.255859 0.500000
vt 0.255859 0.500000
vt 0.255859 0.500000
vt 0.255859 0.500000
vn -1.000000 0.000000 0.000000
vn -1.000000 0.000000 0.000000
vn -1.000000 0.000000 0.000000
vn -1.000000 0.000000 0.000000
vn -1.000000 0.000000 0.000000
vn -1.000000 0.000000 0.000000
vn -1.000000 0.000000 0.000000
vn -1.000000 0.000000 0.000000
vn -1.000000 0.000000 0.000000
vn -1.000000 0.000000 0.000000
vn -1.000000 0.000000 0.000000
vn -1.000000 0.000000 0.000000
vn -1.000000 0.000000 0.000000
vn -1.000000 0.000000 0.000000
vn -1.000000 0.000000 0.000000
vn -1.000000 0.000000 0.000000
vn -1.000000 0.000000 0.000000
vn -1.000000 0.000000 0.000000
vn -1.000000 0.000000 0.000000
vn -1.000000 0.000000 0.000000
vn -1.000000 0.000000 0.000000
vn -1.000000 0.000000 0.000000
vn -1.000000 0.000000 0.000000
vn -1.000000 0.000000 0.000000
vn -1.000000 0.000000 0.000000
vn -1.000000 0.000000 0.000000
vn -1.000000 0.000000 0.000000
vn -1.000000 0.000000 0.000000
vn -1.000000 0.000000 0.000000
vn -1.000000 0.000000 0.000000
vn -1.000000 0.000000 0.000000
vn -1.000000 0.000000 0.000000
vn -1.000000 0.000000 0.000000
vn -1.000000 0.000000 0.000000
vn -1.000000 0.000000 0.000000
vn -1.000000 0.000000 0.000000
vn -1.000000 0.000000 0.000000
vn -1.000000 0.000000 0.000000
vn -1.000000 0.000000 0.000000
vn -1.000000 0.000000 0.000000
vn -1.000000 0.000000 0.000000
vn -1.000000 0.000000 0.000000
vn -1.000000 0.000000 0.000000
vn -1.000000 0.000000 0.000000
vn -1.000000 0.000000 0.000000
vn -1.000000 0.000000 0.000000
vn -1.000000 0.000000 0.000000
vn -1.000000 0.000000 0.000000
vn -1.000000 0.000000 0.000000
vn -1.000000 0.000000 0.000000
vn -1.000000 0.000000 0.000000
vn -1.000000 0.000000 0.000000
vn -1.000000 0.000000 0.000000
vn -1.000000 0.000000 0.000000
vn -1.000000 0.000000 0.000000
vn -1.000000 0.000000 0.000000
vn -1.000000 0.000000 0.000000
vn -1.000000 0.000000 0.000000
vn -1.000000 0.000000 0.000000
vn -1.000000 0.000000 0.000000
vn -1.000000 0.000000 0.000000
vn -1.000000 0.000000 0.000000
vn -1.000000 0.000000 0.000000
vn -1.000000 0.000000 0.000000
vn -1.000000 0.000000 0.000000
vn -1.000000 0.000000 0.000000
vn -1.000000 0.000000 0.000000
vn -1.000000 0.000000 0.000000
vn -1.000000 0.000000 0.000000
vn -1.000000 0.000000 0.000000
vn -1.000000 0.000000 0.000000
vn -1.000000 0.000000 0.000000
vn -1.000000 0.000000 0.000000
vn -1.000000 0.000000 0.000000
vn -1.000000 0.000000 0.000000
vn -1.000000 0.000000 0.000000
vn -1.000000 0.000000 0.000000
vn -1.000000 0.000000 0.000000
vn -1.000000 0.000000 0.000000
vn -1.000000 0.000000 0.000000
vn -1.000000 0.000000 0.000000
vn -1.000000 0.000000 0.000000
vn -1.000000 0.000000 0.000000
vn -1.000000 0.000000 0.000000
vn -1.000000 0.000000 0.000000
vn -1.000000 0.000000 0.000000
vn -1.000000 0.000000 0.000000
vn -1.000000 0.000000 0.000000
vn -1.000000 0.000000 0.000000
vn -1.000000 0.000000 0.000000
vn 1.000000 0.000000 0.000000
vn 1.000000 0.000000 0.000000
vn 1.000000 0.000000 0.000000
vn 1.000000 0.000000 0.000000
vn 1.000000 0.000000 0.000000
vn 1.000000 0.000000 0.000000
vn 1.000000 0.000000 0.000000
vn 1.000000 0.000000 0.000000
vn 1.000000 0.000000 0.000000
vn 1.000000 0.000000 0.000000
vn 1.000000 0.000000 0.000000
vn 1.000000 0.000000 0.000000
vn 1.000000 0.000000 0.000000
vn 1.000000 0.000000 0.000000
vn 1.000000 0.000000 0.000000
vn 1.000000 0.000000 0.000000
vn 1.000000 0.000000 0.000000
vn 1.000000 0.000000 0.000000
vn 1.000000 0.000000 0.000000
vn 1.000000 0.000000 0.000000
vn 1.000000 0.000000 0.000000
vn 1.000000 0.000000 0.000000
vn 1.000000 0.000000 0.000000
vn 1.000000 0.000000 0.000000
vn 1.000000 0.000000 0.000000
vn 1.000000 0.000000 0.000000
vn 1.000000 0.000000 0.000000
vn 1.000000 0.000000 0.000000
vn 1.000000 0.000000 0.000000
vn 1.000000 0.000000 0.000000
vn 1.000000 0.000000 0.000000
vn 1.000000 0.000000 0.000000
vn 1.000000 0.000000 0.000000
vn 1.000000 0.000000 0.000000
vn 1.000000 0.000000 0.000000
vn 1.000000 0.000000 0.000000
vn 1.000000 0.000000 0.000000
vn 1.000000 0.000000 0.000000
vn 1.000000 0.000000 0.000000
vn 1.000000 0.000000 0.000000
vn 1.000000 0.000000 0.000000
vn 1.000000 0.000000 0.000000
vn 1.000000 0.000000 0.000000
vn 1.000000 0.000000 0.000000
vn 1.000000 0.000000 0.000000
vn 1.000000 0.000000 0.000000
vn 1.000000 0.000000 0.000000
vn 1.000000 0.000000 0.000000
vn 1.000000 0.000000 0.000000
vn 1.000000 0.000000 0.000000
vn 1.000000 0.000000 0.000000
vn 1.000000 0.000000 0.000000
vn 1.000000 0.000000 0.000000
vn 1.000000 0.000000 0.000000
vn 1.000000 0.000000 0.000000
vn 1.000000 0.000000 0.000000
vn 1.000000 0.000000 0.000000
vn 1.000000 0.000000 0.000000
vn 1.000000 0.000000 0.000000
vn 1.000000 0.000000 0.000000
vn 1.000000 0.000000 0.000000
vn 1.000000 0.000000 0.000000
vn 1.000000 0.000000 0.000000
vn 1.000000 0.000000 0.000000
vn 1.000000 0.000000 0.000000
vn 1.000000 0.000000 0.000000
vn 1.000000 0.000000 0.000000
vn 1.000000 0.000000 0.000000
vn 1.000000 0.000000 0.000000
vn 1.000000 0.000000 0.000000
vn 1.000000 0.000000 0.000000
vn 1.000000 0.000000 0.000000
vn 1.000000 0.000000 0.000000
vn 1.000000 0.000000 0.000000
vn 1.000000 0.000000 0.000000
vn 1.000000 0.000000 0.000000
vn 1.000000 0.000000 0.000000
vn 1.000000 0.000000 0.000000
vn 1.000000 0.000000 0.000000
vn 1.000000 0.000000 0.000000
vn 1.000000 0.000000 0.000000
vn 1.000000 0.000000 0.000000
vn 1.000000 0.000000 0.000000
vn 1.000000 0.000000 0.000000
vn 1.000000 0.000000 0.000000
vn 1.000000 0.000000 0.000000
vn 1.000000 0.000000 0.000000
vn 1.000000 0.000000 0.000000
vn 1.000000 0.000000 0.000000
vn 1.000000 0.000000 0.000000
vn 0.000000 0.000000 1.000000
vn 0.000000 0.000000 1.000000
vn 0.000000 0.000000 1.000000
vn 0.000000 0.000000 1.000000
vn 0.000000 0.000000 1.000000
vn 0.000000 0.000000 1.000000
vn 0.000000 0.000000 1.000000
vn 0.000000 0.000000 1.000000
vn 0.000000 0.000000 1.000000
vn 0.000000 0.000000 1.000000
vn 0.000000 0.000000 1.000000
vn 0.000000 0.000000 1.000000
vn 0.000000 0.000000 1.000000
vn 0.000000 0.000000 1.000000
vn 0.000000 0.000000 1.000000
vn 0.000000 0.000000 1.000000
vn 0.000000 0.000000 1.000000
vn 0.000000 0.000000 1.000000
vn 0.000000 0.000000 1.000000
vn 0.000000 0.000000 1.000000
vn 0.000000 0.000000 1.000000
vn 0.000000 0.000000 1.000000
vn 0.000000 0.000000 1.000000
vn 0.000000 0.000000 1.000000
vn 0.000000 0.000000 -1.000000
vn 0.000000 0.000000 -1.000000
vn 0.000000 0.000000 -1.000000
vn 0.000000 0.000000 -1.000000
vn 0.000000 0.000000 -1.000000
vn 0.000000 0.000000 -1.000000
vn 0.000000 0.000000 -1.000000
vn 0.000000 0.000000 -1.000000
vn 0.000000 0.000000 -1.000000
vn 0.000000 0.000000 -1.000000
vn 0.000000 0.000000 -1.000000
vn 0.000000 0.000000 -1.000000
vn 0.000000 0.000000 -1.000000
vn 0.000000 0.000000 -1.000000
vn 0.000000 0.000000 -1.000000
vn 0.000000 0.000000 -1.000000
vn 0.000000 0.000000 -1.000000
vn 0.000000 0.000000 -1.000000
vn 0.000000 0.000000 -1.000000
vn 0.000000 0.000000 -1.000000
vn 0.000000 0.000000 -1.000000
vn 0.000000 0.000000 -1.000000
vn 0.000000 0.000000 -1.000000
vn 0.000000 0.000000 -1.000000
vn 0.000000 0.000000 -1.000000
vn 0.000000 0.000000 -1.000000
vn 0.000000 0.000000 -1.000000
vn 0.000000 0.000000 -1.000000
vn 0.000000 0.000000 -1.000000
vn 0.000000 0.000000 -1.000000
vn 0.000000 0.000000 -1.000000
vn 0.000000 0.000000 -1.000000
vn 0.000000 0.000000 -1.000000
vn 0.000000 0.000000 -1.000000
vn 0.000000 0.000000 -1.000000
vn 0.000000 0.000000 -1.000000
vn 0.000000 -1.000000 0.000000
vn 0.000000 -1.000000 0.000000
vn 0.000000 -1.000000 0.000000
vn 0.000000 -1.000000 0.000000
vn 0.000000 -1.000000 0.000000
vn 0.000000 -1.000000 0.000000
vn 0.000000 -1.000000 0.000000
vn 0.000000 -1.000000 0.000000
vn 0.000000 -1.000000 0.000000
vn 0.000000 -1.000000 0.000000
vn 0.000000 -1.000000 0.000000
vn 0.000000 -1.000000 0.000000
vn 0.000000 -1.000000 0.000000
vn 0.000000 -1.000000 0.000000
vn 0.000000 -1.000000 0.000000
vn 0.000000 -1.000000 0.000000
vn 0.000000 -1.000000 0.000000
vn 0.000000 -1.000000 0.000000
vn 0.000000 -1.000000 0.000000
vn 0.000000 -1.000000 0.000000
vn 0.000000 -1.000000 0.000000
vn 0.000000 -1.000000 0.000000
vn 0.000000 -1.000000 0.000000
vn 0.000000 -1.000000 0.000000
vn 0.000000 -1.000000 0.000000
vn 0.000000 -1.000000 0.000000
vn 0.000000 -1.000000 0.000000
vn 0.000000 -1.000000 0.000000
vn 0.000000 -1.000000 0.000000
vn 0.000000 -1.000000 0.000000
vn 0.000000 -1.000000 0.000000
vn 0.000000 -1.000000 0.000000
vn 0.000000 -1.000000 0.000000
vn 0.000000 -1.000000 0.000000
vn 0.000000 -1.000000 0.000000
vn 0.000000 -1.000000 0.000000
vn 0.000000 1.000000 0.000000
vn 0.000000 1.000000 0.000000
vn 0.000000 1.000000 0.000000
vn 0.000000 1.000000 0.000000
vn 0.000000 1.000000 0.000000
vn 0.000000 1.000000 0.000000
vn 0.000000 1.000000 0.000000
vn 0.000000 1.000000 0.000000
vn 0.000000 1.000000 0.000000
vn 0.000000 1.000000 0.000000
vn 0.000000 1.000000 0.000000
vn 0.000000 1.000000 0.000000
vn 0.000000 1.000000 0.000000
vn 0.000000 1.000000 0.000000
vn 0.000000 1.000000 0.000000
vn 0.000000 1.000000 0.000000
vn 0.000000 1.000000 0.000000
vn 0.000000 1.000000 0.000000
vn 0.000000 1.000000 0.000000
vn 0.000000 1.000000 0.000000
vn 0.000000 1.000000 0.000000
vn 0.000000 1.000000 0.000000
vn 0.000000 1.000000 0.000000
vn 0.000000 1.000000 0.000000
s off
g Mesh
usemtl Signal_palette
f 6/1/1 2/3/2 1/4/3
f 7/5/4 2/6/5 6/1/6
f 8/7/7 4/8/8 3/9/9
f 9/10/10 4/11/11 8/12/12
f 11/13/13 7/14/14 6/1/15
f 11/15/16 6/1/17 5/16/18
f 11/17/19 8/18/20 7/19/21
f 12/2/22 9/20/23 8/21/24
f 12/22/25 8/23/26 11/24/27
f 13/25/28 10/26/29 9/27/30
f 13/28/31 9/29/32 12/2/33
f 14/30/34 10/31/35 13/32/36
f 16/33/37 12/2/38 11/34/39
f 16/35/40 11/36/41 5/37/42
f 16/38/43 14/39/44 13/40/45
f 16/41/46 13/42/47 12/2/48
f 17/43/49 14/44/50 16/45/51
f 18/46/52 14/47/53 17/48/54
f 19/49/55 15/50/56 14/51/57
f 19/52/58 14/53/59 18/54/60
f 20/55/61 15/56/62 19/57/63
f 21/58/64 16/59/65 5/60/66
f 21/61/67 17/62/68 16/63/69
f 22/64/70 18/65/71 17/66/72
f 22/67/73 17/68/74 21/69/75
f 23/70/76 19/71/77 18/72/78
f 23/73/79 18/74/80 22/75/81
f 24/76/82 19/77/83 23/78/84
f 25/79/85 23/80/86 22/81/87
f 26/82/88 23/83/89 25/84/90
f 27/85/91 28/86/92 32/87/93
f 32/88/94 28/89/95 33/90/96
f 29/91/97 30/92/98 34/93/99
f 34/94/100 30/95/101 35/96/102
f 32/97/103 33/98/104 37/99/105
f 31/100/106 32/101/107 37/102/108
f 33/103/109 34/104/110 37/105/111
f 34/106/112 35/107/113 38/108/114
f 37/109/115 34/110/116 38/111/117
f 35/112/118 36/113/119 39/114/120
f 38/115/121 35/116/122 39/117/123
f 39/118/124 36/119/125 40/120/126
f 37/121/127 38/122/128 42/123/129
f 31/124/130 37/125/131 42/126/132
f 39/127/133 40/128/134 42/129/135
f 38/130/136 39/131/137 42/132/138
f 42/133/139 40/134/140 43/135/141
f 43/136/142 40/137/143 44/138/144
f 40/139/145 41/140/146 45/141/147
f 44/142/148 40/143/149 45/144/150
f 45/145/151 41/146/152 46/147/153
f 31/148/154 42/149/155 47/150/156
f 42/151/157 43/152/158 47/153/159
f 43/154/160 44/155/161 48/156/162
f 47/157/163 43/158/164 48/159/165
f 44/160/166 45/161/167 49/162/168
f 48/163/169 44/164/170 49/165/171
f 49/166/172 45/167/173 50/168/174
f 48/169/175 49/170/176 51/171/177
f 51/172/178 49/173/179 52/174/180
f 55/175/181 54/176/182 53/177/183
f 56/178/184 54/179/185 55/180/186
f 59/181/187 58/182/188 57/183/189
f 60/184/190 58/185/191 59/186/192
f 65/187/193 62/188/194 61/189/195
f 66/190/196 62/191/197 65/192/198
f 67/193/199 64/194/200 63/195/201
f 68/196/202 64/197/203 67/198/204
f 69/199/205 70/200/206 71/201/207
f 71/202/208 70/203/209 72/204/210
f 73/205/211 74/206/212 77/207/213
f 77/208/214 74/209/215 78/210/216
f 75/211/217 76/212/218 79/213/219
f 79/214/220 76/215/221 80/216/222
f 81/217/223 82/218/224 85/219/225
f 85/220/226 82/221/227 86/222/228
f 83/223/229 84/224/230 87/225/231
f 87/226/232 84/227/233 88/228/234
f 89/229/235 90/230/236 91/231/237
f 91/232/238 90/233/239 92/234/240
f 95/235/241 94/236/242 93/237/243
f 96/238/244 94/239/245 95/240/246
f 99/241/247 98/242/248 97/243/249
f 100/244/250 98/245/251 99/246/252
f 103/247/253 102/248/254 101/249/255
f 104/250/256 102/251/257 103/252/258
f 107/253/259 106/254/260 105/255/261
f 108/256/262 106/257/263 107/258/264
f 111/259/265 110/260/266 109/261/267
f 112/262/268 110/263/269 111/264/270
f 115/265/271 114/266/272 113/267/273
f 116/268/274 114/269/275 115/270/276
f 117/271/277 118/272/278 119/273/279
f 119/274/280 118/275/281 120/276/282
f 121/277/283 122/278/284 123/279/285
f 123/280/286 122/281/287 124/282/288
f 125/283/289 126/284/290 127/285/291
f 127/286/292 126/287/293 128/288/294
f 129/289/295 130/290/296 131/291/297
f 131/292/298 130/293/299 132/294/300
