# This file uses centimeters as units for non-parametric coordinates.

mtllib benchPart2.mtl
g default
v 0.850000 -0.002260 0.400000
v 0.650000 -0.002260 0.400000
v 0.650000 0.797741 0.400000
v -0.850000 0.797741 0.400000
v 0.850000 0.997740 0.400000
v -0.850000 0.997740 0.400000
v 0.850000 -0.002260 -0.200000
v 0.650000 -0.002260 -0.200000
v 0.850000 0.797741 -0.200000
v 0.650000 0.797741 -0.200000
v 0.850000 -0.002260 0.200000
v 0.650000 -0.002260 0.200000
v 0.850000 0.797741 0.200000
v 0.650000 0.797741 0.200000
v 0.850000 -0.002260 -0.400000
v 0.650000 -0.002260 -0.400000
v 0.650000 0.797741 -0.400000
v -0.850000 0.797741 -0.400000
v 0.850000 0.997740 -0.400000
v -0.850000 0.997740 -0.400000
v 0.850000 -0.002260 0.400000
v 0.850000 0.997740 0.400000
v 0.850000 -0.002260 0.200000
v 0.850000 0.797741 0.200000
v 0.850000 -0.002260 -0.200000
v 0.850000 0.797741 -0.200000
v 0.850000 -0.002260 -0.400000
v 0.850000 0.997740 -0.400000
v 0.650000 -0.002260 0.400000
v 0.650000 0.797741 0.400000
v 0.650000 -0.002260 0.200000
v 0.650000 0.797741 0.200000
v 0.650000 -0.002260 -0.200000
v 0.650000 0.797741 -0.200000
v 0.650000 -0.002260 -0.400000
v 0.650000 0.797741 -0.400000
v -0.850000 0.797741 0.400000
v -0.850000 0.997740 0.400000
v -0.850000 0.897740 0.200000
v -0.850000 0.997740 0.200000
v -0.850000 0.897740 -0.200000
v -0.850000 0.997740 -0.200000
v -0.850000 0.797741 -0.400000
v -0.850000 0.997740 -0.400000
v 0.850000 -0.002260 0.400000
v 0.850000 -0.002260 0.200000
v 0.850000 -0.002260 -0.200000
v 0.850000 -0.002260 -0.400000
v 0.650000 -0.002260 0.400000
v 0.650000 -0.002260 0.200000
v 0.650000 -0.002260 -0.200000
v 0.650000 -0.002260 -0.400000
v 0.850000 0.797741 0.200000
v 0.850000 0.797741 -0.200000
v 0.650000 0.797741 0.400000
v 0.650000 0.797741 0.200000
v 0.650000 0.797741 -0.200000
v 0.650000 0.797741 -0.400000
v -0.850000 0.797741 0.400000
v -0.850000 0.797741 -0.400000
v 0.850000 0.997740 0.400000
v 0.850000 0.997740 -0.400000
v 0.650000 0.997740 0.200000
v 0.650000 0.997740 -0.200000
v -0.850000 0.997740 0.400000
v -0.850000 0.997740 0.200000
v -0.850000 0.997740 -0.200000
v -0.850000 0.997740 -0.400000
vt 0.986328 0.500000
vt 0.841797 0.500000
vt 0.986328 0.500000
vt 0.986328 0.500000
vt 0.986328 0.500000
vt 0.986328 0.500000
vt 0.986328 0.500000
vt 0.986328 0.500000
vt 0.986328 0.500000
vt 0.986328 0.500000
vt 0.986328 0.500000
vt 0.986328 0.500000
vt 0.986328 0.500000
vt 0.986328 0.500000
vt 0.986328 0.500000
vt 0.986328 0.500000
vt 0.986328 0.500000
vt 0.986328 0.500000
vt 0.986328 0.500000
vt 0.986328 0.500000
vt 0.986328 0.500000
vt 0.986328 0.500000
vt 0.986328 0.500000
vt 0.986328 0.500000
vt 0.986328 0.500000
vt 0.986328 0.500000
vt 0.986328 0.500000
vt 0.986328 0.500000
vt 0.986328 0.500000
vt 0.986328 0.500000
vt 0.986328 0.500000
vt 0.986328 0.500000
vt 0.986328 0.500000
vt 0.986328 0.500000
vt 0.986328 0.500000
vt 0.986328 0.500000
vt 0.986328 0.500000
vt 0.986328 0.500000
vt 0.986328 0.500000
vt 0.986328 0.500000
vt 0.986328 0.500000
vt 0.986328 0.500000
vt 0.986328 0.500000
vt 0.986328 0.500000
vt 0.986328 0.500000
vt 0.986328 0.500000
vt 0.986328 0.500000
vt 0.986328 0.500000
vt 0.986328 0.500000
vt 0.986328 0.500000
vt 0.986328 0.500000
vt 0.986328 0.500000
vt 0.986328 0.500000
vt 0.986328 0.500000
vt 0.986328 0.500000
vt 0.986328 0.500000
vt 0.986328 0.500000
vt 0.986328 0.500000
vt 0.986328 0.500000
vt 0.986328 0.500000
vt 0.986328 0.500000
vt 0.986328 0.500000
vt 0.986328 0.500000
vt 0.986328 0.500000
vt 0.986328 0.500000
vt 0.986328 0.500000
vt 0.986328 0.500000
vt 0.986328 0.500000
vt 0.986328 0.500000
vt 0.986328 0.500000
vt 0.986328 0.500000
vt 0.986328 0.500000
vt 0.986328 0.500000
vt 0.986328 0.500000
vt 0.841797 0.500000
vt 0.841797 0.500000
vt 0.841797 0.500000
vt 0.841797 0.500000
vt 0.841797 0.500000
vt 0.986328 0.500000
vt 0.986328 0.500000
vt 0.986328 0.500000
vt 0.986328 0.500000
vt 0.986328 0.500000
vt 0.986328 0.500000
vt 0.986328 0.500000
vt 0.986328 0.500000
vt 0.986328 0.500000
vt 0.986328 0.500000
vt 0.986328 0.500000
vt 0.986328 0.500000
vt 0.986328 0.500000
vt 0.986328 0.500000
vt 0.986328 0.500000
vt 0.986328 0.500000
vt 0.986328 0.500000
vt 0.986328 0.500000
vt 0.986328 0.500000
vt 0.986328 0.500000
vt 0.986328 0.500000
vt 0.986328 0.500000
vt 0.986328 0.500000
vt 0.986328 0.500000
vt 0.986328 0.500000
vt 0.986328 0.500000
vt 0.986328 0.500000
vt 0.986328 0.500000
vt 0.986328 0.500000
vt 0.986328 0.500000
vt 0.986328 0.500000
vt 0.986328 0.500000
vt 0.986328 0.500000
vt 0.986328 0.500000
vt 0.986328 0.500000
vt 0.986328 0.500000
vt 0.986328 0.500000
vt 0.986328 0.500000
vt 0.986328 0.500000
vt 0.986328 0.500000
vt 0.986328 0.500000
vt 0.986328 0.500000
vt 0.986328 0.500000
vt 0.986328 0.500000
vt 0.986328 0.500000
vt 0.986328 0.500000
vt 0.986328 0.500000
vt 0.986328 0.500000
vt 0.841797 0.500000
vt 0.841797 0.500000
vt 0.841797 0.500000
vt 0.986328 0.500000
vt 0.986328 0.500000
vt 0.986328 0.500000
vt 0.986328 0.500000
vt 0.986328 0.500000
vt 0.986328 0.500000
vt 0.841797 0.500000
vt 0.841797 0.500000
vt 0.841797 0.500000
vt 0.986328 0.500000
vt 0.986328 0.500000
vt 0.986328 0.500000
vn 0.000000 0.000000 1.000000
vn 0.000000 0.000000 1.000000
vn 0.000000 0.000000 1.000000
vn 0.000000 0.000000 1.000000
vn 0.000000 0.000000 1.000000
vn 0.000000 0.000000 1.000000
vn 0.000000 0.000000 1.000000
vn 0.000000 0.000000 1.000000
vn 0.000000 0.000000 1.000000
vn 0.000000 0.000000 1.000000
vn 0.000000 0.000000 1.000000
vn 0.000000 0.000000 1.000000
vn 0.000000 0.000000 1.000000
vn 0.000000 0.000000 1.000000
vn 0.000000 0.000000 1.000000
vn 0.000000 0.000000 1.000000
vn 0.000000 0.000000 1.000000
vn 0.000000 0.000000 1.000000
vn 0.000000 0.000000 -1.000000
vn 0.000000 0.000000 -1.000000
vn 0.000000 0.000000 -1.000000
vn 0.000000 0.000000 -1.000000
vn 0.000000 0.000000 -1.000000
vn 0.000000 0.000000 -1.000000
vn 0.000000 0.000000 -1.000000
vn 0.000000 0.000000 -1.000000
vn 0.000000 0.000000 -1.000000
vn 0.000000 0.000000 -1.000000
vn 0.000000 0.000000 -1.000000
vn 0.000000 0.000000 -1.000000
vn 0.000000 0.000000 -1.000000
vn 0.000000 0.000000 -1.000000
vn 0.000000 0.000000 -1.000000
vn 0.000000 0.000000 -1.000000
vn 0.000000 0.000000 -1.000000
vn 0.000000 0.000000 -1.000000
vn 1.000000 0.000000 0.000000
vn 1.000000 0.000000 0.000000
vn 1.000000 0.000000 0.000000
vn 1.000000 0.000000 0.000000
vn 1.000000 0.000000 0.000000
vn 1.000000 0.000000 0.000000
vn 1.000000 0.000000 0.000000
vn 1.000000 0.000000 0.000000
vn 1.000000 0.000000 0.000000
vn 1.000000 0.000000 0.000000
vn 1.000000 0.000000 0.000000
vn 1.000000 0.000000 0.000000
vn 1.000000 0.000000 0.000000
vn 1.000000 0.000000 0.000000
vn 1.000000 0.000000 0.000000
vn 1.000000 0.000000 0.000000
vn 1.000000 0.000000 0.000000
vn 1.000000 0.000000 0.000000
vn -1.000000 0.000000 -0.000000
vn -1.000000 0.000000 -0.000000
vn -1.000000 0.000000 -0.000000
vn -1.000000 0.000000 -0.000000
vn -1.000000 0.000000 -0.000000
vn -1.000000 0.000000 -0.000000
vn -1.000000 0.000000 -0.000000
vn -1.000000 0.000000 -0.000000
vn -1.000000 0.000000 -0.000000
vn -1.000000 0.000000 -0.000000
vn -1.000000 0.000000 -0.000000
vn -1.000000 0.000000 -0.000000
vn -1.000000 0.000000 -0.000000
vn -1.000000 0.000000 -0.000000
vn -1.000000 0.000000 -0.000000
vn -1.000000 0.000000 -0.000000
vn -1.000000 0.000000 -0.000000
vn -1.000000 0.000000 -0.000000
vn -1.000000 0.000000 -0.000000
vn -1.000000 0.000000 -0.000000
vn -1.000000 0.000000 -0.000000
vn -1.000000 0.000000 -0.000000
vn -1.000000 0.000000 -0.000000
vn -1.000000 0.000000 -0.000000
vn -1.000000 0.000000 -0.000000
vn -1.000000 0.000000 -0.000000
vn -1.000000 0.000000 -0.000000
vn -1.000000 0.000000 -0.000000
vn -1.000000 0.000000 -0.000000
vn -1.000000 0.000000 -0.000000
vn -1.000000 0.000000 -0.000000
vn -1.000000 0.000000 -0.000000
vn -1.000000 0.000000 -0.000000
vn -1.000000 0.000000 -0.000000
vn -1.000000 0.000000 -0.000000
vn -1.000000 0.000000 -0.000000
vn 0.000000 -1.000000 0.000000
vn 0.000000 -1.000000 0.000000
vn 0.000000 -1.000000 0.000000
vn 0.000000 -1.000000 0.000000
vn 0.000000 -1.000000 0.000000
vn 0.000000 -1.000000 0.000000
vn 0.000000 -1.000000 0.000000
vn 0.000000 -1.000000 0.000000
vn 0.000000 -1.000000 0.000000
vn 0.000000 -1.000000 0.000000
vn 0.000000 -1.000000 0.000000
vn 0.000000 -1.000000 0.000000
vn 0.000000 -1.000000 0.000000
vn 0.000000 -1.000000 0.000000
vn 0.000000 -1.000000 0.000000
vn 0.000000 -1.000000 0.000000
vn 0.000000 -1.000000 0.000000
vn 0.000000 -1.000000 0.000000
vn 0.000000 -1.000000 0.000000
vn 0.000000 -1.000000 0.000000
vn 0.000000 -1.000000 0.000000
vn 0.000000 -1.000000 0.000000
vn 0.000000 -1.000000 0.000000
vn 0.000000 -1.000000 0.000000
vn 0.000000 -1.000000 0.000000
vn 0.000000 -1.000000 0.000000
vn 0.000000 -1.000000 0.000000
vn 0.000000 -1.000000 0.000000
vn 0.000000 -1.000000 0.000000
vn 0.000000 -1.000000 0.000000
vn 0.000000 1.000000 0.000000
vn 0.000000 1.000000 0.000000
vn 0.000000 1.000000 0.000000
vn 0.000000 1.000000 0.000000
vn 0.000000 1.000000 0.000000
vn 0.000000 1.000000 0.000000
vn 0.000000 1.000000 0.000000
vn 0.000000 1.000000 0.000000
vn 0.000000 1.000000 0.000000
vn 0.000000 1.000000 0.000000
vn 0.000000 1.000000 0.000000
vn 0.000000 1.000000 0.000000
vn 0.000000 1.000000 0.000000
vn 0.000000 1.000000 0.000000
vn 0.000000 1.000000 0.000000
vn 0.000000 1.000000 0.000000
vn 0.000000 1.000000 0.000000
vn 0.000000 1.000000 0.000000
vn 0.000000 1.000000 0.000000
vn 0.000000 1.000000 0.000000
vn 0.000000 1.000000 0.000000
vn 0.000000 1.000000 0.000000
vn 0.000000 1.000000 0.000000
vn 0.000000 1.000000 0.000000
s off
g banco2:Mesh
usemtl banco2:palette
f 3/1/1 2/3/2 1/4/3
f 5/5/4 3/1/5 1/6/6
f 5/7/7 4/8/8 3/1/9
f 6/9/10 4/10/11 5/11/12
f 9/12/13 8/13/14 7/14/15
f 10/15/16 8/16/17 9/17/18
f 11/18/19 12/19/20 13/20/21
f 13/21/22 12/22/23 14/23/24
f 15/24/25 16/25/26 17/26/27
f 15/27/28 17/28/29 19/29/30
f 17/30/31 18/31/32 19/32/33
f 19/33/34 18/34/35 20/35/36
f 23/36/37 22/37/38 21/38/39
f 24/39/40 22/40/41 23/41/42
f 26/42/43 22/43/44 24/44/45
f 27/45/46 26/46/47 25/47/48
f 28/48/49 22/49/50 26/50/51
f 28/51/52 26/52/53 27/53/54
f 29/54/55 30/55/56 31/56/57
f 31/57/58 30/58/59 32/59/60
f 33/60/61 34/61/62 35/62/63
f 35/63/64 34/64/65 36/65/66
f 37/66/67 38/67/68 39/68/69
f 39/69/70 38/70/71 40/71/72
f 37/72/73 39/73/74 41/74/75
f 39/2/76 40/75/77 41/76/78
f 41/77/79 40/78/80 42/79/81
f 37/80/82 41/81/83 43/82/84
f 41/83/85 42/84/86 43/85/87
f 43/86/88 42/87/89 44/88/90
f 49/89/91 46/90/92 45/91/93
f 50/92/94 46/93/95 49/94/96
f 51/95/97 48/96/98 47/97/99
f 52/98/100 48/99/101 51/100/102
f 56/101/103 54/102/104 53/103/105
f 57/104/106 54/105/107 56/106/108
f 59/107/109 56/108/110 55/109/111
f 59/110/112 58/111/113 57/112/114
f 59/113/115 57/114/116 56/115/117
f 60/116/118 58/117/119 59/118/120
f 61/119/121 62/120/122 63/121/123
f 63/122/124 62/123/125 64/124/126
f 61/125/127 63/126/128 65/127/129
f 63/128/130 64/129/131 66/130/132
f 65/131/133 63/132/134 66/133/135
f 64/134/136 62/135/137 67/136/138
f 66/137/139 64/138/140 67/139/141
f 67/140/142 62/141/143 68/142/144
