# This file uses centimeters as units for non-parametric coordinates.

mtllib benchPart1.mtl
g default
v -0.650000 -0.002518 0.400000
v -0.850000 -0.002518 0.400000
v 0.850000 0.797483 0.400000
v -0.650000 0.797483 0.400000
v 0.850000 0.997482 0.400000
v -0.850000 0.997482 0.400000
v -0.650000 -0.002518 -0.200000
v -0.850000 -0.002518 -0.200000
v -0.650000 0.797483 -0.200000
v -0.850000 0.797483 -0.200000
v -0.650000 -0.002518 0.200000
v -0.850000 -0.002518 0.200000
v -0.650000 0.797483 0.200000
v -0.850000 0.797483 0.200000
v -0.650000 -0.002518 -0.400000
v -0.850000 -0.002518 -0.400000
v 0.850000 0.797483 -0.400000
v -0.650000 0.797483 -0.400000
v 0.850000 0.997482 -0.400000
v -0.850000 0.997482 -0.400000
v 0.850000 0.797483 0.400000
v 0.850000 0.997482 0.400000
v 0.850000 0.897482 0.200000
v 0.850000 0.997482 0.200000
v 0.850000 0.897482 -0.200000
v 0.850000 0.997482 -0.200000
v 0.850000 0.797483 -0.400000
v 0.850000 0.997482 -0.400000
v -0.650000 -0.002518 0.400000
v -0.650000 0.797483 0.400000
v -0.650000 -0.002518 0.200000
v -0.650000 0.797483 0.200000
v -0.650000 -0.002518 -0.200000
v -0.650000 0.797483 -0.200000
v -0.650000 -0.002518 -0.400000
v -0.650000 0.797483 -0.400000
v -0.850000 -0.002518 0.400000
v -0.850000 0.997482 0.400000
v -0.850000 -0.002518 0.200000
v -0.850000 0.797483 0.200000
v -0.850000 -0.002518 -0.200000
v -0.850000 0.797483 -0.200000
v -0.850000 -0.002518 -0.400000
v -0.850000 0.997482 -0.400000
v -0.650000 -0.002518 0.400000
v -0.650000 -0.002518 0.200000
v -0.650000 -0.002518 -0.200000
v -0.650000 -0.002518 -0.400000
v -0.850000 -0.002518 0.400000
v -0.850000 -0.002518 0.200000
v -0.850000 -0.002518 -0.200000
v -0.850000 -0.002518 -0.400000
v 0.850000 0.797483 0.400000
v 0.850000 0.797483 -0.400000
v -0.650000 0.797483 0.400000
v -0.650000 0.797483 0.200000
v -0.650000 0.797483 -0.200000
v -0.650000 0.797483 -0.400000
v -0.850000 0.797483 0.200000
v -0.850000 0.797483 -0.200000
v 0.850000 0.997482 0.400000
v 0.850000 0.997482 0.200000
v 0.850000 0.997482 -0.200000
v 0.850000 0.997482 -0.400000
v -0.650000 0.997482 0.200000
v -0.650000 0.997482 -0.200000
v -0.850000 0.997482 0.400000
v -0.850000 0.997482 -0.400000
vt 0.986328 0.500000
vt 0.841797 0.500000
vt 0.986328 0.500000
vt 0.986328 0.500000
vt 0.986328 0.500000
vt 0.986328 0.500000
vt 0.986328 0.500000
vt 0.986328 0.500000
vt 0.986328 0.500000
vt 0.986328 0.500000
vt 0.986328 0.500000
vt 0.986328 0.500000
vt 0.986328 0.500000
vt 0.986328 0.500000
vt 0.986328 0.500000
vt 0.986328 0.500000
vt 0.986328 0.500000
vt 0.986328 0.500000
vt 0.986328 0.500000
vt 0.986328 0.500000
vt 0.986328 0.500000
vt 0.986328 0.500000
vt 0.986328 0.500000
vt 0.986328 0.500000
vt 0.986328 0.500000
vt 0.986328 0.500000
vt 0.986328 0.500000
vt 0.986328 0.500000
vt 0.986328 0.500000
vt 0.986328 0.500000
vt 0.986328 0.500000
vt 0.986328 0.500000
vt 0.986328 0.500000
vt 0.986328 0.500000
vt 0.986328 0.500000
vt 0.986328 0.500000
vt 0.986328 0.500000
vt 0.986328 0.500000
vt 0.986328 0.500000
vt 0.986328 0.500000
vt 0.986328 0.500000
vt 0.986328 0.500000
vt 0.986328 0.500000
vt 0.841797 0.500000
vt 0.841797 0.500000
vt 0.841797 0.500000
vt 0.841797 0.500000
vt 0.986328 0.500000
vt 0.986328 0.500000
vt 0.986328 0.500000
vt 0.986328 0.500000
vt 0.986328 0.500000
vt 0.986328 0.500000
vt 0.986328 0.500000
vt 0.986328 0.500000
vt 0.986328 0.500000
vt 0.986328 0.500000
vt 0.986328 0.500000
vt 0.986328 0.500000
vt 0.986328 0.500000
vt 0.986328 0.500000
vt 0.986328 0.500000
vt 0.986328 0.500000
vt 0.986328 0.500000
vt 0.986328 0.500000
vt 0.986328 0.500000
vt 0.986328 0.500000
vt 0.986328 0.500000
vt 0.986328 0.500000
vt 0.986328 0.500000
vt 0.986328 0.500000
vt 0.986328 0.500000
vt 0.986328 0.500000
vt 0.986328 0.500000
vt 0.986328 0.500000
vt 0.986328 0.500000
vt 0.986328 0.500000
vt 0.986328 0.500000
vt 0.986328 0.500000
vt 0.986328 0.500000
vt 0.986328 0.500000
vt 0.986328 0.500000
vt 0.986328 0.500000
vt 0.986328 0.500000
vt 0.986328 0.500000
vt 0.986328 0.500000
vt 0.986328 0.500000
vt 0.986328 0.500000
vt 0.986328 0.500000
vt 0.986328 0.500000
vt 0.986328 0.500000
vt 0.986328 0.500000
vt 0.986328 0.500000
vt 0.986328 0.500000
vt 0.986328 0.500000
vt 0.986328 0.500000
vt 0.986328 0.500000
vt 0.986328 0.500000
vt 0.986328 0.500000
vt 0.986328 0.500000
vt 0.986328 0.500000
vt 0.986328 0.500000
vt 0.986328 0.500000
vt 0.986328 0.500000
vt 0.986328 0.500000
vt 0.986328 0.500000
vt 0.986328 0.500000
vt 0.986328 0.500000
vt 0.986328 0.500000
vt 0.986328 0.500000
vt 0.986328 0.500000
vt 0.986328 0.500000
vt 0.986328 0.500000
vt 0.986328 0.500000
vt 0.986328 0.500000
vt 0.986328 0.500000
vt 0.986328 0.500000
vt 0.986328 0.500000
vt 0.986328 0.500000
vt 0.841797 0.500000
vt 0.841797 0.500000
vt 0.841797 0.500000
vt 0.986328 0.500000
vt 0.986328 0.500000
vt 0.986328 0.500000
vt 0.841797 0.500000
vt 0.841797 0.500000
vt 0.841797 0.500000
vt 0.986328 0.500000
vt 0.986328 0.500000
vt 0.986328 0.500000
vt 0.986328 0.500000
vt 0.986328 0.500000
vt 0.986328 0.500000
vt 0.986328 0.500000
vt 0.986328 0.500000
vt 0.986328 0.500000
vt 0.986328 0.500000
vt 0.986328 0.500000
vt 0.986328 0.500000
vn 0.000000 0.000000 1.000000
vn 0.000000 0.000000 1.000000
vn 0.000000 0.000000 1.000000
vn 0.000000 0.000000 1.000000
vn 0.000000 0.000000 1.000000
vn 0.000000 0.000000 1.000000
vn 0.000000 0.000000 1.000000
vn 0.000000 0.000000 1.000000
vn 0.000000 0.000000 1.000000
vn 0.000000 0.000000 1.000000
vn 0.000000 0.000000 1.000000
vn 0.000000 0.000000 1.000000
vn 0.000000 0.000000 1.000000
vn 0.000000 0.000000 1.000000
vn 0.000000 0.000000 1.000000
vn 0.000000 0.000000 1.000000
vn 0.000000 0.000000 1.000000
vn 0.000000 0.000000 1.000000
vn 0.000000 0.000000 -1.000000
vn 0.000000 0.000000 -1.000000
vn 0.000000 0.000000 -1.000000
vn 0.000000 0.000000 -1.000000
vn 0.000000 0.000000 -1.000000
vn 0.000000 0.000000 -1.000000
vn 0.000000 0.000000 -1.000000
vn 0.000000 0.000000 -1.000000
vn 0.000000 0.000000 -1.000000
vn 0.000000 0.000000 -1.000000
vn 0.000000 0.000000 -1.000000
vn 0.000000 0.000000 -1.000000
vn 0.000000 0.000000 -1.000000
vn 0.000000 0.000000 -1.000000
vn 0.000000 0.000000 -1.000000
vn 0.000000 0.000000 -1.000000
vn 0.000000 0.000000 -1.000000
vn 0.000000 0.000000 -1.000000
vn 1.000000 0.000000 0.000000
vn 1.000000 0.000000 0.000000
vn 1.000000 0.000000 0.000000
vn 1.000000 0.000000 0.000000
vn 1.000000 0.000000 0.000000
vn 1.000000 0.000000 0.000000
vn 1.000000 0.000000 0.000000
vn 1.000000 0.000000 0.000000
vn 1.000000 0.000000 0.000000
vn 1.000000 0.000000 0.000000
vn 1.000000 0.000000 0.000000
vn 1.000000 0.000000 0.000000
vn 1.000000 0.000000 0.000000
vn 1.000000 0.000000 0.000000
vn 1.000000 0.000000 0.000000
vn 1.000000 0.000000 0.000000
vn 1.000000 0.000000 0.000000
vn 1.000000 0.000000 0.000000
vn 1.000000 0.000000 0.000000
vn 1.000000 0.000000 0.000000
vn 1.000000 0.000000 0.000000
vn 1.000000 0.000000 0.000000
vn 1.000000 0.000000 0.000000
vn 1.000000 0.000000 0.000000
vn 1.000000 0.000000 0.000000
vn 1.000000 0.000000 0.000000
vn 1.000000 0.000000 0.000000
vn 1.000000 0.000000 0.000000
vn 1.000000 0.000000 0.000000
vn 1.000000 0.000000 0.000000
vn 1.000000 0.000000 0.000000
vn 1.000000 0.000000 0.000000
vn 1.000000 0.000000 0.000000
vn 1.000000 0.000000 0.000000
vn 1.000000 0.000000 0.000000
vn 1.000000 0.000000 0.000000
vn -1.000000 0.000000 -0.000000
vn -1.000000 0.000000 -0.000000
vn -1.000000 0.000000 -0.000000
vn -1.000000 0.000000 -0.000000
vn -1.000000 0.000000 -0.000000
vn -1.000000 0.000000 -0.000000
vn -1.000000 0.000000 -0.000000
vn -1.000000 0.000000 -0.000000
vn -1.000000 0.000000 -0.000000
vn -1.000000 0.000000 -0.000000
vn -1.000000 0.000000 -0.000000
vn -1.000000 0.000000 -0.000000
vn -1.000000 0.000000 -0.000000
vn -1.000000 0.000000 -0.000000
vn -1.000000 0.000000 -0.000000
vn -1.000000 0.000000 -0.000000
vn -1.000000 0.000000 -0.000000
vn -1.000000 0.000000 -0.000000
vn 0.000000 -1.000000 0.000000
vn 0.000000 -1.000000 0.000000
vn 0.000000 -1.000000 0.000000
vn 0.000000 -1.000000 0.000000
vn 0.000000 -1.000000 0.000000
vn 0.000000 -1.000000 0.000000
vn 0.000000 -1.000000 0.000000
vn 0.000000 -1.000000 0.000000
vn 0.000000 -1.000000 0.000000
vn 0.000000 -1.000000 0.000000
vn 0.000000 -1.000000 0.000000
vn 0.000000 -1.000000 0.000000
vn 0.000000 -1.000000 0.000000
vn 0.000000 -1.000000 0.000000
vn 0.000000 -1.000000 0.000000
vn 0.000000 -1.000000 0.000000
vn 0.000000 -1.000000 0.000000
vn 0.000000 -1.000000 0.000000
vn 0.000000 -1.000000 0.000000
vn 0.000000 -1.000000 0.000000
vn 0.000000 -1.000000 0.000000
vn 0.000000 -1.000000 0.000000
vn 0.000000 -1.000000 0.000000
vn 0.000000 -1.000000 0.000000
vn 0.000000 -1.000000 0.000000
vn 0.000000 -1.000000 0.000000
vn 0.000000 -1.000000 0.000000
vn 0.000000 -1.000000 0.000000
vn 0.000000 -1.000000 0.000000
vn 0.000000 -1.000000 0.000000
vn 0.000000 1.000000 0.000000
vn 0.000000 1.000000 0.000000
vn 0.000000 1.000000 0.000000
vn 0.000000 1.000000 0.000000
vn 0.000000 1.000000 0.000000
vn 0.000000 1.000000 0.000000
vn 0.000000 1.000000 0.000000
vn 0.000000 1.000000 0.000000
vn 0.000000 1.000000 0.000000
vn 0.000000 1.000000 0.000000
vn 0.000000 1.000000 0.000000
vn 0.000000 1.000000 0.000000
vn 0.000000 1.000000 0.000000
vn 0.000000 1.000000 0.000000
vn 0.000000 1.000000 0.000000
vn 0.000000 1.000000 0.000000
vn 0.000000 1.000000 0.000000
vn 0.000000 1.000000 0.000000
vn 0.000000 1.000000 0.000000
vn 0.000000 1.000000 0.000000
vn 0.000000 1.000000 0.000000
vn 0.000000 1.000000 0.000000
vn 0.000000 1.000000 0.000000
vn 0.000000 1.000000 0.000000
s off
g banco1:Mesh
usemtl banco1:palette
f 4/1/1 2/3/2 1/4/3
f 5/5/4 4/1/5 3/6/6
f 6/7/7 2/8/8 4/1/9
f 6/9/10 4/1/11 5/10/12
f 9/11/13 8/12/14 7/13/15
f 10/14/16 8/15/17 9/16/18
f 11/17/19 12/18/20 13/19/21
f 13/20/22 12/21/23 14/22/24
f 15/23/25 16/24/26 18/25/27
f 17/26/28 18/27/29 19/28/30
f 18/29/31 16/30/32 20/31/33
f 19/32/34 18/33/35 20/34/36
f 23/35/37 22/36/38 21/37/39
f 24/38/40 22/39/41 23/40/42
f 25/41/43 23/42/44 21/43/45
f 25/2/46 24/44/47 23/45/48
f 26/46/49 24/47/50 25/2/51
f 27/48/52 25/49/53 21/50/54
f 27/51/55 26/52/56 25/53/57
f 28/54/58 26/55/59 27/56/60
f 31/57/61 30/58/62 29/59/63
f 32/60/64 30/61/65 31/62/66
f 35/63/67 34/64/68 33/65/69
f 36/66/70 34/67/71 35/68/72
f 37/69/73 38/70/74 39/71/75
f 39/72/76 38/73/77 40/74/78
f 40/75/79 38/76/80 42/77/81
f 41/78/82 42/79/83 43/80/84
f 42/81/85 38/82/86 44/83/87
f 43/84/88 42/85/89 44/86/90
f 49/87/91 46/88/92 45/89/93
f 50/90/94 46/91/95 49/92/96
f 51/93/97 48/94/98 47/95/99
f 52/96/100 48/97/101 51/98/102
f 55/99/103 54/100/104 53/101/105
f 56/102/106 54/103/107 55/104/108
f 57/105/109 54/106/110 56/107/111
f 58/108/112 54/109/113 57/110/114
f 59/111/115 57/112/116 56/113/117
f 60/114/118 57/115/119 59/116/120
f 61/117/121 62/118/122 65/119/123
f 62/120/124 63/121/125 65/122/126
f 63/123/127 64/124/128 66/125/129
f 65/126/130 63/127/131 66/128/132
f 61/129/133 65/130/134 67/131/135
f 65/132/136 66/133/137 67/134/138
f 66/135/139 64/136/140 68/137/141
f 67/138/142 66/139/143 68/140/144
