# This file uses centimeters as units for non-parametric coordinates.

mtllib waterLily.mtl
g default
v -0.250000 -0.001096 0.050000
v -0.250000 -0.001096 -0.050000
v -0.250000 0.098904 0.050000
v -0.250000 0.098904 -0.050000
v -0.150000 -0.001096 0.250000
v -0.150000 -0.001096 0.050000
v -0.150000 -0.001096 -0.050000
v -0.150000 -0.001096 -0.250000
v -0.150000 0.098904 0.250000
v -0.150000 0.098904 0.050000
v -0.150000 0.098904 -0.050000
v -0.150000 0.098904 -0.250000
v -0.050000 -0.001096 0.250000
v -0.050000 -0.001096 0.150000
v -0.050000 -0.001096 -0.150000
v -0.050000 -0.001096 -0.250000
v -0.050000 0.098904 0.250000
v -0.050000 0.098904 0.150000
v -0.050000 0.098904 -0.150000
v -0.050000 0.098904 -0.250000
v 0.150000 -0.001096 0.150000
v 0.150000 -0.001096 0.050000
v 0.150000 -0.001096 -0.050000
v 0.150000 -0.001096 -0.150000
v 0.150000 0.098904 0.150000
v 0.150000 0.098904 0.050000
v 0.150000 0.098904 -0.050000
v 0.150000 0.098904 -0.150000
v 0.250000 -0.001096 0.050000
v 0.250000 -0.001096 -0.050000
v 0.250000 0.098904 0.050000
v 0.250000 0.098904 -0.050000
v -0.150000 -0.001096 0.250000
v -0.150000 0.098904 0.250000
v -0.050000 -0.001096 0.250000
v -0.050000 0.098904 0.250000
v -0.050000 -0.001096 0.150000
v -0.050000 0.098904 0.150000
v 0.150000 -0.001096 0.150000
v 0.150000 0.098904 0.150000
v -0.250000 -0.001096 0.050000
v -0.250000 0.098904 0.050000
v -0.150000 -0.001096 0.050000
v -0.150000 0.098904 0.050000
v 0.150000 -0.001096 0.050000
v 0.150000 0.098904 0.050000
v 0.250000 -0.001096 0.050000
v 0.250000 0.098904 0.050000
v -0.250000 -0.001096 -0.050000
v -0.250000 0.098904 -0.050000
v -0.150000 -0.001096 -0.050000
v -0.150000 0.098904 -0.050000
v 0.150000 -0.001096 -0.050000
v 0.150000 0.098904 -0.050000
v 0.250000 -0.001096 -0.050000
v 0.250000 0.098904 -0.050000
v -0.050000 -0.001096 -0.150000
v -0.050000 0.098904 -0.150000
v 0.150000 -0.001096 -0.150000
v 0.150000 0.098904 -0.150000
v -0.150000 -0.001096 -0.250000
v -0.150000 0.098904 -0.250000
v -0.050000 -0.001096 -0.250000
v -0.050000 0.098904 -0.250000
v -0.150000 -0.001096 0.250000
v -0.050000 -0.001096 0.250000
v -0.050000 -0.001096 0.150000
v 0.150000 -0.001096 0.150000
v -0.250000 -0.001096 0.050000
v -0.150000 -0.001096 0.050000
v 0.150000 -0.001096 0.050000
v 0.250000 -0.001096 0.050000
v -0.250000 -0.001096 -0.050000
v -0.150000 -0.001096 -0.050000
v 0.150000 -0.001096 -0.050000
v 0.250000 -0.001096 -0.050000
v -0.050000 -0.001096 -0.150000
v 0.150000 -0.001096 -0.150000
v -0.150000 -0.001096 -0.250000
v -0.050000 -0.001096 -0.250000
v -0.150000 0.098904 0.250000
v -0.050000 0.098904 0.250000
v -0.050000 0.098904 0.150000
v 0.150000 0.098904 0.150000
v -0.250000 0.098904 0.050000
v -0.150000 0.098904 0.050000
v 0.150000 0.098904 0.050000
v 0.250000 0.098904 0.050000
v -0.250000 0.098904 -0.050000
v -0.150000 0.098904 -0.050000
v 0.150000 0.098904 -0.050000
v 0.250000 0.098904 -0.050000
v -0.050000 0.098904 -0.150000
v 0.150000 0.098904 -0.150000
v -0.150000 0.098904 -0.250000
v -0.050000 0.098904 -0.250000
vt 0.634766 0.500000
vt 0.595703 0.500000
vt 0.634766 0.500000
vt 0.634766 0.500000
vt 0.634766 0.500000
vt 0.634766 0.500000
vt 0.595703 0.500000
vt 0.595703 0.500000
vt 0.595703 0.500000
vt 0.595703 0.500000
vt 0.595703 0.500000
vt 0.595703 0.500000
vt 0.595703 0.500000
vt 0.595703 0.500000
vt 0.595703 0.500000
vt 0.595703 0.500000
vt 0.595703 0.500000
vt 0.595703 0.500000
vt 0.595703 0.500000
vt 0.595703 0.500000
vt 0.595703 0.500000
vt 0.595703 0.500000
vt 0.595703 0.500000
vt 0.595703 0.500000
vt 0.595703 0.500000
vt 0.595703 0.500000
vt 0.595703 0.500000
vt 0.595703 0.500000
vt 0.595703 0.500000
vt 0.595703 0.500000
vt 0.595703 0.500000
vt 0.595703 0.500000
vt 0.595703 0.500000
vt 0.595703 0.500000
vt 0.595703 0.500000
vt 0.595703 0.500000
vt 0.595703 0.500000
vt 0.595703 0.500000
vt 0.595703 0.500000
vt 0.595703 0.500000
vt 0.634766 0.500000
vt 0.634766 0.500000
vt 0.634766 0.500000
vt 0.634766 0.500000
vt 0.634766 0.500000
vt 0.634766 0.500000
vt 0.595703 0.500000
vt 0.595703 0.500000
vt 0.595703 0.500000
vt 0.595703 0.500000
vt 0.595703 0.500000
vt 0.595703 0.500000
vt 0.595703 0.500000
vt 0.595703 0.500000
vt 0.595703 0.500000
vt 0.595703 0.500000
vt 0.595703 0.500000
vt 0.595703 0.500000
vt 0.634766 0.500000
vt 0.634766 0.500000
vt 0.634766 0.500000
vt 0.634766 0.500000
vt 0.634766 0.500000
vt 0.634766 0.500000
vt 0.634766 0.500000
vt 0.634766 0.500000
vt 0.634766 0.500000
vt 0.634766 0.500000
vt 0.634766 0.500000
vt 0.634766 0.500000
vt 0.634766 0.500000
vt 0.634766 0.500000
vt 0.634766 0.500000
vt 0.634766 0.500000
vt 0.634766 0.500000
vt 0.634766 0.500000
vt 0.634766 0.500000
vt 0.634766 0.500000
vt 0.634766 0.500000
vt 0.634766 0.500000
vt 0.634766 0.500000
vt 0.634766 0.500000
vt 0.595703 0.500000
vt 0.595703 0.500000
vt 0.595703 0.500000
vt 0.595703 0.500000
vt 0.595703 0.500000
vt 0.595703 0.500000
vt 0.595703 0.500000
vt 0.595703 0.500000
vt 0.595703 0.500000
vt 0.595703 0.500000
vt 0.595703 0.500000
vt 0.595703 0.500000
vt 0.595703 0.500000
vt 0.595703 0.500000
vt 0.595703 0.500000
vt 0.595703 0.500000
vt 0.595703 0.500000
vt 0.595703 0.500000
vt 0.595703 0.500000
vt 0.595703 0.500000
vt 0.595703 0.500000
vt 0.595703 0.500000
vt 0.595703 0.500000
vt 0.595703 0.500000
vt 0.634766 0.500000
vt 0.634766 0.500000
vt 0.634766 0.500000
vt 0.634766 0.500000
vt 0.634766 0.500000
vt 0.634766 0.500000
vt 0.634766 0.500000
vt 0.634766 0.500000
vt 0.634766 0.500000
vt 0.634766 0.500000
vt 0.634766 0.500000
vt 0.634766 0.500000
vt 0.634766 0.500000
vt 0.634766 0.500000
vt 0.634766 0.500000
vt 0.634766 0.500000
vt 0.634766 0.500000
vt 0.634766 0.500000
vt 0.595703 0.500000
vt 0.595703 0.500000
vt 0.595703 0.500000
vt 0.595703 0.500000
vt 0.595703 0.500000
vt 0.595703 0.500000
vt 0.595703 0.500000
vt 0.595703 0.500000
vt 0.595703 0.500000
vt 0.595703 0.500000
vt 0.595703 0.500000
vt 0.595703 0.500000
vt 0.595703 0.500000
vt 0.595703 0.500000
vt 0.595703 0.500000
vt 0.595703 0.500000
vt 0.595703 0.500000
vt 0.595703 0.500000
vt 0.595703 0.500000
vt 0.595703 0.500000
vt 0.595703 0.500000
vt 0.595703 0.500000
vt 0.595703 0.500000
vt 0.595703 0.500000
vt 0.634766 0.500000
vt 0.634766 0.500000
vt 0.634766 0.500000
vt 0.634766 0.500000
vt 0.634766 0.500000
vt 0.634766 0.500000
vt 0.634766 0.500000
vt 0.634766 0.500000
vt 0.634766 0.500000
vt 0.634766 0.500000
vt 0.634766 0.500000
vt 0.634766 0.500000
vt 0.634766 0.500000
vt 0.634766 0.500000
vt 0.634766 0.500000
vt 0.634766 0.500000
vt 0.634766 0.500000
vt 0.634766 0.500000
vt 0.595703 0.500000
vt 0.595703 0.500000
vt 0.595703 0.500000
vt 0.595703 0.500000
vt 0.595703 0.500000
vt 0.595703 0.500000
vt 0.595703 0.500000
vt 0.595703 0.500000
vt 0.595703 0.500000
vt 0.595703 0.500000
vt 0.595703 0.500000
vt 0.595703 0.500000
vn -1.000000 0.000000 0.000000
vn -1.000000 0.000000 0.000000
vn -1.000000 0.000000 0.000000
vn -1.000000 0.000000 0.000000
vn -1.000000 0.000000 0.000000
vn -1.000000 0.000000 0.000000
vn -1.000000 0.000000 0.000000
vn -1.000000 0.000000 0.000000
vn -1.000000 0.000000 0.000000
vn -1.000000 0.000000 0.000000
vn -1.000000 0.000000 0.000000
vn -1.000000 0.000000 0.000000
vn -1.000000 0.000000 0.000000
vn -1.000000 0.000000 0.000000
vn -1.000000 0.000000 0.000000
vn -1.000000 0.000000 0.000000
vn -1.000000 0.000000 0.000000
vn -1.000000 0.000000 0.000000
vn 1.000000 0.000000 0.000000
vn 1.000000 0.000000 0.000000
vn 1.000000 0.000000 0.000000
vn 1.000000 0.000000 0.000000
vn 1.000000 0.000000 0.000000
vn 1.000000 0.000000 0.000000
vn 1.000000 0.000000 0.000000
vn 1.000000 0.000000 0.000000
vn 1.000000 0.000000 0.000000
vn 1.000000 0.000000 0.000000
vn 1.000000 0.000000 0.000000
vn 1.000000 0.000000 0.000000
vn 1.000000 0.000000 0.000000
vn 1.000000 0.000000 0.000000
vn 1.000000 0.000000 0.000000
vn 1.000000 0.000000 0.000000
vn 1.000000 0.000000 0.000000
vn 1.000000 0.000000 0.000000
vn 1.000000 0.000000 0.000000
vn 1.000000 0.000000 0.000000
vn 1.000000 0.000000 0.000000
vn 1.000000 0.000000 0.000000
vn 1.000000 0.000000 0.000000
vn 1.000000 0.000000 0.000000
vn 1.000000 0.000000 0.000000
vn 1.000000 0.000000 0.000000
vn 1.000000 0.000000 0.000000
vn 1.000000 0.000000 0.000000
vn 1.000000 0.000000 0.000000
vn 1.000000 0.000000 0.000000
vn 0.000000 0.000000 1.000000
vn 0.000000 0.000000 1.000000
vn 0.000000 0.000000 1.000000
vn 0.000000 0.000000 1.000000
vn 0.000000 0.000000 1.000000
vn 0.000000 0.000000 1.000000
vn 0.000000 0.000000 1.000000
vn 0.000000 0.000000 1.000000
vn 0.000000 0.000000 1.000000
vn 0.000000 0.000000 1.000000
vn 0.000000 0.000000 1.000000
vn 0.000000 0.000000 1.000000
vn 0.000000 0.000000 1.000000
vn 0.000000 0.000000 1.000000
vn 0.000000 0.000000 1.000000
vn 0.000000 0.000000 1.000000
vn 0.000000 0.000000 1.000000
vn 0.000000 0.000000 1.000000
vn 0.000000 0.000000 1.000000
vn 0.000000 0.000000 1.000000
vn 0.000000 0.000000 1.000000
vn 0.000000 0.000000 1.000000
vn 0.000000 0.000000 1.000000
vn 0.000000 0.000000 1.000000
vn 0.000000 0.000000 -1.000000
vn 0.000000 0.000000 -1.000000
vn 0.000000 0.000000 -1.000000
vn 0.000000 0.000000 -1.000000
vn 0.000000 0.000000 -1.000000
vn 0.000000 0.000000 -1.000000
vn 0.000000 0.000000 -1.000000
vn 0.000000 0.000000 -1.000000
vn 0.000000 0.000000 -1.000000
vn 0.000000 0.000000 -1.000000
vn 0.000000 0.000000 -1.000000
vn 0.000000 0.000000 -1.000000
vn 0.000000 0.000000 -1.000000
vn 0.000000 0.000000 -1.000000
vn 0.000000 0.000000 -1.000000
vn 0.000000 0.000000 -1.000000
vn 0.000000 0.000000 -1.000000
vn 0.000000 0.000000 -1.000000
vn 0.000000 0.000000 -1.000000
vn 0.000000 0.000000 -1.000000
vn 0.000000 0.000000 -1.000000
vn 0.000000 0.000000 -1.000000
vn 0.000000 0.000000 -1.000000
vn 0.000000 0.000000 -1.000000
vn 0.000000 -1.000000 0.000000
vn 0.000000 -1.000000 0.000000
vn 0.000000 -1.000000 0.000000
vn 0.000000 -1.000000 0.000000
vn 0.000000 -1.000000 0.000000
vn 0.000000 -1.000000 0.000000
vn 0.000000 -1.000000 0.000000
vn 0.000000 -1.000000 0.000000
vn 0.000000 -1.000000 0.000000
vn 0.000000 -1.000000 0.000000
vn 0.000000 -1.000000 0.000000
vn 0.000000 -1.000000 0.000000
vn 0.000000 -1.000000 0.000000
vn 0.000000 -1.000000 0.000000
vn 0.000000 -1.000000 0.000000
vn 0.000000 -1.000000 0.000000
vn 0.000000 -1.000000 0.000000
vn 0.000000 -1.000000 0.000000
vn 0.000000 -1.000000 0.000000
vn 0.000000 -1.000000 0.000000
vn 0.000000 -1.000000 0.000000
vn 0.000000 -1.000000 0.000000
vn 0.000000 -1.000000 0.000000
vn 0.000000 -1.000000 0.000000
vn 0.000000 -1.000000 0.000000
vn 0.000000 -1.000000 0.000000
vn 0.000000 -1.000000 0.000000
vn 0.000000 -1.000000 0.000000
vn 0.000000 -1.000000 0.000000
vn 0.000000 -1.000000 0.000000
vn 0.000000 -1.000000 0.000000
vn 0.000000 -1.000000 0.000000
vn 0.000000 -1.000000 0.000000
vn 0.000000 -1.000000 0.000000
vn 0.000000 -1.000000 0.000000
vn 0.000000 -1.000000 0.000000
vn 0.000000 -1.000000 0.000000
vn 0.000000 -1.000000 0.000000
vn 0.000000 -1.000000 0.000000
vn 0.000000 -1.000000 0.000000
vn 0.000000 -1.000000 0.000000
vn 0.000000 -1.000000 0.000000
vn 0.000000 1.000000 0.000000
vn 0.000000 1.000000 0.000000
vn 0.000000 1.000000 0.000000
vn 0.000000 1.000000 0.000000
vn 0.000000 1.000000 0.000000
vn 0.000000 1.000000 0.000000
vn 0.000000 1.000000 0.000000
vn 0.000000 1.000000 0.000000
vn 0.000000 1.000000 0.000000
vn 0.000000 1.000000 0.000000
vn 0.000000 1.000000 0.000000
vn 0.000000 1.000000 0.000000
vn 0.000000 1.000000 0.000000
vn 0.000000 1.000000 0.000000
vn 0.000000 1.000000 0.000000
vn 0.000000 1.000000 0.000000
vn 0.000000 1.000000 0.000000
vn 0.000000 1.000000 0.000000
vn 0.000000 1.000000 0.000000
vn 0.000000 1.000000 0.000000
vn 0.000000 1.000000 0.000000
vn 0.000000 1.000000 0.000000
vn 0.000000 1.000000 0.000000
vn 0.000000 1.000000 0.000000
vn 0.000000 1.000000 0.000000
vn 0.000000 1.000000 0.000000
vn 0.000000 1.000000 0.000000
vn 0.000000 1.000000 0.000000
vn 0.000000 1.000000 0.000000
vn 0.000000 1.000000 0.000000
vn 0.000000 1.000000 0.000000
vn 0.000000 1.000000 0.000000
vn 0.000000 1.000000 0.000000
vn 0.000000 1.000000 0.000000
vn 0.000000 1.000000 0.000000
vn 0.000000 1.000000 0.000000
vn 0.000000 1.000000 0.000000
vn 0.000000 1.000000 0.000000
vn 0.000000 1.000000 0.000000
vn 0.000000 1.000000 0.000000
vn 0.000000 1.000000 0.000000
vn 0.000000 1.000000 0.000000
s off
g waterLily:Mesh
usemtl waterLily:palette
f 3/1/1 2/3/2 1/4/3
f 4/5/4 2/6/5 3/1/6
f 9/2/7 6/7/8 5/8/9
f 10/9/10 6/10/11 9/2/12
f 11/11/13 8/12/14 7/13/15
f 12/14/16 8/15/17 11/16/18
f 13/17/19 14/18/20 17/19/21
f 17/20/22 14/21/23 18/22/24
f 15/23/25 16/24/26 19/25/27
f 19/26/28 16/27/29 20/28/30
f 21/29/31 22/30/32 25/31/33
f 25/32/34 22/33/35 26/34/36
f 23/35/37 24/36/38 27/37/39
f 27/38/40 24/39/41 28/40/42
f 29/41/43 30/42/44 31/43/45
f 31/44/46 30/45/47 32/46/48
f 35/47/49 34/48/50 33/49/51
f 36/50/52 34/51/53 35/52/54
f 39/53/55 38/54/56 37/55/57
f 40/56/58 38/57/59 39/58/60
f 43/59/61 42/60/62 41/61/63
f 44/62/64 42/63/65 43/64/66
f 47/65/67 46/66/68 45/67/69
f 48/68/70 46/69/71 47/70/72
f 49/71/73 50/72/74 51/73/75
f 51/74/76 50/75/77 52/76/78
f 53/77/79 54/78/80 55/79/81
f 55/80/82 54/81/83 56/82/84
f 57/83/85 58/84/86 59/85/87
f 59/86/88 58/87/89 60/88/90
f 61/89/91 62/90/92 63/91/93
f 63/92/94 62/93/95 64/94/96
f 67/95/97 66/96/98 65/97/99
f 70/98/100 67/99/101 65/100/102
f 70/101/103 68/102/104 67/103/105
f 71/104/106 68/105/107 70/106/108
f 73/107/109 70/108/110 69/109/111
f 73/110/112 72/111/113 71/112/114
f 73/113/115 71/114/116 70/115/117
f 74/116/118 72/117/119 73/118/120
f 75/119/121 72/120/122 74/121/123
f 76/122/124 72/123/125 75/124/126
f 77/125/127 75/126/128 74/127/129
f 78/128/130 75/129/131 77/130/132
f 79/131/133 77/132/134 74/133/135
f 80/134/136 77/135/137 79/136/138
f 81/137/139 82/138/140 83/139/141
f 81/140/142 83/141/143 86/142/144
f 83/143/145 84/144/146 86/145/147
f 86/146/148 84/147/149 87/148/150
f 85/149/151 86/150/152 89/151/153
f 87/152/154 88/153/155 89/154/156
f 86/155/157 87/156/158 89/157/159
f 89/158/160 88/159/161 90/160/162
f 90/161/163 88/162/164 91/163/165
f 91/164/166 88/165/167 92/166/168
f 90/167/169 91/168/170 93/169/171
f 93/170/172 91/171/173 94/172/174
f 90/173/175 93/174/176 95/175/177
f 95/176/178 93/177/179 96/178/180
