# Export of Cubik Model: Coco
# Designed by Ihton with Cubik Studio - https://cubik.studio
# from Cubik OBJ Exporter v1.0
mtllib Coco.mtl
v -11.04 3.36 -4.16 0.6745098 0.8156863 0.6941177
v -10.4 3.36 -4.16 0.6745098 0.8156863 0.6941177
v -10.4 3.36 -3.84 0.6745098 0.8156863 0.6941177
v -11.04 3.36 -3.84 0.6745098 0.8156863 0.6941177
v -10.4 3.68 -4.16 0.6745098 0.8156863 0.6941177
v -11.04 3.68 -4.16 0.6745098 0.8156863 0.6941177
v -11.04 3.68 -3.84 0.6745098 0.8156863 0.6941177
v -10.4 3.68 -3.84 0.6745098 0.8156863 0.6941177
v -10.4 3.68 -3.84 0.6745098 0.8156863 0.6941177
v -11.04 3.68 -3.84 0.6745098 0.8156863 0.6941177
v -11.04 3.36 -3.84 0.6745098 0.8156863 0.6941177
v -10.4 3.36 -3.84 0.6745098 0.8156863 0.6941177
v -11.04 3.68 -4.16 0.6745098 0.8156863 0.6941177
v -10.4 3.68 -4.16 0.6745098 0.8156863 0.6941177
v -10.4 3.36 -4.16 0.6745098 0.8156863 0.6941177
v -11.04 3.36 -4.16 0.6745098 0.8156863 0.6941177
v -10.4 3.68 -4.16 0.6745098 0.8156863 0.6941177
v -10.4 3.68 -3.84 0.6745098 0.8156863 0.6941177
v -10.4 3.36 -3.84 0.6745098 0.8156863 0.6941177
v -10.4 3.36 -4.16 0.6745098 0.8156863 0.6941177
v -11.04 3.68 -3.84 0.6745098 0.8156863 0.6941177
v -11.04 3.68 -4.16 0.6745098 0.8156863 0.6941177
v -11.04 3.36 -4.16 0.6745098 0.8156863 0.6941177
v -11.04 3.36 -3.84 0.6745098 0.8156863 0.6941177
vn 0 -1 0
vn 0 1 0
vn 0 0 1
vn 0 0 -1
vn 1 0 0
vn -1 0 0
vt 0.0625 0.296875
vt 0 0.296875
vt 0 0.265625
vt 0.0625 0.265625
vt 0.125 0.296875
vt 0.125 0.265625
vt 0.1875 0.296875
vt 0.1875 0.265625
vt 0.25 0.296875
vt 0.25 0.265625
vt 0.03125 0.328125
vt 0 0.328125
vt 0.03125 0.296875
vt 0 0.359375
vt 0.03125 0.359375
v -10.72 4 -4.16 0.6117647 0.972549 0.7372549
v -10.4 4 -4.16 0.6117647 0.972549 0.7372549
v -10.4 4 -4 0.6117647 0.972549 0.7372549
v -10.72 4 -4 0.6117647 0.972549 0.7372549
v -10.4 4.16 -4.16 0.6117647 0.972549 0.7372549
v -10.72 4.16 -4.16 0.6117647 0.972549 0.7372549
v -10.72 4.16 -4 0.6117647 0.972549 0.7372549
v -10.4 4.16 -4 0.6117647 0.972549 0.7372549
v -10.4 4.16 -4 0.6117647 0.972549 0.7372549
v -10.72 4.16 -4 0.6117647 0.972549 0.7372549
v -10.72 4 -4 0.6117647 0.972549 0.7372549
v -10.4 4 -4 0.6117647 0.972549 0.7372549
v -10.72 4.16 -4.16 0.6117647 0.972549 0.7372549
v -10.4 4.16 -4.16 0.6117647 0.972549 0.7372549
v -10.4 4 -4.16 0.6117647 0.972549 0.7372549
v -10.72 4 -4.16 0.6117647 0.972549 0.7372549
v -10.4 4.16 -4.16 0.6117647 0.972549 0.7372549
v -10.4 4.16 -4 0.6117647 0.972549 0.7372549
v -10.4 4 -4 0.6117647 0.972549 0.7372549
v -10.4 4 -4.16 0.6117647 0.972549 0.7372549
v -10.72 4.16 -4 0.6117647 0.972549 0.7372549
v -10.72 4.16 -4.16 0.6117647 0.972549 0.7372549
v -10.72 4 -4.16 0.6117647 0.972549 0.7372549
v -10.72 4 -4 0.6117647 0.972549 0.7372549
vt 0.15625 0.3125
vt 0.125 0.3125
vt 0.15625 0.296875
vt 0.125 0.328125
vt 0.15625 0.328125
vt 0.1875 0.3125
vt 0.1875 0.328125
vt 0.25 0.3125
vt 0.234375 0.3125
vt 0.234375 0.296875
vt 0.234375 0.328125
vt 0.25 0.328125
v -10.56 4 -4.32 0.9686275 0.9215686 0.8784314
v -10.4 4 -4.32 0.9686275 0.9215686 0.8784314
v -10.4 4 -4.16 0.9686275 0.9215686 0.8784314
v -10.56 4 -4.16 0.9686275 0.9215686 0.8784314
v -10.4 4.16 -4.32 0.9686275 0.9215686 0.8784314
v -10.56 4.16 -4.32 0.9686275 0.9215686 0.8784314
v -10.56 4.16 -4.16 0.9686275 0.9215686 0.8784314
v -10.4 4.16 -4.16 0.9686275 0.9215686 0.8784314
v -10.4 4.16 -4.16 0.9686275 0.9215686 0.8784314
v -10.56 4.16 -4.16 0.9686275 0.9215686 0.8784314
v -10.56 4 -4.16 0.9686275 0.9215686 0.8784314
v -10.4 4 -4.16 0.9686275 0.9215686 0.8784314
v -10.56 4.16 -4.32 0.9686275 0.9215686 0.8784314
v -10.4 4.16 -4.32 0.9686275 0.9215686 0.8784314
v -10.4 4 -4.32 0.9686275 0.9215686 0.8784314
v -10.56 4 -4.32 0.9686275 0.9215686 0.8784314
v -10.4 4.16 -4.32 0.9686275 0.9215686 0.8784314
v -10.4 4.16 -4.16 0.9686275 0.9215686 0.8784314
v -10.4 4 -4.16 0.9686275 0.9215686 0.8784314
v -10.4 4 -4.32 0.9686275 0.9215686 0.8784314
v -10.56 4.16 -4.16 0.9686275 0.9215686 0.8784314
v -10.56 4.16 -4.32 0.9686275 0.9215686 0.8784314
v -10.56 4 -4.32 0.9686275 0.9215686 0.8784314
v -10.56 4 -4.16 0.9686275 0.9215686 0.8784314
vt 0.078125 0.5
vt 0.0625 0.5
vt 0.0625 0.484375
vt 0.078125 0.484375
vt 0.0625 0.515625
vt 0.078125 0.515625
vt 0.203125 0.34375
vt 0.21875 0.34375
vt 0.21875 0.328125
vt 0.203125 0.328125
vt 0.203125 0.359375
vt 0.1875 0.359375
vt 0.1875 0.34375
vt 0.125 0.359375
vt 0.109375 0.359375
vt 0.109375 0.34375
vt 0.125 0.34375
vt 0.09375 0.359375
vt 0.09375 0.34375
v -10.88 3.2 -4.16 0.9803922 0.6196079 0.8431373
v -10.56 3.2 -4.16 0.9803922 0.6196079 0.8431373
v -10.56 3.2 -3.84 0.9803922 0.6196079 0.8431373
v -10.88 3.2 -3.84 0.9803922 0.6196079 0.8431373
v -10.56 3.36 -4.16 0.9803922 0.6196079 0.8431373
v -10.88 3.36 -4.16 0.9803922 0.6196079 0.8431373
v -10.88 3.36 -3.84 0.9803922 0.6196079 0.8431373
v -10.56 3.36 -3.84 0.9803922 0.6196079 0.8431373
v -10.56 3.36 -3.84 0.9803922 0.6196079 0.8431373
v -10.88 3.36 -3.84 0.9803922 0.6196079 0.8431373
v -10.88 3.2 -3.84 0.9803922 0.6196079 0.8431373
v -10.56 3.2 -3.84 0.9803922 0.6196079 0.8431373
v -10.88 3.36 -4.16 0.9803922 0.6196079 0.8431373
v -10.56 3.36 -4.16 0.9803922 0.6196079 0.8431373
v -10.56 3.2 -4.16 0.9803922 0.6196079 0.8431373
v -10.88 3.2 -4.16 0.9803922 0.6196079 0.8431373
v -10.56 3.36 -4.16 0.9803922 0.6196079 0.8431373
v -10.56 3.36 -3.84 0.9803922 0.6196079 0.8431373
v -10.56 3.2 -3.84 0.9803922 0.6196079 0.8431373
v -10.56 3.2 -4.16 0.9803922 0.6196079 0.8431373
v -10.88 3.36 -3.84 0.9803922 0.6196079 0.8431373
v -10.88 3.36 -4.16 0.9803922 0.6196079 0.8431373
v -10.88 3.2 -4.16 0.9803922 0.6196079 0.8431373
v -10.88 3.2 -3.84 0.9803922 0.6196079 0.8431373
vt 0.03125 0.515625
vt 0 0.515625
vt 0 0.484375
vt 0.03125 0.484375
vt 0.0625 0.328125
vt 0.03125 0.375
vt 0.0625 0.375
vt 0.0625 0.359375
vt 0.0625 0.390625
vt 0.03125 0.390625
vt 0.0625 0.40625
vt 0.03125 0.40625
vt 0.0625 0.46875
vt 0.03125 0.46875
v -10.88 3.36 -3.84 0.6666667 0.6 0.8313726
v -10.56 3.36 -3.84 0.6666667 0.6 0.8313726
v -10.56 3.36 -3.68 0.6666667 0.6 0.8313726
v -10.88 3.36 -3.68 0.6666667 0.6 0.8313726
v -10.56 3.68 -3.84 0.6666667 0.6 0.8313726
v -10.88 3.68 -3.84 0.6666667 0.6 0.8313726
v -10.88 3.68 -3.68 0.6666667 0.6 0.8313726
v -10.56 3.68 -3.68 0.6666667 0.6 0.8313726
v -10.56 3.68 -3.68 0.6666667 0.6 0.8313726
v -10.88 3.68 -3.68 0.6666667 0.6 0.8313726
v -10.88 3.36 -3.68 0.6666667 0.6 0.8313726
v -10.56 3.36 -3.68 0.6666667 0.6 0.8313726
v -10.88 3.68 -3.84 0.6666667 0.6 0.8313726
v -10.56 3.68 -3.84 0.6666667 0.6 0.8313726
v -10.56 3.36 -3.84 0.6666667 0.6 0.8313726
v -10.88 3.36 -3.84 0.6666667 0.6 0.8313726
v -10.56 3.68 -3.84 0.6666667 0.6 0.8313726
v -10.56 3.68 -3.68 0.6666667 0.6 0.8313726
v -10.56 3.36 -3.68 0.6666667 0.6 0.8313726
v -10.56 3.36 -3.84 0.6666667 0.6 0.8313726
v -10.88 3.68 -3.68 0.6666667 0.6 0.8313726
v -10.88 3.68 -3.84 0.6666667 0.6 0.8313726
v -10.88 3.36 -3.84 0.6666667 0.6 0.8313726
v -10.88 3.36 -3.68 0.6666667 0.6 0.8313726
vt 0.0625 0.421875
vt 0.03125 0.421875
vt 0.03125 0.4375
vt 0.0625 0.4375
vt 0.09375 0.328125
vt 0.09375 0.296875
vt 0 0.390625
vt 0.046875 0.46875
vt 0.046875 0.4375
v -10.88 3.36 -4.32 0.7686275 0.8 0.8470588
v -10.56 3.36 -4.32 0.7686275 0.8 0.8470588
v -10.56 3.36 -4.16 0.7686275 0.8 0.8470588
v -10.88 3.36 -4.16 0.7686275 0.8 0.8470588
v -10.56 3.68 -4.32 0.7686275 0.8 0.8470588
v -10.88 3.68 -4.32 0.7686275 0.8 0.8470588
v -10.88 3.68 -4.16 0.7686275 0.8 0.8470588
v -10.56 3.68 -4.16 0.7686275 0.8 0.8470588
v -10.56 3.68 -4.16 0.7686275 0.8 0.8470588
v -10.88 3.68 -4.16 0.7686275 0.8 0.8470588
v -10.88 3.36 -4.16 0.7686275 0.8 0.8470588
v -10.56 3.36 -4.16 0.7686275 0.8 0.8470588
v -10.88 3.68 -4.32 0.7686275 0.8 0.8470588
v -10.56 3.68 -4.32 0.7686275 0.8 0.8470588
v -10.56 3.36 -4.32 0.7686275 0.8 0.8470588
v -10.88 3.36 -4.32 0.7686275 0.8 0.8470588
v -10.56 3.68 -4.32 0.7686275 0.8 0.8470588
v -10.56 3.68 -4.16 0.7686275 0.8 0.8470588
v -10.56 3.36 -4.16 0.7686275 0.8 0.8470588
v -10.56 3.36 -4.32 0.7686275 0.8 0.8470588
v -10.88 3.68 -4.16 0.7686275 0.8 0.8470588
v -10.88 3.68 -4.32 0.7686275 0.8 0.8470588
v -10.88 3.36 -4.32 0.7686275 0.8 0.8470588
v -10.88 3.36 -4.16 0.7686275 0.8 0.8470588
vt 0.03125 0.5
vt 0.03125 0.453125
vt 0 0.453125
vt 0 0.421875
vt 0.078125 0.359375
vt 0.078125 0.328125
vt 0.078125 0.390625
v -10.88 3.68 -4.16 0.7843137 0.9176471 0.8313726
v -10.56 3.68 -4.16 0.7843137 0.9176471 0.8313726
v -10.56 3.68 -3.84 0.7843137 0.9176471 0.8313726
v -10.88 3.68 -3.84 0.7843137 0.9176471 0.8313726
v -10.56 3.84 -4.16 0.7843137 0.9176471 0.8313726
v -10.88 3.84 -4.16 0.7843137 0.9176471 0.8313726
v -10.88 3.84 -3.84 0.7843137 0.9176471 0.8313726
v -10.56 3.84 -3.84 0.7843137 0.9176471 0.8313726
v -10.56 3.84 -3.84 0.7843137 0.9176471 0.8313726
v -10.88 3.84 -3.84 0.7843137 0.9176471 0.8313726
v -10.88 3.68 -3.84 0.7843137 0.9176471 0.8313726
v -10.56 3.68 -3.84 0.7843137 0.9176471 0.8313726
v -10.88 3.84 -4.16 0.7843137 0.9176471 0.8313726
v -10.56 3.84 -4.16 0.7843137 0.9176471 0.8313726
v -10.56 3.68 -4.16 0.7843137 0.9176471 0.8313726
v -10.88 3.68 -4.16 0.7843137 0.9176471 0.8313726
v -10.56 3.84 -4.16 0.7843137 0.9176471 0.8313726
v -10.56 3.84 -3.84 0.7843137 0.9176471 0.8313726
v -10.56 3.68 -3.84 0.7843137 0.9176471 0.8313726
v -10.56 3.68 -4.16 0.7843137 0.9176471 0.8313726
v -10.88 3.84 -3.84 0.7843137 0.9176471 0.8313726
v -10.88 3.84 -4.16 0.7843137 0.9176471 0.8313726
v -10.88 3.68 -4.16 0.7843137 0.9176471 0.8313726
v -10.88 3.68 -3.84 0.7843137 0.9176471 0.8313726
vt 0.078125 0.34375
vt 0.109375 0.328125
vt 0.140625 0.34375
vt 0.140625 0.328125
vt 0.171875 0.34375
vt 0.171875 0.328125
v -10.72 3.84 -4.16 0.6509804 0.8509804 0.9764706
v -10.56 3.84 -4.16 0.6509804 0.8509804 0.9764706
v -10.56 3.84 -4 0.6509804 0.8509804 0.9764706
v -10.72 3.84 -4 0.6509804 0.8509804 0.9764706
v -10.56 4 -4.16 0.6509804 0.8509804 0.9764706
v -10.72 4 -4.16 0.6509804 0.8509804 0.9764706
v -10.72 4 -4 0.6509804 0.8509804 0.9764706
v -10.56 4 -4 0.6509804 0.8509804 0.9764706
v -10.56 4 -4 0.6509804 0.8509804 0.9764706
v -10.72 4 -4 0.6509804 0.8509804 0.9764706
v -10.72 3.84 -4 0.6509804 0.8509804 0.9764706
v -10.56 3.84 -4 0.6509804 0.8509804 0.9764706
v -10.72 4 -4.16 0.6509804 0.8509804 0.9764706
v -10.56 4 -4.16 0.6509804 0.8509804 0.9764706
v -10.56 3.84 -4.16 0.6509804 0.8509804 0.9764706
v -10.72 3.84 -4.16 0.6509804 0.8509804 0.9764706
v -10.56 4 -4.16 0.6509804 0.8509804 0.9764706
v -10.56 4 -4 0.6509804 0.8509804 0.9764706
v -10.56 3.84 -4 0.6509804 0.8509804 0.9764706
v -10.56 3.84 -4.16 0.6509804 0.8509804 0.9764706
v -10.72 4 -4 0.6509804 0.8509804 0.9764706
v -10.72 4 -4.16 0.6509804 0.8509804 0.9764706
v -10.72 3.84 -4.16 0.6509804 0.8509804 0.9764706
v -10.72 3.84 -4 0.6509804 0.8509804 0.9764706
vt 0.15625 0.359375
vt 0.140625 0.359375
vt 0.15625 0.34375
vt 0.171875 0.359375
vt 0.21875 0.359375
vt 0.234375 0.34375
v -10.88 3.84 -4 0.6352941 0.6705883 0.6705883
v -10.72 3.84 -4 0.6352941 0.6705883 0.6705883
v -10.72 3.84 -3.84 0.6352941 0.6705883 0.6705883
v -10.88 3.84 -3.84 0.6352941 0.6705883 0.6705883
v -10.72 4.16 -4 0.6352941 0.6705883 0.6705883
v -10.88 4.16 -4 0.6352941 0.6705883 0.6705883
v -10.88 4.16 -3.84 0.6352941 0.6705883 0.6705883
v -10.72 4.16 -3.84 0.6352941 0.6705883 0.6705883
v -10.72 4.16 -3.84 0.6352941 0.6705883 0.6705883
v -10.88 4.16 -3.84 0.6352941 0.6705883 0.6705883
v -10.88 3.84 -3.84 0.6352941 0.6705883 0.6705883
v -10.72 3.84 -3.84 0.6352941 0.6705883 0.6705883
v -10.88 4.16 -4 0.6352941 0.6705883 0.6705883
v -10.72 4.16 -4 0.6352941 0.6705883 0.6705883
v -10.72 3.84 -4 0.6352941 0.6705883 0.6705883
v -10.88 3.84 -4 0.6352941 0.6705883 0.6705883
v -10.72 4.16 -4 0.6352941 0.6705883 0.6705883
v -10.72 4.16 -3.84 0.6352941 0.6705883 0.6705883
v -10.72 3.84 -3.84 0.6352941 0.6705883 0.6705883
v -10.72 3.84 -4 0.6352941 0.6705883 0.6705883
v -10.88 4.16 -3.84 0.6352941 0.6705883 0.6705883
v -10.88 4.16 -4 0.6352941 0.6705883 0.6705883
v -10.88 3.84 -4 0.6352941 0.6705883 0.6705883
v -10.88 3.84 -3.84 0.6352941 0.6705883 0.6705883
vt 0.25 0.34375
vt 0.0625 0.453125
vt 0.078125 0.453125
vt 0.078125 0.421875
vt 0.203125 0.296875
v -11.04 4 -3.84 0.9960784 0.7764706 0.6156863
v -10.72 4 -3.84 0.9960784 0.7764706 0.6156863
v -10.72 4 -3.68 0.9960784 0.7764706 0.6156863
v -11.04 4 -3.68 0.9960784 0.7764706 0.6156863
v -10.72 4.16 -3.84 0.9960784 0.7764706 0.6156863
v -11.04 4.16 -3.84 0.9960784 0.7764706 0.6156863
v -11.04 4.16 -3.68 0.9960784 0.7764706 0.6156863
v -10.72 4.16 -3.68 0.9960784 0.7764706 0.6156863
v -10.72 4.16 -3.68 0.9960784 0.7764706 0.6156863
v -11.04 4.16 -3.68 0.9960784 0.7764706 0.6156863
v -11.04 4 -3.68 0.9960784 0.7764706 0.6156863
v -10.72 4 -3.68 0.9960784 0.7764706 0.6156863
v -11.04 4.16 -3.84 0.9960784 0.7764706 0.6156863
v -10.72 4.16 -3.84 0.9960784 0.7764706 0.6156863
v -10.72 4 -3.84 0.9960784 0.7764706 0.6156863
v -11.04 4 -3.84 0.9960784 0.7764706 0.6156863
v -10.72 4.16 -3.84 0.9960784 0.7764706 0.6156863
v -10.72 4.16 -3.68 0.9960784 0.7764706 0.6156863
v -10.72 4 -3.68 0.9960784 0.7764706 0.6156863
v -10.72 4 -3.84 0.9960784 0.7764706 0.6156863
v -11.04 4.16 -3.68 0.9960784 0.7764706 0.6156863
v -11.04 4.16 -3.84 0.9960784 0.7764706 0.6156863
v -11.04 4 -3.84 0.9960784 0.7764706 0.6156863
v -11.04 4 -3.68 0.9960784 0.7764706 0.6156863
vt 0.203125 0.3125
vt 0.03125 0.34375
vt 0.0625 0.34375
vt 0.234375 0.359375
vt 0.25 0.359375
g Element #1
usemtl Element
f 1/1/1 2/2/1 4/4/1
f 2/2/1 3/3/1 4/4/1
f 5/1/2 6/5/2 8/4/2
f 6/5/2 7/6/2 8/4/2
f 9/5/3 10/7/3 12/6/3
f 10/7/3 11/8/3 12/6/3
f 13/9/4 14/7/4 16/10/4
f 14/7/4 15/8/4 16/10/4
f 17/11/5 18/12/5 20/13/5
f 18/12/5 19/2/5 20/13/5
f 21/14/6 22/15/6 24/12/6
f 22/15/6 23/11/6 24/12/6
g Element #2
usemtl Element
f 25/16/1 26/17/1 28/18/1
f 26/17/1 27/5/1 28/18/1
f 29/19/2 30/20/2 32/17/2
f 30/20/2 31/16/2 32/17/2
f 33/16/3 34/21/3 36/18/3
f 34/21/3 35/7/3 36/18/3
f 37/22/4 38/20/4 40/21/4
f 38/20/4 39/16/4 40/21/4
f 41/23/5 42/24/5 44/9/5
f 42/24/5 43/25/5 44/9/5
f 45/26/6 46/27/6 48/24/6
f 46/27/6 47/23/6 48/24/6
g Element #3
usemtl Element
f 49/28/1 50/29/1 52/31/1
f 50/29/1 51/30/1 52/31/1
f 53/32/2 54/33/2 56/29/2
f 54/33/2 55/28/2 56/29/2
f 57/34/3 58/35/3 60/37/3
f 58/35/3 59/36/3 60/37/3
f 61/38/4 62/39/4 64/34/4
f 62/39/4 63/40/4 64/34/4
f 65/41/5 66/42/5 68/44/5
f 66/42/5 67/43/5 68/44/5
f 69/45/6 70/42/6 72/46/6
f 70/42/6 71/43/6 72/46/6
g Element #4
usemtl Element
f 73/47/1 74/48/1 76/50/1
f 74/48/1 75/49/1 76/50/1
f 77/11/2 78/51/2 80/13/2
f 78/51/2 79/1/2 80/13/2
f 81/52/3 82/53/3 84/15/3
f 82/53/3 83/54/3 84/15/3
f 85/55/4 86/56/4 88/53/4
f 86/56/4 87/52/4 88/53/4
f 89/57/5 90/58/5 92/55/5
f 90/58/5 91/56/5 92/55/5
f 93/50/6 94/30/6 96/60/6
f 94/30/6 95/59/6 96/60/6
g Element #5
usemtl Element
f 97/61/1 98/62/1 100/57/1
f 98/62/1 99/58/1 100/57/1
f 101/63/2 102/64/2 104/62/2
f 102/64/2 103/61/2 104/62/2
f 105/65/3 106/19/3 108/66/3
f 106/19/3 107/5/3 108/66/3
f 109/56/4 110/67/4 112/15/4
f 110/67/4 111/14/4 112/15/4
f 113/68/5 114/60/5 116/69/5
f 114/60/5 115/63/5 116/69/5
f 117/68/6 118/59/6 120/69/6
f 118/59/6 119/64/6 120/69/6
g Element #6
usemtl Element
f 121/32/1 122/47/1 124/29/1
f 122/47/1 123/70/1 124/29/1
f 125/70/2 126/29/2 128/50/2
f 126/29/2 127/30/2 128/50/2
f 129/49/3 130/50/3 132/72/3
f 130/50/3 131/71/3 132/72/3
f 133/71/4 134/72/4 136/62/4
f 134/72/4 135/73/4 136/62/4
f 137/74/5 138/54/5 140/75/5
f 138/54/5 139/51/5 140/75/5
f 141/55/6 142/76/6 144/54/6
f 142/76/6 143/74/6 144/54/6
g Element #7
usemtl Element
f 145/62/1 146/73/1 148/56/1
f 146/73/1 147/67/1 148/56/1
f 149/51/2 150/65/2 152/1/2
f 150/65/2 151/66/2 152/1/2
f 153/77/3 154/43/3 156/75/3
f 154/43/3 155/78/3 156/75/3
f 157/79/4 158/43/4 160/80/4
f 158/43/4 159/78/4 160/80/4
f 161/81/5 162/79/5 164/82/5
f 162/79/5 163/80/5 164/82/5
f 165/81/6 166/34/6 168/82/6
f 166/34/6 167/37/6 168/82/6
g Element #8
usemtl Element
f 169/83/1 170/84/1 172/85/1
f 170/84/1 171/79/1 172/85/1
f 173/83/2 174/86/2 176/85/2
f 174/86/2 175/81/2 176/85/2
f 177/86/3 178/39/3 180/81/3
f 178/39/3 179/40/3 180/81/3
f 181/84/4 182/41/4 184/79/4
f 182/41/4 183/44/4 184/79/4
f 185/87/5 186/38/5 188/35/5
f 186/38/5 187/34/5 188/35/5
f 189/35/6 190/88/6 192/36/6
f 190/88/6 191/26/6 192/36/6
g Element #9
usemtl Element
f 193/89/1 194/88/1 196/27/1
f 194/88/1 195/26/1 196/27/1
f 197/74/2 198/45/2 200/77/2
f 198/45/2 199/46/2 200/77/2
f 201/90/3 202/91/3 204/61/3
f 202/91/3 203/92/3 204/61/3
f 205/31/4 206/30/4 208/91/4
f 206/30/4 207/90/4 208/91/4
f 209/92/5 210/61/5 212/76/5
f 210/61/5 211/55/5 212/76/5
f 213/22/6 214/37/6 216/7/6
f 214/37/6 215/93/6 216/7/6
g Element #10
usemtl Element
f 217/24/1 218/94/1 220/25/1
f 218/94/1 219/93/1 220/25/1
f 221/37/2 222/26/2 224/94/2
f 222/26/2 223/24/2 224/94/2
f 225/95/3 226/96/3 228/11/3
f 226/96/3 227/51/3 228/11/3
f 229/54/4 230/15/4 232/96/4
f 230/15/4 231/95/4 232/96/4
f 233/97/5 234/87/5 236/88/5
f 234/87/5 235/35/5 236/88/5
f 237/97/6 238/98/6 240/88/6
f 238/98/6 239/89/6 240/88/6
