# MagicaVoxel @ Ephtracy

# group
o 

# material
mtllib cesped cerezo.mtl
usemtl palette

# normals
vn -1 0 0
vn 1 0 0
vn 0 0 1
vn 0 0 -1
vn 0 -1 0
vn 0 1 0

# texcoords
vt 0.0253906 0.5
vt 0.330078 0.5
vt 0.669922 0.5

# verts
v -1 0 1
v -1 0 -1
v -1 0.3 -0.7
v -1 0.3 -0.8
v -1 0.4 -0.7
v -1 0.4 -0.8
v -1 0.6 -0.1
v -1 0.6 -0.2
v -1 0.7 -0.1
v -1 0.7 -0.2
v -1 0.8 0.7
v -1 0.8 0.6
v -1 0.9 0.7
v -1 0.9 0.6
v -1 1.1 -0.1
v -1 1.1 -0.2
v -1 1.2 -0.1
v -1 1.2 -0.2
v -1 1.4 0.6
v -1 1.4 0.5
v -1 1.4 -0.7
v -1 1.4 -0.8
v -1 1.5 0.7
v -1 1.5 0.6
v -1 1.5 0.5
v -1 1.5 0.4
v -1 1.5 0.1
v -1 1.5 0
v -1 1.5 -0.3
v -1 1.5 -0.4
v -1 1.5 -0.9
v -1 1.5 -1
v -1 1.6 0.4
v -1 1.6 0.2
v -1 1.6 -0.2
v -1 1.6 -0.3
v -1 1.6 -0.4
v -1 1.6 -0.5
v -1 1.6 -0.6
v -1 1.6 -0.7
v -1 1.6 -0.8
v -1 1.6 -0.9
v -1 1.7 1
v -1 1.7 0.7
v -1 1.7 0.2
v -1 1.7 0.1
v -1 1.7 0
v -1 1.7 -0.2
v -1 1.7 -0.5
v -1 1.7 -0.6
v -1 2 1
v -1 2 -1
v 1 0 1
v 1 0 -1
v 1 0.3 -0.7
v 1 0.3 -0.8
v 1 0.4 -0.7
v 1 0.4 -0.8
v 1 0.6 -0.1
v 1 0.6 -0.2
v 1 0.7 -0.1
v 1 0.7 -0.2
v 1 0.8 0.7
v 1 0.8 0.6
v 1 0.9 0.7
v 1 0.9 0.6
v 1 1.1 -0.1
v 1 1.1 -0.2
v 1 1.2 -0.1
v 1 1.2 -0.2
v 1 1.4 1
v 1 1.4 0.9
v 1 1.4 0.6
v 1 1.4 0.5
v 1 1.4 -0.7
v 1 1.4 -0.8
v 1 1.5 0.7
v 1 1.5 0.6
v 1 1.5 0.5
v 1 1.5 0.4
v 1 1.5 0.1
v 1 1.5 0
v 1 1.5 -0.3
v 1 1.5 -0.4
v 1 1.6 0.4
v 1 1.6 0.2
v 1 1.6 -0.2
v 1 1.6 -0.3
v 1 1.6 -0.4
v 1 1.6 -0.5
v 1 1.6 -0.6
v 1 1.6 -0.7
v 1 1.6 -0.8
v 1 1.6 -0.9
v 1 1.7 0.9
v 1 1.7 0.7
v 1 1.7 0.2
v 1 1.7 0.1
v 1 1.7 0
v 1 1.7 -0.2
v 1 1.7 -0.5
v 1 1.7 -0.6
v 1 1.7 -0.9
v 1 1.7 -1
v 1 2 1
v 1 2 -1
v -1 0 1
v -1 1.7 1
v -1 2 1
v -0.8 1.6 1
v -0.8 1.7 1
v -0.7 0.4 1
v -0.7 0.5 1
v -0.7 1.6 1
v -0.7 1.8 1
v -0.6 0.4 1
v -0.6 0.5 1
v -0.6 1.5 1
v -0.6 1.6 1
v -0.6 1.7 1
v -0.6 1.8 1
v -0.5 1.6 1
v -0.5 1.7 1
v -0.4 1.1 1
v -0.4 1.2 1
v -0.4 1.5 1
v -0.4 1.6 1
v -0.3 0.2 1
v -0.3 0.3 1
v -0.3 1.1 1
v -0.3 1.2 1
v -0.3 1.5 1
v -0.3 1.6 1
v -0.2 0.2 1
v -0.2 0.3 1
v -0.2 1.5 1
v -0.2 1.7 1
v -0.1 1.6 1
v -0.1 1.7 1
v 0 0.7 1
v 0 0.8 1
v 0 1.6 1
v 0 1.7 1
v 0.1 0.7 1
v 0.1 0.8 1
v 0.1 1.5 1
v 0.1 1.7 1
v 0.2 1.5 1
v 0.2 1.6 1
v 0.3 1.4 1
v 0.3 1.6 1
v 0.4 1.4 1
v 0.4 1.5 1
v 0.5 1.5 1
v 0.5 1.7 1
v 0.6 1 1
v 0.6 1.1 1
v 0.6 1.5 1
v 0.6 1.7 1
v 0.7 0.3 1
v 0.7 0.4 1
v 0.7 1 1
v 0.7 1.1 1
v 0.7 1.5 1
v 0.7 1.6 1
v 0.8 0.3 1
v 0.8 0.4 1
v 0.8 1.6 1
v 0.8 1.7 1
v 0.9 1.4 1
v 0.9 1.7 1
v 1 0 1
v 1 1.4 1
v 1 2 1
v -1 0 -1
v -1 1.5 -1
v -1 2 -1
v -0.9 1.5 -1
v -0.9 1.7 -1
v -0.8 1.6 -1
v -0.8 1.7 -1
v -0.7 0.4 -1
v -0.7 0.5 -1
v -0.7 1.6 -1
v -0.7 1.8 -1
v -0.6 0.4 -1
v -0.6 0.5 -1
v -0.6 1.5 -1
v -0.6 1.6 -1
v -0.6 1.7 -1
v -0.6 1.8 -1
v -0.5 1.6 -1
v -0.5 1.7 -1
v -0.4 1.1 -1
v -0.4 1.2 -1
v -0.4 1.5 -1
v -0.4 1.6 -1
v -0.3 0.2 -1
v -0.3 0.3 -1
v -0.3 1.1 -1
v -0.3 1.2 -1
v -0.3 1.5 -1
v -0.3 1.6 -1
v -0.2 0.2 -1
v -0.2 0.3 -1
v -0.2 1.5 -1
v -0.2 1.7 -1
v -0.1 1.6 -1
v -0.1 1.7 -1
v 0 0.7 -1
v 0 0.8 -1
v 0 1.6 -1
v 0 1.7 -1
v 0.1 0.7 -1
v 0.1 0.8 -1
v 0.1 1.5 -1
v 0.1 1.7 -1
v 0.2 1.5 -1
v 0.2 1.6 -1
v 0.3 1.4 -1
v 0.3 1.6 -1
v 0.4 1.4 -1
v 0.4 1.5 -1
v 0.5 1.5 -1
v 0.5 1.7 -1
v 0.6 1 -1
v 0.6 1.1 -1
v 0.6 1.5 -1
v 0.6 1.7 -1
v 0.7 0.3 -1
v 0.7 0.4 -1
v 0.7 1 -1
v 0.7 1.1 -1
v 0.7 1.5 -1
v 0.7 1.6 -1
v 0.8 0.3 -1
v 0.8 0.4 -1
v 0.8 1.6 -1
v 0.8 1.7 -1
v 1 0 -1
v 1 1.7 -1
v 1 2 -1
v -1 0 1
v 1 0 1
v -1 0 -1
v 1 0 -1
v -1 2 1
v 1 2 1
v -1 2 -1
v 1 2 -1

# faces
f 3/3/1 2/3/1 1/3/1
f 4/3/1 2/3/1 3/3/1
f 5/3/1 3/3/1 1/3/1
f 5/2/1 4/2/1 3/2/1
f 6/3/1 2/3/1 4/3/1
f 6/2/1 4/2/1 5/2/1
f 7/3/1 5/3/1 1/3/1
f 7/3/1 6/3/1 5/3/1
f 8/3/1 6/3/1 7/3/1
f 9/3/1 7/3/1 1/3/1
f 9/2/1 8/2/1 7/2/1
f 10/3/1 6/3/1 8/3/1
f 10/2/1 8/2/1 9/2/1
f 11/3/1 9/3/1 1/3/1
f 11/3/1 10/3/1 9/3/1
f 12/3/1 10/3/1 11/3/1
f 13/3/1 11/3/1 1/3/1
f 13/2/1 12/2/1 11/2/1
f 14/3/1 10/3/1 12/3/1
f 14/2/1 12/2/1 13/2/1
f 15/3/1 14/3/1 13/3/1
f 15/3/1 10/3/1 14/3/1
f 16/3/1 6/3/1 10/3/1
f 16/3/1 10/3/1 15/3/1
f 17/3/1 15/3/1 13/3/1
f 17/2/1 16/2/1 15/2/1
f 18/3/1 6/3/1 16/3/1
f 18/2/1 16/2/1 17/2/1
f 19/3/1 17/3/1 13/3/1
f 19/3/1 18/3/1 17/3/1
f 20/3/1 18/3/1 19/3/1
f 21/3/1 6/3/1 18/3/1
f 21/3/1 18/3/1 20/3/1
f 22/3/1 2/3/1 6/3/1
f 22/3/1 6/3/1 21/3/1
f 23/3/1 13/3/1 1/3/1
f 23/3/1 19/3/1 13/3/1
f 24/1/1 20/1/1 19/1/1
f 24/3/1 19/3/1 23/3/1
f 25/3/1 21/3/1 20/3/1
f 25/1/1 20/1/1 24/1/1
f 26/3/1 21/3/1 25/3/1
f 27/3/1 21/3/1 26/3/1
f 28/3/1 21/3/1 27/3/1
f 29/3/1 21/3/1 28/3/1
f 30/3/1 21/3/1 29/3/1
f 31/3/1 2/3/1 22/3/1
f 32/3/1 2/3/1 31/3/1
f 33/1/1 24/1/1 23/1/1
f 33/1/1 25/1/1 24/1/1
f 33/1/1 26/1/1 25/1/1
f 33/3/1 27/3/1 26/3/1
f 34/3/1 27/3/1 33/3/1
f 35/3/1 29/3/1 28/3/1
f 36/1/1 30/1/1 29/1/1
f 36/3/1 29/3/1 35/3/1
f 37/3/1 21/3/1 30/3/1
f 37/1/1 30/1/1 36/1/1
f 38/3/1 21/3/1 37/3/1
f 39/3/1 21/3/1 38/3/1
f 40/1/1 22/1/1 21/1/1
f 40/3/1 21/3/1 39/3/1
f 41/3/1 31/3/1 22/3/1
f 41/1/1 22/1/1 40/1/1
f 42/1/1 32/1/1 31/1/1
f 42/3/1 31/3/1 41/3/1
f 43/3/1 23/3/1 1/3/1
f 44/1/1 33/1/1 23/1/1
f 44/3/1 23/3/1 43/3/1
f 44/1/1 34/1/1 33/1/1
f 45/3/1 27/3/1 34/3/1
f 45/1/1 34/1/1 44/1/1
f 46/1/1 28/1/1 27/1/1
f 46/3/1 27/3/1 45/3/1
f 47/3/1 35/3/1 28/3/1
f 47/1/1 28/1/1 46/1/1
f 48/1/1 36/1/1 35/1/1
f 48/3/1 35/3/1 47/3/1
f 48/1/1 37/1/1 36/1/1
f 48/1/1 38/1/1 37/1/1
f 49/3/1 39/3/1 38/3/1
f 49/1/1 38/1/1 48/1/1
f 50/1/1 41/1/1 40/1/1
f 50/3/1 39/3/1 49/3/1
f 50/1/1 40/1/1 39/1/1
f 50/1/1 42/1/1 41/1/1
f 51/1/1 47/1/1 46/1/1
f 51/1/1 48/1/1 47/1/1
f 51/1/1 50/1/1 49/1/1
f 51/1/1 44/1/1 43/1/1
f 51/1/1 45/1/1 44/1/1
f 51/1/1 46/1/1 45/1/1
f 51/1/1 49/1/1 48/1/1
f 52/1/1 32/1/1 42/1/1
f 52/1/1 50/1/1 51/1/1
f 52/1/1 42/1/1 50/1/1
f 53/3/2 54/3/2 55/3/2
f 55/3/2 54/3/2 56/3/2
f 53/3/2 55/3/2 57/3/2
f 55/2/2 56/2/2 57/2/2
f 56/3/2 54/3/2 58/3/2
f 57/2/2 56/2/2 58/2/2
f 53/3/2 57/3/2 59/3/2
f 57/3/2 58/3/2 59/3/2
f 59/3/2 58/3/2 60/3/2
f 53/3/2 59/3/2 61/3/2
f 59/2/2 60/2/2 61/2/2
f 60/3/2 58/3/2 62/3/2
f 61/2/2 60/2/2 62/2/2
f 53/3/2 61/3/2 63/3/2
f 61/3/2 62/3/2 63/3/2
f 63/3/2 62/3/2 64/3/2
f 53/3/2 63/3/2 65/3/2
f 63/2/2 64/2/2 65/2/2
f 64/3/2 62/3/2 66/3/2
f 65/2/2 64/2/2 66/2/2
f 65/3/2 66/3/2 67/3/2
f 66/3/2 62/3/2 67/3/2
f 62/3/2 58/3/2 68/3/2
f 67/3/2 62/3/2 68/3/2
f 65/3/2 67/3/2 69/3/2
f 67/2/2 68/2/2 69/2/2
f 68/3/2 58/3/2 70/3/2
f 69/2/2 68/2/2 70/2/2
f 65/3/2 69/3/2 71/3/2
f 53/3/2 65/3/2 71/3/2
f 69/3/2 70/3/2 71/3/2
f 71/3/2 70/3/2 72/3/2
f 72/3/2 70/3/2 73/3/2
f 73/3/2 70/3/2 74/3/2
f 70/3/2 58/3/2 75/3/2
f 74/3/2 70/3/2 75/3/2
f 58/3/2 54/3/2 76/3/2
f 75/3/2 58/3/2 76/3/2
f 72/3/2 73/3/2 77/3/2
f 73/1/2 74/1/2 78/1/2
f 77/3/2 73/3/2 78/3/2
f 74/3/2 75/3/2 79/3/2
f 78/1/2 74/1/2 79/1/2
f 79/3/2 75/3/2 80/3/2
f 80/3/2 75/3/2 81/3/2
f 81/3/2 75/3/2 82/3/2
f 82/3/2 75/3/2 83/3/2
f 83/3/2 75/3/2 84/3/2
f 77/1/2 78/1/2 85/1/2
f 78/1/2 79/1/2 85/1/2
f 79/1/2 80/1/2 85/1/2
f 80/3/2 81/3/2 85/3/2
f 85/3/2 81/3/2 86/3/2
f 82/3/2 83/3/2 87/3/2
f 83/1/2 84/1/2 88/1/2
f 87/3/2 83/3/2 88/3/2
f 84/3/2 75/3/2 89/3/2
f 88/1/2 84/1/2 89/1/2
f 89/3/2 75/3/2 90/3/2
f 90/3/2 75/3/2 91/3/2
f 75/1/2 76/1/2 92/1/2
f 91/3/2 75/3/2 92/3/2
f 76/3/2 54/3/2 93/3/2
f 92/1/2 76/1/2 93/1/2
f 93/3/2 54/3/2 94/3/2
f 72/3/2 77/3/2 95/3/2
f 71/1/2 72/1/2 95/1/2
f 77/1/2 85/1/2 96/1/2
f 95/3/2 77/3/2 96/3/2
f 85/1/2 86/1/2 96/1/2
f 86/3/2 81/3/2 97/3/2
f 96/1/2 86/1/2 97/1/2
f 81/1/2 82/1/2 98/1/2
f 97/3/2 81/3/2 98/3/2
f 82/3/2 87/3/2 99/3/2
f 98/1/2 82/1/2 99/1/2
f 87/1/2 88/1/2 100/1/2
f 99/3/2 87/3/2 100/3/2
f 88/1/2 89/1/2 100/1/2
f 89/1/2 90/1/2 100/1/2
f 90/3/2 91/3/2 101/3/2
f 100/1/2 90/1/2 101/1/2
f 93/1/2 94/1/2 102/1/2
f 101/3/2 91/3/2 102/3/2
f 91/1/2 92/1/2 102/1/2
f 92/1/2 93/1/2 102/1/2
f 94/3/2 54/3/2 103/3/2
f 102/1/2 94/1/2 103/1/2
f 103/3/2 54/3/2 104/3/2
f 98/1/2 99/1/2 105/1/2
f 101/1/2 102/1/2 105/1/2
f 103/1/2 104/1/2 105/1/2
f 102/1/2 103/1/2 105/1/2
f 96/1/2 97/1/2 105/1/2
f 95/1/2 96/1/2 105/1/2
f 97/1/2 98/1/2 105/1/2
f 99/1/2 100/1/2 105/1/2
f 71/1/2 95/1/2 105/1/2
f 100/1/2 101/1/2 105/1/2
f 105/1/2 104/1/2 106/1/2
f 110/3/3 108/3/3 107/3/3
f 111/1/3 109/1/3 108/1/3
f 111/3/3 108/3/3 110/3/3
f 112/3/3 110/3/3 107/3/3
f 113/3/3 110/3/3 112/3/3
f 114/1/3 111/1/3 110/1/3
f 114/3/3 110/3/3 113/3/3
f 115/1/3 109/1/3 111/1/3
f 115/1/3 111/1/3 114/1/3
f 116/2/3 113/2/3 112/2/3
f 116/3/3 112/3/3 107/3/3
f 117/3/3 114/3/3 113/3/3
f 117/2/3 113/2/3 116/2/3
f 117/3/3 115/3/3 114/3/3
f 118/3/3 115/3/3 117/3/3
f 119/3/3 115/3/3 118/3/3
f 120/3/3 115/3/3 119/3/3
f 121/1/3 109/1/3 115/1/3
f 121/3/3 115/3/3 120/3/3
f 122/3/3 120/3/3 119/3/3
f 122/1/3 119/1/3 118/1/3
f 123/1/3 121/1/3 120/1/3
f 123/3/3 120/3/3 122/3/3
f 124/3/3 117/3/3 116/3/3
f 124/3/3 118/3/3 117/3/3
f 125/3/3 118/3/3 124/3/3
f 126/1/3 123/1/3 122/1/3
f 126/3/3 118/3/3 125/3/3
f 126/1/3 122/1/3 118/1/3
f 127/1/3 123/1/3 126/1/3
f 128/3/3 116/3/3 107/3/3
f 128/3/3 124/3/3 116/3/3
f 129/3/3 124/3/3 128/3/3
f 130/2/3 125/2/3 124/2/3
f 130/3/3 124/3/3 129/3/3
f 131/3/3 127/3/3 126/3/3
f 131/2/3 125/2/3 130/2/3
f 131/3/3 126/3/3 125/3/3
f 132/3/3 127/3/3 131/3/3
f 133/1/3 123/1/3 127/1/3
f 133/3/3 127/3/3 132/3/3
f 134/2/3 129/2/3 128/2/3
f 134/3/3 128/3/3 107/3/3
f 135/3/3 132/3/3 131/3/3
f 135/2/3 129/2/3 134/2/3
f 135/3/3 130/3/3 129/3/3
f 135/3/3 131/3/3 130/3/3
f 136/1/3 133/1/3 132/1/3
f 136/3/3 132/3/3 135/3/3
f 137/1/3 121/1/3 123/1/3
f 137/1/3 133/1/3 136/1/3
f 137/1/3 123/1/3 133/1/3
f 138/3/3 136/3/3 135/3/3
f 138/3/3 135/3/3 134/3/3
f 138/3/3 137/3/3 136/3/3
f 139/1/3 121/1/3 137/1/3
f 139/3/3 137/3/3 138/3/3
f 140/3/3 138/3/3 134/3/3
f 141/3/3 138/3/3 140/3/3
f 142/1/3 139/1/3 138/1/3
f 142/3/3 138/3/3 141/3/3
f 143/1/3 121/1/3 139/1/3
f 143/1/3 139/1/3 142/1/3
f 144/2/3 141/2/3 140/2/3
f 144/3/3 140/3/3 134/3/3
f 145/3/3 142/3/3 141/3/3
f 145/2/3 141/2/3 144/2/3
f 145/3/3 143/3/3 142/3/3
f 146/3/3 143/3/3 145/3/3
f 147/1/3 121/1/3 143/1/3
f 147/3/3 143/3/3 146/3/3
f 148/3/3 146/3/3 145/3/3
f 148/3/3 145/3/3 144/3/3
f 148/1/3 147/1/3 146/1/3
f 149/1/3 147/1/3 148/1/3
f 150/3/3 148/3/3 144/3/3
f 150/3/3 149/3/3 148/3/3
f 151/1/3 147/1/3 149/1/3
f 151/3/3 149/3/3 150/3/3
f 152/3/3 150/3/3 144/3/3
f 152/1/3 151/1/3 150/1/3
f 153/1/3 151/1/3 152/1/3
f 154/3/3 153/3/3 152/3/3
f 154/1/3 151/1/3 153/1/3
f 155/1/3 121/1/3 147/1/3
f 155/1/3 151/1/3 154/1/3
f 155/1/3 147/1/3 151/1/3
f 156/3/3 154/3/3 152/3/3
f 156/3/3 152/3/3 144/3/3
f 156/3/3 155/3/3 154/3/3
f 157/3/3 155/3/3 156/3/3
f 158/3/3 155/3/3 157/3/3
f 159/1/3 121/1/3 155/1/3
f 159/3/3 155/3/3 158/3/3
f 160/3/3 144/3/3 134/3/3
f 160/3/3 156/3/3 144/3/3
f 161/3/3 156/3/3 160/3/3
f 162/2/3 157/2/3 156/2/3
f 162/3/3 156/3/3 161/3/3
f 163/3/3 158/3/3 157/3/3
f 163/2/3 157/2/3 162/2/3
f 164/1/3 159/1/3 158/1/3
f 164/3/3 158/3/3 163/3/3
f 165/1/3 159/1/3 164/1/3
f 166/2/3 161/2/3 160/2/3
f 166/3/3 160/3/3 134/3/3
f 167/3/3 162/3/3 161/3/3
f 167/2/3 161/2/3 166/2/3
f 167/3/3 163/3/3 162/3/3
f 167/3/3 164/3/3 163/3/3
f 167/3/3 165/3/3 164/3/3
f 168/1/3 159/1/3 165/1/3
f 168/3/3 165/3/3 167/3/3
f 169/1/3 121/1/3 159/1/3
f 169/1/3 159/1/3 168/1/3
f 170/3/3 168/3/3 167/3/3
f 170/3/3 167/3/3 166/3/3
f 170/3/3 169/3/3 168/3/3
f 171/1/3 121/1/3 169/1/3
f 171/3/3 169/3/3 170/3/3
f 172/3/3 134/3/3 107/3/3
f 172/3/3 170/3/3 166/3/3
f 172/3/3 166/3/3 134/3/3
f 173/1/3 171/1/3 170/1/3
f 173/3/3 170/3/3 172/3/3
f 174/1/3 121/1/3 171/1/3
f 174/1/3 171/1/3 173/1/3
f 174/1/3 109/1/3 121/1/3
f 175/3/4 176/3/4 178/3/4
f 176/1/4 177/1/4 178/1/4
f 178/1/4 177/1/4 179/1/4
f 178/3/4 179/3/4 180/3/4
f 179/1/4 177/1/4 181/1/4
f 180/3/4 179/3/4 181/3/4
f 175/3/4 178/3/4 182/3/4
f 178/3/4 180/3/4 182/3/4
f 182/3/4 180/3/4 183/3/4
f 180/1/4 181/1/4 184/1/4
f 183/3/4 180/3/4 184/3/4
f 181/1/4 177/1/4 185/1/4
f 184/1/4 181/1/4 185/1/4
f 182/2/4 183/2/4 186/2/4
f 175/3/4 182/3/4 186/3/4
f 183/3/4 184/3/4 187/3/4
f 186/2/4 183/2/4 187/2/4
f 184/3/4 185/3/4 187/3/4
f 187/3/4 185/3/4 188/3/4
f 188/3/4 185/3/4 189/3/4
f 189/3/4 185/3/4 190/3/4
f 185/1/4 177/1/4 191/1/4
f 190/3/4 185/3/4 191/3/4
f 189/3/4 190/3/4 192/3/4
f 188/1/4 189/1/4 192/1/4
f 190/1/4 191/1/4 193/1/4
f 192/3/4 190/3/4 193/3/4
f 186/3/4 187/3/4 194/3/4
f 187/3/4 188/3/4 194/3/4
f 194/3/4 188/3/4 195/3/4
f 192/1/4 193/1/4 196/1/4
f 195/3/4 188/3/4 196/3/4
f 188/1/4 192/1/4 196/1/4
f 196/1/4 193/1/4 197/1/4
f 175/3/4 186/3/4 198/3/4
f 186/3/4 194/3/4 198/3/4
f 198/3/4 194/3/4 199/3/4
f 194/2/4 195/2/4 200/2/4
f 199/3/4 194/3/4 200/3/4
f 196/3/4 197/3/4 201/3/4
f 200/2/4 195/2/4 201/2/4
f 195/3/4 196/3/4 201/3/4
f 201/3/4 197/3/4 202/3/4
f 197/1/4 193/1/4 203/1/4
f 202/3/4 197/3/4 203/3/4
f 198/2/4 199/2/4 204/2/4
f 175/3/4 198/3/4 204/3/4
f 201/3/4 202/3/4 205/3/4
f 204/2/4 199/2/4 205/2/4
f 199/3/4 200/3/4 205/3/4
f 200/3/4 201/3/4 205/3/4
f 202/1/4 203/1/4 206/1/4
f 205/3/4 202/3/4 206/3/4
f 193/1/4 191/1/4 207/1/4
f 206/1/4 203/1/4 207/1/4
f 203/1/4 193/1/4 207/1/4
f 205/3/4 206/3/4 208/3/4
f 204/3/4 205/3/4 208/3/4
f 206/3/4 207/3/4 208/3/4
f 207/1/4 191/1/4 209/1/4
f 208/3/4 207/3/4 209/3/4
f 204/3/4 208/3/4 210/3/4
f 210/3/4 208/3/4 211/3/4
f 208/1/4 209/1/4 212/1/4
f 211/3/4 208/3/4 212/3/4
f 209/1/4 191/1/4 213/1/4
f 212/1/4 209/1/4 213/1/4
f 210/2/4 211/2/4 214/2/4
f 204/3/4 210/3/4 214/3/4
f 211/3/4 212/3/4 215/3/4
f 214/2/4 211/2/4 215/2/4
f 212/3/4 213/3/4 215/3/4
f 215/3/4 213/3/4 216/3/4
f 213/1/4 191/1/4 217/1/4
f 216/3/4 213/3/4 217/3/4
f 215/3/4 216/3/4 218/3/4
f 214/3/4 215/3/4 218/3/4
f 216/1/4 217/1/4 218/1/4
f 218/1/4 217/1/4 219/1/4
f 214/3/4 218/3/4 220/3/4
f 218/3/4 219/3/4 220/3/4
f 219/1/4 217/1/4 221/1/4
f 220/3/4 219/3/4 221/3/4
f 214/3/4 220/3/4 222/3/4
f 220/1/4 221/1/4 222/1/4
f 222/1/4 221/1/4 223/1/4
f 222/3/4 223/3/4 224/3/4
f 223/1/4 221/1/4 224/1/4
f 217/1/4 191/1/4 225/1/4
f 224/1/4 221/1/4 225/1/4
f 221/1/4 217/1/4 225/1/4
f 222/3/4 224/3/4 226/3/4
f 214/3/4 222/3/4 226/3/4
f 224/3/4 225/3/4 226/3/4
f 226/3/4 225/3/4 227/3/4
f 227/3/4 225/3/4 228/3/4
f 225/1/4 191/1/4 229/1/4
f 228/3/4 225/3/4 229/3/4
f 204/3/4 214/3/4 230/3/4
f 214/3/4 226/3/4 230/3/4
f 230/3/4 226/3/4 231/3/4
f 226/2/4 227/2/4 232/2/4
f 231/3/4 226/3/4 232/3/4
f 227/3/4 228/3/4 233/3/4
f 232/2/4 227/2/4 233/2/4
f 228/1/4 229/1/4 234/1/4
f 233/3/4 228/3/4 234/3/4
f 234/1/4 229/1/4 235/1/4
f 230/2/4 231/2/4 236/2/4
f 204/3/4 230/3/4 236/3/4
f 231/3/4 232/3/4 237/3/4
f 236/2/4 231/2/4 237/2/4
f 232/3/4 233/3/4 237/3/4
f 233/3/4 234/3/4 237/3/4
f 234/3/4 235/3/4 237/3/4
f 235/1/4 229/1/4 238/1/4
f 237/3/4 235/3/4 238/3/4
f 229/1/4 191/1/4 239/1/4
f 238/1/4 229/1/4 239/1/4
f 175/3/4 204/3/4 240/3/4
f 237/3/4 238/3/4 240/3/4
f 238/3/4 239/3/4 240/3/4
f 236/3/4 237/3/4 240/3/4
f 204/3/4 236/3/4 240/3/4
f 239/1/4 191/1/4 241/1/4
f 240/3/4 239/3/4 241/3/4
f 191/1/4 177/1/4 242/1/4
f 241/1/4 191/1/4 242/1/4
f 245/3/5 244/3/5 243/3/5
f 246/3/5 244/3/5 245/3/5
f 247/1/6 248/1/6 249/1/6
f 249/1/6 248/1/6 250/1/6
