# MagicaVoxel @ Ephtracy

# group
o 

# material
mtllib tierra cerezo 3 esquinas.mtl
usemtl palette

# normals
vn -1 0 0
vn 1 0 0
vn 0 0 1
vn 0 0 -1
vn 0 -1 0
vn 0 1 0

# texcoords
vt 0.494141 0.5
vt 0.669922 0.5

# verts
v -1 0 0.7
v -1 0 -1
v -1 0.9 0.7
v -1 0.9 -1
v -1 1 0.7
v -1 1 -1
v -1 1.9 0.7
v -1 1.9 -1
v -1 2 0.7
v -1 2 -1
v -0.9 0 0.8
v -0.9 0 0.7
v -0.9 0.9 0.8
v -0.9 0.9 0.7
v -0.9 1 0.8
v -0.9 1 0.7
v -0.9 1.9 0.8
v -0.9 1.9 0.7
v -0.9 2 0.8
v -0.9 2 0.7
v -0.8 0 0.9
v -0.8 0 0.8
v -0.8 0.9 0.9
v -0.8 0.9 0.8
v -0.8 1 0.9
v -0.8 1 0.8
v -0.8 1.9 0.9
v -0.8 1.9 0.8
v -0.8 2 0.9
v -0.8 2 0.8
v -0.7 0 1
v -0.7 0 0.9
v -0.7 0.9 1
v -0.7 0.9 0.9
v -0.7 1 1
v -0.7 1 0.9
v -0.7 1.9 1
v -0.7 1.9 0.9
v -0.7 2 1
v -0.7 2 0.9
v 0.7 0 1
v 0.7 0 0.9
v 0.7 0 -0.9
v 0.7 0 -1
v 0.7 0.9 1
v 0.7 0.9 0.9
v 0.7 0.9 -0.9
v 0.7 0.9 -1
v 0.7 1 1
v 0.7 1 0.9
v 0.7 1 -0.9
v 0.7 1 -1
v 0.7 1.9 1
v 0.7 1.9 0.9
v 0.7 1.9 -0.9
v 0.7 1.9 -1
v 0.7 2 1
v 0.7 2 0.9
v 0.7 2 -0.9
v 0.7 2 -1
v 0.8 0 0.9
v 0.8 0 0.8
v 0.8 0 -0.8
v 0.8 0 -0.9
v 0.8 0.9 0.9
v 0.8 0.9 0.8
v 0.8 0.9 -0.8
v 0.8 0.9 -0.9
v 0.8 1 0.9
v 0.8 1 0.8
v 0.8 1 -0.8
v 0.8 1 -0.9
v 0.8 1.9 0.9
v 0.8 1.9 0.8
v 0.8 1.9 -0.8
v 0.8 1.9 -0.9
v 0.8 2 0.9
v 0.8 2 0.8
v 0.8 2 -0.8
v 0.8 2 -0.9
v 0.9 0 0.8
v 0.9 0 0.7
v 0.9 0 -0.7
v 0.9 0 -0.8
v 0.9 0.9 0.8
v 0.9 0.9 0.7
v 0.9 0.9 -0.7
v 0.9 0.9 -0.8
v 0.9 1 0.8
v 0.9 1 0.7
v 0.9 1 -0.7
v 0.9 1 -0.8
v 0.9 1.9 0.8
v 0.9 1.9 0.7
v 0.9 1.9 -0.7
v 0.9 1.9 -0.8
v 0.9 2 0.8
v 0.9 2 0.7
v 0.9 2 -0.7
v 0.9 2 -0.8
v 1 0 0.7
v 1 0 -0.7
v 1 0.9 0.7
v 1 0.9 -0.7
v 1 1 0.7
v 1 1 -0.7
v 1 1.9 0.7
v 1 1.9 -0.7
v 1 2 0.7
v 1 2 -0.7
v -0.7 0 1
v -0.7 0.9 1
v -0.7 1 1
v -0.7 1.9 1
v -0.7 2 1
v 0.7 0 1
v 0.7 0.9 1
v 0.7 1 1
v 0.7 1.9 1
v 0.7 2 1
v -0.8 0 0.9
v -0.8 0.9 0.9
v -0.8 1 0.9
v -0.8 1.9 0.9
v -0.8 2 0.9
v -0.7 0 0.9
v -0.7 0.9 0.9
v -0.7 1 0.9
v -0.7 1.9 0.9
v -0.7 2 0.9
v 0.7 0 0.9
v 0.7 0.9 0.9
v 0.7 1 0.9
v 0.7 1.9 0.9
v 0.7 2 0.9
v 0.8 0 0.9
v 0.8 0.9 0.9
v 0.8 1 0.9
v 0.8 1.9 0.9
v 0.8 2 0.9
v -0.9 0 0.8
v -0.9 0.9 0.8
v -0.9 1 0.8
v -0.9 1.9 0.8
v -0.9 2 0.8
v -0.8 0 0.8
v -0.8 0.9 0.8
v -0.8 1 0.8
v -0.8 1.9 0.8
v -0.8 2 0.8
v 0.8 0 0.8
v 0.8 0.9 0.8
v 0.8 1 0.8
v 0.8 1.9 0.8
v 0.8 2 0.8
v 0.9 0 0.8
v 0.9 0.9 0.8
v 0.9 1 0.8
v 0.9 1.9 0.8
v 0.9 2 0.8
v -1 0 0.7
v -1 0.9 0.7
v -1 1 0.7
v -1 1.9 0.7
v -1 2 0.7
v -0.9 0 0.7
v -0.9 0.9 0.7
v -0.9 1 0.7
v -0.9 1.9 0.7
v -0.9 2 0.7
v 0.9 0 0.7
v 0.9 0.9 0.7
v 0.9 1 0.7
v 0.9 1.9 0.7
v 0.9 2 0.7
v 1 0 0.7
v 1 0.9 0.7
v 1 1 0.7
v 1 1.9 0.7
v 1 2 0.7
v 0.9 0 -0.7
v 0.9 0.9 -0.7
v 0.9 1 -0.7
v 0.9 1.9 -0.7
v 0.9 2 -0.7
v 1 0 -0.7
v 1 0.9 -0.7
v 1 1 -0.7
v 1 1.9 -0.7
v 1 2 -0.7
v 0.8 0 -0.8
v 0.8 0.9 -0.8
v 0.8 1 -0.8
v 0.8 1.9 -0.8
v 0.8 2 -0.8
v 0.9 0 -0.8
v 0.9 0.9 -0.8
v 0.9 1 -0.8
v 0.9 1.9 -0.8
v 0.9 2 -0.8
v 0.7 0 -0.9
v 0.7 0.9 -0.9
v 0.7 1 -0.9
v 0.7 1.9 -0.9
v 0.7 2 -0.9
v 0.8 0 -0.9
v 0.8 0.9 -0.9
v 0.8 1 -0.9
v 0.8 1.9 -0.9
v 0.8 2 -0.9
v -1 0 -1
v -1 0.9 -1
v -1 1 -1
v -1 1.9 -1
v -1 2 -1
v 0.7 0 -1
v 0.7 0.9 -1
v 0.7 1 -1
v 0.7 1.9 -1
v 0.7 2 -1
v -0.7 0 1
v 0.7 0 1
v -0.8 0 0.9
v -0.7 0 0.9
v 0.7 0 0.9
v 0.8 0 0.9
v -0.9 0 0.8
v -0.8 0 0.8
v 0.8 0 0.8
v 0.9 0 0.8
v -1 0 0.7
v -0.9 0 0.7
v 0.9 0 0.7
v 1 0 0.7
v 0.9 0 -0.7
v 1 0 -0.7
v 0.8 0 -0.8
v 0.9 0 -0.8
v 0.7 0 -0.9
v 0.8 0 -0.9
v -1 0 -1
v 0.7 0 -1
v -0.7 2 1
v 0.7 2 1
v -0.8 2 0.9
v -0.7 2 0.9
v 0.7 2 0.9
v 0.8 2 0.9
v -0.9 2 0.8
v -0.8 2 0.8
v 0.8 2 0.8
v 0.9 2 0.8
v -1 2 0.7
v -0.9 2 0.7
v 0.9 2 0.7
v 1 2 0.7
v 0.9 2 -0.7
v 1 2 -0.7
v 0.8 2 -0.8
v 0.9 2 -0.8
v 0.7 2 -0.9
v 0.8 2 -0.9
v -1 2 -1
v 0.7 2 -1

# faces
f 3/1/1 2/1/1 1/1/1
f 4/1/1 2/1/1 3/1/1
f 5/2/1 4/2/1 3/2/1
f 6/2/1 4/2/1 5/2/1
f 7/1/1 6/1/1 5/1/1
f 8/1/1 6/1/1 7/1/1
f 9/2/1 8/2/1 7/2/1
f 10/2/1 8/2/1 9/2/1
f 13/1/1 12/1/1 11/1/1
f 14/1/1 12/1/1 13/1/1
f 15/2/1 14/2/1 13/2/1
f 16/2/1 14/2/1 15/2/1
f 17/1/1 16/1/1 15/1/1
f 18/1/1 16/1/1 17/1/1
f 19/2/1 18/2/1 17/2/1
f 20/2/1 18/2/1 19/2/1
f 23/1/1 22/1/1 21/1/1
f 24/1/1 22/1/1 23/1/1
f 25/2/1 24/2/1 23/2/1
f 26/2/1 24/2/1 25/2/1
f 27/1/1 26/1/1 25/1/1
f 28/1/1 26/1/1 27/1/1
f 29/2/1 28/2/1 27/2/1
f 30/2/1 28/2/1 29/2/1
f 33/1/1 32/1/1 31/1/1
f 34/1/1 32/1/1 33/1/1
f 35/2/1 34/2/1 33/2/1
f 36/2/1 34/2/1 35/2/1
f 37/1/1 36/1/1 35/1/1
f 38/1/1 36/1/1 37/1/1
f 39/2/1 38/2/1 37/2/1
f 40/2/1 38/2/1 39/2/1
f 41/1/2 42/1/2 45/1/2
f 45/1/2 42/1/2 46/1/2
f 43/1/2 44/1/2 47/1/2
f 47/1/2 44/1/2 48/1/2
f 45/2/2 46/2/2 49/2/2
f 49/2/2 46/2/2 50/2/2
f 47/2/2 48/2/2 51/2/2
f 51/2/2 48/2/2 52/2/2
f 49/1/2 50/1/2 53/1/2
f 53/1/2 50/1/2 54/1/2
f 51/1/2 52/1/2 55/1/2
f 55/1/2 52/1/2 56/1/2
f 53/2/2 54/2/2 57/2/2
f 57/2/2 54/2/2 58/2/2
f 55/2/2 56/2/2 59/2/2
f 59/2/2 56/2/2 60/2/2
f 61/1/2 62/1/2 65/1/2
f 65/1/2 62/1/2 66/1/2
f 63/1/2 64/1/2 67/1/2
f 67/1/2 64/1/2 68/1/2
f 65/2/2 66/2/2 69/2/2
f 69/2/2 66/2/2 70/2/2
f 67/2/2 68/2/2 71/2/2
f 71/2/2 68/2/2 72/2/2
f 69/1/2 70/1/2 73/1/2
f 73/1/2 70/1/2 74/1/2
f 71/1/2 72/1/2 75/1/2
f 75/1/2 72/1/2 76/1/2
f 73/2/2 74/2/2 77/2/2
f 77/2/2 74/2/2 78/2/2
f 75/2/2 76/2/2 79/2/2
f 79/2/2 76/2/2 80/2/2
f 81/1/2 82/1/2 85/1/2
f 85/1/2 82/1/2 86/1/2
f 83/1/2 84/1/2 87/1/2
f 87/1/2 84/1/2 88/1/2
f 85/2/2 86/2/2 89/2/2
f 89/2/2 86/2/2 90/2/2
f 87/2/2 88/2/2 91/2/2
f 91/2/2 88/2/2 92/2/2
f 89/1/2 90/1/2 93/1/2
f 93/1/2 90/1/2 94/1/2
f 91/1/2 92/1/2 95/1/2
f 95/1/2 92/1/2 96/1/2
f 93/2/2 94/2/2 97/2/2
f 97/2/2 94/2/2 98/2/2
f 95/2/2 96/2/2 99/2/2
f 99/2/2 96/2/2 100/2/2
f 101/1/2 102/1/2 103/1/2
f 103/1/2 102/1/2 104/1/2
f 103/2/2 104/2/2 105/2/2
f 105/2/2 104/2/2 106/2/2
f 105/1/2 106/1/2 107/1/2
f 107/1/2 106/1/2 108/1/2
f 107/2/2 108/2/2 109/2/2
f 109/2/2 108/2/2 110/2/2
f 116/1/3 112/1/3 111/1/3
f 117/2/3 113/2/3 112/2/3
f 117/1/3 112/1/3 116/1/3
f 118/1/3 114/1/3 113/1/3
f 118/2/3 113/2/3 117/2/3
f 119/2/3 115/2/3 114/2/3
f 119/1/3 114/1/3 118/1/3
f 120/2/3 115/2/3 119/2/3
f 126/1/3 122/1/3 121/1/3
f 127/2/3 123/2/3 122/2/3
f 127/1/3 122/1/3 126/1/3
f 128/1/3 124/1/3 123/1/3
f 128/2/3 123/2/3 127/2/3
f 129/2/3 125/2/3 124/2/3
f 129/1/3 124/1/3 128/1/3
f 130/2/3 125/2/3 129/2/3
f 136/1/3 132/1/3 131/1/3
f 137/2/3 133/2/3 132/2/3
f 137/1/3 132/1/3 136/1/3
f 138/1/3 134/1/3 133/1/3
f 138/2/3 133/2/3 137/2/3
f 139/2/3 135/2/3 134/2/3
f 139/1/3 134/1/3 138/1/3
f 140/2/3 135/2/3 139/2/3
f 146/1/3 142/1/3 141/1/3
f 147/2/3 143/2/3 142/2/3
f 147/1/3 142/1/3 146/1/3
f 148/1/3 144/1/3 143/1/3
f 148/2/3 143/2/3 147/2/3
f 149/2/3 145/2/3 144/2/3
f 149/1/3 144/1/3 148/1/3
f 150/2/3 145/2/3 149/2/3
f 156/1/3 152/1/3 151/1/3
f 157/2/3 153/2/3 152/2/3
f 157/1/3 152/1/3 156/1/3
f 158/1/3 154/1/3 153/1/3
f 158/2/3 153/2/3 157/2/3
f 159/2/3 155/2/3 154/2/3
f 159/1/3 154/1/3 158/1/3
f 160/2/3 155/2/3 159/2/3
f 166/1/3 162/1/3 161/1/3
f 167/2/3 163/2/3 162/2/3
f 167/1/3 162/1/3 166/1/3
f 168/1/3 164/1/3 163/1/3
f 168/2/3 163/2/3 167/2/3
f 169/2/3 165/2/3 164/2/3
f 169/1/3 164/1/3 168/1/3
f 170/2/3 165/2/3 169/2/3
f 176/1/3 172/1/3 171/1/3
f 177/2/3 173/2/3 172/2/3
f 177/1/3 172/1/3 176/1/3
f 178/1/3 174/1/3 173/1/3
f 178/2/3 173/2/3 177/2/3
f 179/2/3 175/2/3 174/2/3
f 179/1/3 174/1/3 178/1/3
f 180/2/3 175/2/3 179/2/3
f 181/1/4 182/1/4 186/1/4
f 182/2/4 183/2/4 187/2/4
f 186/1/4 182/1/4 187/1/4
f 183/1/4 184/1/4 188/1/4
f 187/2/4 183/2/4 188/2/4
f 184/2/4 185/2/4 189/2/4
f 188/1/4 184/1/4 189/1/4
f 189/2/4 185/2/4 190/2/4
f 191/1/4 192/1/4 196/1/4
f 192/2/4 193/2/4 197/2/4
f 196/1/4 192/1/4 197/1/4
f 193/1/4 194/1/4 198/1/4
f 197/2/4 193/2/4 198/2/4
f 194/2/4 195/2/4 199/2/4
f 198/1/4 194/1/4 199/1/4
f 199/2/4 195/2/4 200/2/4
f 201/1/4 202/1/4 206/1/4
f 202/2/4 203/2/4 207/2/4
f 206/1/4 202/1/4 207/1/4
f 203/1/4 204/1/4 208/1/4
f 207/2/4 203/2/4 208/2/4
f 204/2/4 205/2/4 209/2/4
f 208/1/4 204/1/4 209/1/4
f 209/2/4 205/2/4 210/2/4
f 211/1/4 212/1/4 216/1/4
f 212/2/4 213/2/4 217/2/4
f 216/1/4 212/1/4 217/1/4
f 213/1/4 214/1/4 218/1/4
f 217/2/4 213/2/4 218/2/4
f 214/2/4 215/2/4 219/2/4
f 218/1/4 214/1/4 219/1/4
f 219/2/4 215/2/4 220/2/4
f 224/1/5 222/1/5 221/1/5
f 225/1/5 222/1/5 224/1/5
f 228/1/5 224/1/5 223/1/5
f 228/1/5 226/1/5 225/1/5
f 228/1/5 225/1/5 224/1/5
f 229/1/5 226/1/5 228/1/5
f 232/1/5 228/1/5 227/1/5
f 232/1/5 230/1/5 229/1/5
f 232/1/5 229/1/5 228/1/5
f 233/1/5 230/1/5 232/1/5
f 235/1/5 232/1/5 231/1/5
f 235/1/5 234/1/5 233/1/5
f 235/1/5 233/1/5 232/1/5
f 236/1/5 234/1/5 235/1/5
f 237/1/5 235/1/5 231/1/5
f 238/1/5 235/1/5 237/1/5
f 239/1/5 237/1/5 231/1/5
f 240/1/5 237/1/5 239/1/5
f 241/1/5 239/1/5 231/1/5
f 242/1/5 239/1/5 241/1/5
f 243/2/6 244/2/6 246/2/6
f 246/2/6 244/2/6 247/2/6
f 245/2/6 246/2/6 250/2/6
f 247/2/6 248/2/6 250/2/6
f 246/2/6 247/2/6 250/2/6
f 250/2/6 248/2/6 251/2/6
f 249/2/6 250/2/6 254/2/6
f 251/2/6 252/2/6 254/2/6
f 250/2/6 251/2/6 254/2/6
f 254/2/6 252/2/6 255/2/6
f 253/2/6 254/2/6 257/2/6
f 255/2/6 256/2/6 257/2/6
f 254/2/6 255/2/6 257/2/6
f 257/2/6 256/2/6 258/2/6
f 253/2/6 257/2/6 259/2/6
f 259/2/6 257/2/6 260/2/6
f 253/2/6 259/2/6 261/2/6
f 261/2/6 259/2/6 262/2/6
f 253/2/6 261/2/6 263/2/6
f 263/2/6 261/2/6 264/2/6
