# MagicaVoxel @ Ephtracy

# group
o 

# material
mtllib tierra cerezo.mtl
usemtl palette

# normals
vn -1 0 0
vn 1 0 0
vn 0 0 1
vn 0 0 -1
vn 0 -1 0
vn 0 1 0

# texcoords
vt 0.0253906 0.5
vt 0.330078 0.5
vt 0.666016 0.5
vt 0.669922 0.5

# verts
v -1 0 1
v -1 0 -1
v -1 0.2 0.4
v -1 0.2 0.3
v -1 0.2 -0.7
v -1 0.2 -0.8
v -1 0.3 0.4
v -1 0.3 0.3
v -1 0.3 -0.7
v -1 0.3 -0.8
v -1 0.4 0.4
v -1 0.4 0.3
v -1 0.4 -0.7
v -1 0.4 -0.8
v -1 0.5 -0.1
v -1 0.5 -0.2
v -1 0.6 -0.1
v -1 0.6 -0.2
v -1 0.7 0.7
v -1 0.7 0.6
v -1 0.7 -0.1
v -1 0.7 -0.2
v -1 0.8 0.7
v -1 0.8 0.6
v -1 0.8 -0.7
v -1 0.8 -0.8
v -1 0.9 0.7
v -1 0.9 0.6
v -1 0.9 -0.7
v -1 0.9 -0.8
v -1 1 -0.1
v -1 1 -0.2
v -1 1 -0.7
v -1 1 -0.8
v -1 1.1 -0.1
v -1 1.1 -0.2
v -1 1.2 -0.1
v -1 1.2 -0.2
v -1 1.3 0.6
v -1 1.3 0.5
v -1 1.4 0.6
v -1 1.4 0.5
v -1 1.5 0.6
v -1 1.5 0.5
v -1 1.6 -0.6
v -1 1.6 -0.7
v -1 1.7 0.2
v -1 1.7 0.1
v -1 1.7 -0.6
v -1 1.7 -0.7
v -1 1.8 0.2
v -1 1.8 0.1
v -1 1.8 -0.6
v -1 1.8 -0.7
v -1 1.9 0.2
v -1 1.9 0.1
v -1 2 1
v -1 2 -1
v 1 0 1
v 1 0 -1
v 1 0.2 0.4
v 1 0.2 0.3
v 1 0.2 -0.7
v 1 0.2 -0.8
v 1 0.3 0.4
v 1 0.3 0.3
v 1 0.3 -0.7
v 1 0.3 -0.8
v 1 0.4 0.4
v 1 0.4 0.3
v 1 0.4 -0.7
v 1 0.4 -0.8
v 1 0.5 -0.1
v 1 0.5 -0.2
v 1 0.6 -0.1
v 1 0.6 -0.2
v 1 0.7 0.7
v 1 0.7 0.6
v 1 0.7 -0.1
v 1 0.7 -0.2
v 1 0.8 0.7
v 1 0.8 0.6
v 1 0.8 -0.7
v 1 0.8 -0.8
v 1 0.9 0.7
v 1 0.9 0.6
v 1 0.9 -0.7
v 1 0.9 -0.8
v 1 1 -0.1
v 1 1 -0.2
v 1 1 -0.7
v 1 1 -0.8
v 1 1.1 -0.1
v 1 1.1 -0.2
v 1 1.2 -0.1
v 1 1.2 -0.2
v 1 1.3 0.6
v 1 1.3 0.5
v 1 1.4 0.6
v 1 1.4 0.5
v 1 1.5 0.6
v 1 1.5 0.5
v 1 1.6 -0.6
v 1 1.6 -0.7
v 1 1.7 0.2
v 1 1.7 0.1
v 1 1.7 -0.6
v 1 1.7 -0.7
v 1 1.8 0.2
v 1 1.8 0.1
v 1 1.8 -0.6
v 1 1.8 -0.7
v 1 1.9 0.2
v 1 1.9 0.1
v 1 2 1
v 1 2 -1
v -1 0 1
v -1 2 1
v -0.7 1.4 1
v -0.7 1.5 1
v -0.7 1.6 1
v -0.6 0.8 1
v -0.6 0.9 1
v -0.6 1 1
v -0.6 1.5 1
v -0.6 1.6 1
v -0.5 0.1 1
v -0.5 0.2 1
v -0.5 0.3 1
v -0.5 0.8 1
v -0.5 0.9 1
v -0.5 1 1
v -0.5 1.4 1
v -0.5 1.5 1
v -0.4 0.1 1
v -0.4 0.2 1
v -0.4 0.3 1
v 0.1 1 1
v 0.1 1.1 1
v 0.1 1.2 1
v 0.1 1.6 1
v 0.1 1.7 1
v 0.1 1.8 1
v 0.2 1 1
v 0.2 1.1 1
v 0.2 1.2 1
v 0.2 1.6 1
v 0.2 1.7 1
v 0.2 1.8 1
v 0.3 0.5 1
v 0.3 0.6 1
v 0.3 0.7 1
v 0.4 0.5 1
v 0.4 0.6 1
v 0.4 0.7 1
v 0.5 0.1 1
v 0.5 0.2 1
v 0.5 0.3 1
v 0.6 0.1 1
v 0.6 0.2 1
v 0.6 0.3 1
v 0.7 0.9 1
v 0.7 1 1
v 0.7 1.1 1
v 0.7 1.4 1
v 0.7 1.5 1
v 0.7 1.6 1
v 0.8 0.9 1
v 0.8 1 1
v 0.8 1.1 1
v 0.8 1.4 1
v 0.8 1.5 1
v 0.8 1.6 1
v 1 0 1
v 1 2 1
v -1 0 -1
v -1 2 -1
v -0.7 1.4 -1
v -0.7 1.5 -1
v -0.7 1.6 -1
v -0.6 0.8 -1
v -0.6 0.9 -1
v -0.6 1 -1
v -0.6 1.5 -1
v -0.6 1.6 -1
v -0.5 0.1 -1
v -0.5 0.2 -1
v -0.5 0.3 -1
v -0.5 0.8 -1
v -0.5 0.9 -1
v -0.5 1 -1
v -0.5 1.4 -1
v -0.5 1.5 -1
v -0.4 0.1 -1
v -0.4 0.2 -1
v -0.4 0.3 -1
v 0.1 1 -1
v 0.1 1.1 -1
v 0.1 1.2 -1
v 0.1 1.6 -1
v 0.1 1.7 -1
v 0.1 1.8 -1
v 0.2 1 -1
v 0.2 1.1 -1
v 0.2 1.2 -1
v 0.2 1.6 -1
v 0.2 1.7 -1
v 0.2 1.8 -1
v 0.3 0.5 -1
v 0.3 0.6 -1
v 0.3 0.7 -1
v 0.4 0.5 -1
v 0.4 0.6 -1
v 0.4 0.7 -1
v 0.5 0.1 -1
v 0.5 0.2 -1
v 0.5 0.3 -1
v 0.6 0.1 -1
v 0.6 0.2 -1
v 0.6 0.3 -1
v 0.7 0.9 -1
v 0.7 1 -1
v 0.7 1.1 -1
v 0.7 1.4 -1
v 0.7 1.5 -1
v 0.7 1.6 -1
v 0.8 0.9 -1
v 0.8 1 -1
v 0.8 1.1 -1
v 0.8 1.4 -1
v 0.8 1.5 -1
v 0.8 1.6 -1
v 1 0 -1
v 1 2 -1
v -1 0 1
v 1 0 1
v -1 0 -1
v 1 0 -1
v -1 2 1
v 1 2 1
v -1 2 -1
v 1 2 -1

# faces
f 3/4/1 2/4/1 1/4/1
f 4/4/1 2/4/1 3/4/1
f 5/4/1 2/4/1 4/4/1
f 6/4/1 2/4/1 5/4/1
f 7/4/1 3/4/1 1/4/1
f 7/3/1 4/3/1 3/3/1
f 8/4/1 5/4/1 4/4/1
f 8/3/1 4/3/1 7/3/1
f 9/3/1 6/3/1 5/3/1
f 9/4/1 5/4/1 8/4/1
f 10/4/1 2/4/1 6/4/1
f 10/3/1 6/3/1 9/3/1
f 11/2/1 8/2/1 7/2/1
f 11/4/1 7/4/1 1/4/1
f 12/4/1 9/4/1 8/4/1
f 12/2/1 8/2/1 11/2/1
f 13/2/1 10/2/1 9/2/1
f 13/4/1 9/4/1 12/4/1
f 14/4/1 2/4/1 10/4/1
f 14/2/1 10/2/1 13/2/1
f 15/4/1 13/4/1 12/4/1
f 15/4/1 12/4/1 11/4/1
f 15/4/1 14/4/1 13/4/1
f 16/4/1 14/4/1 15/4/1
f 17/4/1 15/4/1 11/4/1
f 17/3/1 16/3/1 15/3/1
f 18/4/1 14/4/1 16/4/1
f 18/3/1 16/3/1 17/3/1
f 19/4/1 11/4/1 1/4/1
f 19/4/1 17/4/1 11/4/1
f 20/4/1 17/4/1 19/4/1
f 21/2/1 18/2/1 17/2/1
f 21/4/1 17/4/1 20/4/1
f 22/4/1 14/4/1 18/4/1
f 22/2/1 18/2/1 21/2/1
f 23/3/1 20/3/1 19/3/1
f 23/4/1 19/4/1 1/4/1
f 24/4/1 21/4/1 20/4/1
f 24/3/1 20/3/1 23/3/1
f 24/4/1 22/4/1 21/4/1
f 25/4/1 14/4/1 22/4/1
f 25/4/1 22/4/1 24/4/1
f 26/4/1 2/4/1 14/4/1
f 26/4/1 14/4/1 25/4/1
f 27/4/1 23/4/1 1/4/1
f 27/2/1 24/2/1 23/2/1
f 28/4/1 25/4/1 24/4/1
f 28/2/1 24/2/1 27/2/1
f 29/3/1 26/3/1 25/3/1
f 29/4/1 25/4/1 28/4/1
f 30/4/1 2/4/1 26/4/1
f 30/3/1 26/3/1 29/3/1
f 31/4/1 29/4/1 28/4/1
f 31/4/1 28/4/1 27/4/1
f 32/4/1 29/4/1 31/4/1
f 33/2/1 30/2/1 29/2/1
f 33/4/1 29/4/1 32/4/1
f 34/4/1 2/4/1 30/4/1
f 34/2/1 30/2/1 33/2/1
f 35/3/1 32/3/1 31/3/1
f 35/4/1 31/4/1 27/4/1
f 36/4/1 33/4/1 32/4/1
f 36/3/1 32/3/1 35/3/1
f 36/4/1 34/4/1 33/4/1
f 37/4/1 35/4/1 27/4/1
f 37/2/1 36/2/1 35/2/1
f 38/4/1 34/4/1 36/4/1
f 38/2/1 36/2/1 37/2/1
f 39/4/1 37/4/1 27/4/1
f 39/4/1 38/4/1 37/4/1
f 40/4/1 38/4/1 39/4/1
f 41/4/1 39/4/1 27/4/1
f 41/3/1 40/3/1 39/3/1
f 42/4/1 38/4/1 40/4/1
f 42/3/1 40/3/1 41/3/1
f 43/4/1 41/4/1 27/4/1
f 43/2/1 42/2/1 41/2/1
f 44/4/1 38/4/1 42/4/1
f 44/2/1 42/2/1 43/2/1
f 45/4/1 34/4/1 38/4/1
f 45/4/1 38/4/1 44/4/1
f 45/4/1 44/4/1 43/4/1
f 46/4/1 34/4/1 45/4/1
f 47/4/1 45/4/1 43/4/1
f 48/4/1 45/4/1 47/4/1
f 49/3/1 46/3/1 45/3/1
f 49/4/1 45/4/1 48/4/1
f 50/4/1 34/4/1 46/4/1
f 50/3/1 46/3/1 49/3/1
f 51/3/1 48/3/1 47/3/1
f 51/4/1 47/4/1 43/4/1
f 52/4/1 49/4/1 48/4/1
f 52/3/1 48/3/1 51/3/1
f 53/2/1 50/2/1 49/2/1
f 53/4/1 49/4/1 52/4/1
f 54/4/1 34/4/1 50/4/1
f 54/2/1 50/2/1 53/2/1
f 55/4/1 51/4/1 43/4/1
f 55/2/1 52/2/1 51/2/1
f 56/4/1 53/4/1 52/4/1
f 56/2/1 52/2/1 55/2/1
f 56/4/1 54/4/1 53/4/1
f 57/4/1 43/4/1 27/4/1
f 57/4/1 27/4/1 1/4/1
f 57/4/1 56/4/1 55/4/1
f 57/4/1 55/4/1 43/4/1
f 58/4/1 54/4/1 56/4/1
f 58/4/1 56/4/1 57/4/1
f 58/4/1 34/4/1 54/4/1
f 58/4/1 2/4/1 34/4/1
f 59/4/2 60/4/2 61/4/2
f 61/4/2 60/4/2 62/4/2
f 62/4/2 60/4/2 63/4/2
f 63/4/2 60/4/2 64/4/2
f 59/4/2 61/4/2 65/4/2
f 61/3/2 62/3/2 65/3/2
f 62/4/2 63/4/2 66/4/2
f 65/3/2 62/3/2 66/3/2
f 63/3/2 64/3/2 67/3/2
f 66/4/2 63/4/2 67/4/2
f 64/4/2 60/4/2 68/4/2
f 67/3/2 64/3/2 68/3/2
f 65/2/2 66/2/2 69/2/2
f 59/4/2 65/4/2 69/4/2
f 66/4/2 67/4/2 70/4/2
f 69/2/2 66/2/2 70/2/2
f 67/2/2 68/2/2 71/2/2
f 70/4/2 67/4/2 71/4/2
f 68/4/2 60/4/2 72/4/2
f 71/2/2 68/2/2 72/2/2
f 70/4/2 71/4/2 73/4/2
f 69/4/2 70/4/2 73/4/2
f 71/4/2 72/4/2 73/4/2
f 73/4/2 72/4/2 74/4/2
f 69/4/2 73/4/2 75/4/2
f 73/3/2 74/3/2 75/3/2
f 74/4/2 72/4/2 76/4/2
f 75/3/2 74/3/2 76/3/2
f 59/4/2 69/4/2 77/4/2
f 69/4/2 75/4/2 77/4/2
f 77/4/2 75/4/2 78/4/2
f 75/2/2 76/2/2 79/2/2
f 78/4/2 75/4/2 79/4/2
f 76/4/2 72/4/2 80/4/2
f 79/2/2 76/2/2 80/2/2
f 77/3/2 78/3/2 81/3/2
f 59/4/2 77/4/2 81/4/2
f 78/4/2 79/4/2 82/4/2
f 81/3/2 78/3/2 82/3/2
f 79/4/2 80/4/2 82/4/2
f 80/4/2 72/4/2 83/4/2
f 82/4/2 80/4/2 83/4/2
f 72/4/2 60/4/2 84/4/2
f 83/4/2 72/4/2 84/4/2
f 59/4/2 81/4/2 85/4/2
f 81/2/2 82/2/2 85/2/2
f 82/4/2 83/4/2 86/4/2
f 85/2/2 82/2/2 86/2/2
f 83/3/2 84/3/2 87/3/2
f 86/4/2 83/4/2 87/4/2
f 84/4/2 60/4/2 88/4/2
f 87/3/2 84/3/2 88/3/2
f 86/4/2 87/4/2 89/4/2
f 85/4/2 86/4/2 89/4/2
f 89/4/2 87/4/2 90/4/2
f 87/2/2 88/2/2 91/2/2
f 90/4/2 87/4/2 91/4/2
f 88/4/2 60/4/2 92/4/2
f 91/2/2 88/2/2 92/2/2
f 89/3/2 90/3/2 93/3/2
f 85/4/2 89/4/2 93/4/2
f 90/4/2 91/4/2 94/4/2
f 93/3/2 90/3/2 94/3/2
f 91/4/2 92/4/2 94/4/2
f 85/4/2 93/4/2 95/4/2
f 93/2/2 94/2/2 95/2/2
f 94/4/2 92/4/2 96/4/2
f 95/2/2 94/2/2 96/2/2
f 85/4/2 95/4/2 97/4/2
f 95/4/2 96/4/2 97/4/2
f 97/4/2 96/4/2 98/4/2
f 85/4/2 97/4/2 99/4/2
f 97/3/2 98/3/2 99/3/2
f 98/4/2 96/4/2 100/4/2
f 99/3/2 98/3/2 100/3/2
f 85/4/2 99/4/2 101/4/2
f 99/2/2 100/2/2 101/2/2
f 100/4/2 96/4/2 102/4/2
f 101/2/2 100/2/2 102/2/2
f 96/4/2 92/4/2 103/4/2
f 102/4/2 96/4/2 103/4/2
f 101/4/2 102/4/2 103/4/2
f 103/4/2 92/4/2 104/4/2
f 101/4/2 103/4/2 105/4/2
f 105/4/2 103/4/2 106/4/2
f 103/3/2 104/3/2 107/3/2
f 106/4/2 103/4/2 107/4/2
f 104/4/2 92/4/2 108/4/2
f 107/3/2 104/3/2 108/3/2
f 105/3/2 106/3/2 109/3/2
f 101/4/2 105/4/2 109/4/2
f 106/4/2 107/4/2 110/4/2
f 109/3/2 106/3/2 110/3/2
f 107/2/2 108/2/2 111/2/2
f 110/4/2 107/4/2 111/4/2
f 108/4/2 92/4/2 112/4/2
f 111/2/2 108/2/2 112/2/2
f 101/4/2 109/4/2 113/4/2
f 109/2/2 110/2/2 113/2/2
f 110/4/2 111/4/2 114/4/2
f 113/2/2 110/2/2 114/2/2
f 111/4/2 112/4/2 114/4/2
f 85/4/2 101/4/2 115/4/2
f 59/4/2 85/4/2 115/4/2
f 113/4/2 114/4/2 115/4/2
f 101/4/2 113/4/2 115/4/2
f 114/4/2 112/4/2 116/4/2
f 115/4/2 114/4/2 116/4/2
f 112/4/2 92/4/2 116/4/2
f 92/4/2 60/4/2 116/4/2
f 119/4/3 118/4/3 117/4/3
f 120/4/3 118/4/3 119/4/3
f 121/4/3 118/4/3 120/4/3
f 122/4/3 119/4/3 117/4/3
f 123/4/3 119/4/3 122/4/3
f 124/4/3 119/4/3 123/4/3
f 125/3/3 120/3/3 119/3/3
f 125/2/3 121/2/3 120/2/3
f 126/4/3 118/4/3 121/4/3
f 126/2/3 121/2/3 125/2/3
f 127/4/3 122/4/3 117/4/3
f 128/4/3 122/4/3 127/4/3
f 129/4/3 122/4/3 128/4/3
f 130/3/3 123/3/3 122/3/3
f 130/4/3 122/4/3 129/4/3
f 131/2/3 124/2/3 123/2/3
f 131/3/3 123/3/3 130/3/3
f 132/4/3 119/4/3 124/4/3
f 132/2/3 124/2/3 131/2/3
f 133/3/3 125/3/3 119/3/3
f 133/4/3 119/4/3 132/4/3
f 134/4/3 126/4/3 125/4/3
f 134/3/3 125/3/3 133/3/3
f 135/4/3 127/4/3 117/4/3
f 135/3/3 128/3/3 127/3/3
f 136/2/3 129/2/3 128/2/3
f 136/3/3 128/3/3 135/3/3
f 137/4/3 132/4/3 131/4/3
f 137/2/3 129/2/3 136/2/3
f 137/4/3 131/4/3 130/4/3
f 137/4/3 134/4/3 133/4/3
f 137/4/3 130/4/3 129/4/3
f 137/4/3 133/4/3 132/4/3
f 138/4/3 136/4/3 135/4/3
f 138/4/3 134/4/3 137/4/3
f 138/4/3 137/4/3 136/4/3
f 139/4/3 134/4/3 138/4/3
f 140/4/3 134/4/3 139/4/3
f 141/4/3 118/4/3 126/4/3
f 141/4/3 134/4/3 140/4/3
f 141/4/3 126/4/3 134/4/3
f 142/4/3 118/4/3 141/4/3
f 143/4/3 118/4/3 142/4/3
f 144/3/3 139/3/3 138/3/3
f 144/4/3 138/4/3 135/4/3
f 145/2/3 140/2/3 139/2/3
f 145/3/3 139/3/3 144/3/3
f 146/4/3 141/4/3 140/4/3
f 146/2/3 140/2/3 145/2/3
f 147/3/3 142/3/3 141/3/3
f 147/4/3 141/4/3 146/4/3
f 148/2/3 143/2/3 142/2/3
f 148/3/3 142/3/3 147/3/3
f 149/4/3 118/4/3 143/4/3
f 149/2/3 143/2/3 148/2/3
f 150/4/3 144/4/3 135/4/3
f 150/4/3 148/4/3 147/4/3
f 150/4/3 149/4/3 148/4/3
f 150/4/3 146/4/3 145/4/3
f 150/4/3 145/4/3 144/4/3
f 150/4/3 147/4/3 146/4/3
f 151/4/3 149/4/3 150/4/3
f 152/4/3 149/4/3 151/4/3
f 153/4/3 150/4/3 135/4/3
f 153/3/3 151/3/3 150/3/3
f 154/2/3 152/2/3 151/2/3
f 154/3/3 151/3/3 153/3/3
f 155/4/3 149/4/3 152/4/3
f 155/2/3 152/2/3 154/2/3
f 156/4/3 135/4/3 117/4/3
f 156/4/3 154/4/3 153/4/3
f 156/4/3 155/4/3 154/4/3
f 156/4/3 153/4/3 135/4/3
f 157/4/3 155/4/3 156/4/3
f 158/4/3 155/4/3 157/4/3
f 159/4/3 156/4/3 117/4/3
f 159/3/3 157/3/3 156/3/3
f 160/2/3 158/2/3 157/2/3
f 160/3/3 157/3/3 159/3/3
f 161/4/3 155/4/3 158/4/3
f 161/2/3 158/2/3 160/2/3
f 162/4/3 149/4/3 155/4/3
f 162/4/3 155/4/3 161/4/3
f 162/4/3 161/4/3 160/4/3
f 162/4/3 160/4/3 159/4/3
f 163/4/3 149/4/3 162/4/3
f 164/4/3 149/4/3 163/4/3
f 165/4/3 149/4/3 164/4/3
f 166/4/3 149/4/3 165/4/3
f 167/4/3 149/4/3 166/4/3
f 168/4/3 162/4/3 159/4/3
f 168/3/3 163/3/3 162/3/3
f 169/2/3 164/2/3 163/2/3
f 169/3/3 163/3/3 168/3/3
f 170/4/3 165/4/3 164/4/3
f 170/2/3 164/2/3 169/2/3
f 171/3/3 166/3/3 165/3/3
f 171/4/3 165/4/3 170/4/3
f 172/2/3 167/2/3 166/2/3
f 172/3/3 166/3/3 171/3/3
f 173/4/3 149/4/3 167/4/3
f 173/2/3 167/2/3 172/2/3
f 174/4/3 159/4/3 117/4/3
f 174/4/3 172/4/3 171/4/3
f 174/4/3 173/4/3 172/4/3
f 174/4/3 170/4/3 169/4/3
f 174/4/3 169/4/3 168/4/3
f 174/4/3 168/4/3 159/4/3
f 174/4/3 171/4/3 170/4/3
f 175/4/3 118/4/3 149/4/3
f 175/4/3 173/4/3 174/4/3
f 175/4/3 149/4/3 173/4/3
f 176/4/4 177/4/4 178/4/4
f 178/4/4 177/4/4 179/4/4
f 179/4/4 177/4/4 180/4/4
f 176/4/4 178/4/4 181/4/4
f 181/4/4 178/4/4 182/4/4
f 182/4/4 178/4/4 183/4/4
f 178/3/4 179/3/4 184/3/4
f 179/2/4 180/2/4 184/2/4
f 180/4/4 177/4/4 185/4/4
f 184/2/4 180/2/4 185/2/4
f 176/4/4 181/4/4 186/4/4
f 186/4/4 181/4/4 187/4/4
f 187/4/4 181/4/4 188/4/4
f 181/3/4 182/3/4 189/3/4
f 188/4/4 181/4/4 189/4/4
f 182/2/4 183/2/4 190/2/4
f 189/3/4 182/3/4 190/3/4
f 183/4/4 178/4/4 191/4/4
f 190/2/4 183/2/4 191/2/4
f 178/3/4 184/3/4 192/3/4
f 191/4/4 178/4/4 192/4/4
f 184/4/4 185/4/4 193/4/4
f 192/3/4 184/3/4 193/3/4
f 176/4/4 186/4/4 194/4/4
f 186/3/4 187/3/4 194/3/4
f 187/2/4 188/2/4 195/2/4
f 194/3/4 187/3/4 195/3/4
f 190/4/4 191/4/4 196/4/4
f 195/2/4 188/2/4 196/2/4
f 189/4/4 190/4/4 196/4/4
f 192/4/4 193/4/4 196/4/4
f 188/4/4 189/4/4 196/4/4
f 191/4/4 192/4/4 196/4/4
f 194/4/4 195/4/4 197/4/4
f 196/4/4 193/4/4 197/4/4
f 195/4/4 196/4/4 197/4/4
f 197/4/4 193/4/4 198/4/4
f 198/4/4 193/4/4 199/4/4
f 185/4/4 177/4/4 200/4/4
f 199/4/4 193/4/4 200/4/4
f 193/4/4 185/4/4 200/4/4
f 200/4/4 177/4/4 201/4/4
f 201/4/4 177/4/4 202/4/4
f 197/3/4 198/3/4 203/3/4
f 194/4/4 197/4/4 203/4/4
f 198/2/4 199/2/4 204/2/4
f 203/3/4 198/3/4 204/3/4
f 199/4/4 200/4/4 205/4/4
f 204/2/4 199/2/4 205/2/4
f 200/3/4 201/3/4 206/3/4
f 205/4/4 200/4/4 206/4/4
f 201/2/4 202/2/4 207/2/4
f 206/3/4 201/3/4 207/3/4
f 202/4/4 177/4/4 208/4/4
f 207/2/4 202/2/4 208/2/4
f 194/4/4 203/4/4 209/4/4
f 206/4/4 207/4/4 209/4/4
f 207/4/4 208/4/4 209/4/4
f 204/4/4 205/4/4 209/4/4
f 203/4/4 204/4/4 209/4/4
f 205/4/4 206/4/4 209/4/4
f 209/4/4 208/4/4 210/4/4
f 210/4/4 208/4/4 211/4/4
f 194/4/4 209/4/4 212/4/4
f 209/3/4 210/3/4 212/3/4
f 210/2/4 211/2/4 213/2/4
f 212/3/4 210/3/4 213/3/4
f 211/4/4 208/4/4 214/4/4
f 213/2/4 211/2/4 214/2/4
f 176/4/4 194/4/4 215/4/4
f 212/4/4 213/4/4 215/4/4
f 213/4/4 214/4/4 215/4/4
f 194/4/4 212/4/4 215/4/4
f 215/4/4 214/4/4 216/4/4
f 216/4/4 214/4/4 217/4/4
f 176/4/4 215/4/4 218/4/4
f 215/3/4 216/3/4 218/3/4
f 216/2/4 217/2/4 219/2/4
f 218/3/4 216/3/4 219/3/4
f 217/4/4 214/4/4 220/4/4
f 219/2/4 217/2/4 220/2/4
f 214/4/4 208/4/4 221/4/4
f 220/4/4 214/4/4 221/4/4
f 219/4/4 220/4/4 221/4/4
f 218/4/4 219/4/4 221/4/4
f 221/4/4 208/4/4 222/4/4
f 222/4/4 208/4/4 223/4/4
f 223/4/4 208/4/4 224/4/4
f 224/4/4 208/4/4 225/4/4
f 225/4/4 208/4/4 226/4/4
f 218/4/4 221/4/4 227/4/4
f 221/3/4 222/3/4 227/3/4
f 222/2/4 223/2/4 228/2/4
f 227/3/4 222/3/4 228/3/4
f 223/4/4 224/4/4 229/4/4
f 228/2/4 223/2/4 229/2/4
f 224/3/4 225/3/4 230/3/4
f 229/4/4 224/4/4 230/4/4
f 225/2/4 226/2/4 231/2/4
f 230/3/4 225/3/4 231/3/4
f 226/4/4 208/4/4 232/4/4
f 231/2/4 226/2/4 232/2/4
f 176/4/4 218/4/4 233/4/4
f 230/4/4 231/4/4 233/4/4
f 231/4/4 232/4/4 233/4/4
f 228/4/4 229/4/4 233/4/4
f 227/4/4 228/4/4 233/4/4
f 218/4/4 227/4/4 233/4/4
f 229/4/4 230/4/4 233/4/4
f 208/4/4 177/4/4 234/4/4
f 233/4/4 232/4/4 234/4/4
f 232/4/4 208/4/4 234/4/4
f 237/4/5 236/4/5 235/4/5
f 238/4/5 236/4/5 237/4/5
f 239/4/6 240/4/6 241/4/6
f 241/4/6 240/4/6 242/4/6
