# MagicaVoxel @ Ephtracy

# group
o 

# material
mtllib tierra cerezo 2 esquinas.mtl
usemtl palette

# normals
vn -1 0 0
vn 1 0 0
vn 0 0 1
vn 0 0 -1
vn 0 -1 0
vn 0 1 0

# texcoords
vt 0.494141 0.5
vt 0.669922 0.5

# verts
v -1 0 0.7
v -1 0 -1
v -1 0.9 0.7
v -1 0.9 -1
v -1 1 0.7
v -1 1 -1
v -1 1.9 0.7
v -1 1.9 -1
v -1 2 0.7
v -1 2 -1
v -0.9 0 0.8
v -0.9 0 0.7
v -0.9 0.9 0.8
v -0.9 0.9 0.7
v -0.9 1 0.8
v -0.9 1 0.7
v -0.9 1.9 0.8
v -0.9 1.9 0.7
v -0.9 2 0.8
v -0.9 2 0.7
v -0.8 0 0.9
v -0.8 0 0.8
v -0.8 0.9 0.9
v -0.8 0.9 0.8
v -0.8 1 0.9
v -0.8 1 0.8
v -0.8 1.9 0.9
v -0.8 1.9 0.8
v -0.8 2 0.9
v -0.8 2 0.8
v -0.7 0 1
v -0.7 0 0.9
v -0.7 0.9 1
v -0.7 0.9 0.9
v -0.7 1 1
v -0.7 1 0.9
v -0.7 1.9 1
v -0.7 1.9 0.9
v -0.7 2 1
v -0.7 2 0.9
v 0.7 0 1
v 0.7 0 0.9
v 0.7 0.9 1
v 0.7 0.9 0.9
v 0.7 1 1
v 0.7 1 0.9
v 0.7 1.9 1
v 0.7 1.9 0.9
v 0.7 2 1
v 0.7 2 0.9
v 0.8 0 0.9
v 0.8 0 0.8
v 0.8 0.9 0.9
v 0.8 0.9 0.8
v 0.8 1 0.9
v 0.8 1 0.8
v 0.8 1.9 0.9
v 0.8 1.9 0.8
v 0.8 2 0.9
v 0.8 2 0.8
v 0.9 0 0.8
v 0.9 0 0.7
v 0.9 0.9 0.8
v 0.9 0.9 0.7
v 0.9 1 0.8
v 0.9 1 0.7
v 0.9 1.9 0.8
v 0.9 1.9 0.7
v 0.9 2 0.8
v 0.9 2 0.7
v 1 0 0.7
v 1 0 -1
v 1 0.9 0.7
v 1 0.9 -1
v 1 1 0.7
v 1 1 -1
v 1 1.9 0.7
v 1 1.9 -1
v 1 2 0.7
v 1 2 -1
v -0.7 0 1
v -0.7 0.9 1
v -0.7 1 1
v -0.7 1.9 1
v -0.7 2 1
v 0.7 0 1
v 0.7 0.9 1
v 0.7 1 1
v 0.7 1.9 1
v 0.7 2 1
v -0.8 0 0.9
v -0.8 0.9 0.9
v -0.8 1 0.9
v -0.8 1.9 0.9
v -0.8 2 0.9
v -0.7 0 0.9
v -0.7 0.9 0.9
v -0.7 1 0.9
v -0.7 1.9 0.9
v -0.7 2 0.9
v 0.7 0 0.9
v 0.7 0.9 0.9
v 0.7 1 0.9
v 0.7 1.9 0.9
v 0.7 2 0.9
v 0.8 0 0.9
v 0.8 0.9 0.9
v 0.8 1 0.9
v 0.8 1.9 0.9
v 0.8 2 0.9
v -0.9 0 0.8
v -0.9 0.9 0.8
v -0.9 1 0.8
v -0.9 1.9 0.8
v -0.9 2 0.8
v -0.8 0 0.8
v -0.8 0.9 0.8
v -0.8 1 0.8
v -0.8 1.9 0.8
v -0.8 2 0.8
v 0.8 0 0.8
v 0.8 0.9 0.8
v 0.8 1 0.8
v 0.8 1.9 0.8
v 0.8 2 0.8
v 0.9 0 0.8
v 0.9 0.9 0.8
v 0.9 1 0.8
v 0.9 1.9 0.8
v 0.9 2 0.8
v -1 0 0.7
v -1 0.9 0.7
v -1 1 0.7
v -1 1.9 0.7
v -1 2 0.7
v -0.9 0 0.7
v -0.9 0.9 0.7
v -0.9 1 0.7
v -0.9 1.9 0.7
v -0.9 2 0.7
v 0.9 0 0.7
v 0.9 0.9 0.7
v 0.9 1 0.7
v 0.9 1.9 0.7
v 0.9 2 0.7
v 1 0 0.7
v 1 0.9 0.7
v 1 1 0.7
v 1 1.9 0.7
v 1 2 0.7
v -1 0 -1
v -1 0.9 -1
v -1 1 -1
v -1 1.9 -1
v -1 2 -1
v 1 0 -1
v 1 0.9 -1
v 1 1 -1
v 1 1.9 -1
v 1 2 -1
v -0.7 0 1
v 0.7 0 1
v -0.8 0 0.9
v -0.7 0 0.9
v 0.7 0 0.9
v 0.8 0 0.9
v -0.9 0 0.8
v -0.8 0 0.8
v 0.8 0 0.8
v 0.9 0 0.8
v -1 0 0.7
v -0.9 0 0.7
v 0.9 0 0.7
v 1 0 0.7
v -1 0 -1
v 1 0 -1
v -0.7 2 1
v 0.7 2 1
v -0.8 2 0.9
v -0.7 2 0.9
v 0.7 2 0.9
v 0.8 2 0.9
v -0.9 2 0.8
v -0.8 2 0.8
v 0.8 2 0.8
v 0.9 2 0.8
v -1 2 0.7
v -0.9 2 0.7
v 0.9 2 0.7
v 1 2 0.7
v -1 2 -1
v 1 2 -1

# faces
f 3/1/1 2/1/1 1/1/1
f 4/1/1 2/1/1 3/1/1
f 5/2/1 4/2/1 3/2/1
f 6/2/1 4/2/1 5/2/1
f 7/1/1 6/1/1 5/1/1
f 8/1/1 6/1/1 7/1/1
f 9/2/1 8/2/1 7/2/1
f 10/2/1 8/2/1 9/2/1
f 13/1/1 12/1/1 11/1/1
f 14/1/1 12/1/1 13/1/1
f 15/2/1 14/2/1 13/2/1
f 16/2/1 14/2/1 15/2/1
f 17/1/1 16/1/1 15/1/1
f 18/1/1 16/1/1 17/1/1
f 19/2/1 18/2/1 17/2/1
f 20/2/1 18/2/1 19/2/1
f 23/1/1 22/1/1 21/1/1
f 24/1/1 22/1/1 23/1/1
f 25/2/1 24/2/1 23/2/1
f 26/2/1 24/2/1 25/2/1
f 27/1/1 26/1/1 25/1/1
f 28/1/1 26/1/1 27/1/1
f 29/2/1 28/2/1 27/2/1
f 30/2/1 28/2/1 29/2/1
f 33/1/1 32/1/1 31/1/1
f 34/1/1 32/1/1 33/1/1
f 35/2/1 34/2/1 33/2/1
f 36/2/1 34/2/1 35/2/1
f 37/1/1 36/1/1 35/1/1
f 38/1/1 36/1/1 37/1/1
f 39/2/1 38/2/1 37/2/1
f 40/2/1 38/2/1 39/2/1
f 41/1/2 42/1/2 43/1/2
f 43/1/2 42/1/2 44/1/2
f 43/2/2 44/2/2 45/2/2
f 45/2/2 44/2/2 46/2/2
f 45/1/2 46/1/2 47/1/2
f 47/1/2 46/1/2 48/1/2
f 47/2/2 48/2/2 49/2/2
f 49/2/2 48/2/2 50/2/2
f 51/1/2 52/1/2 53/1/2
f 53/1/2 52/1/2 54/1/2
f 53/2/2 54/2/2 55/2/2
f 55/2/2 54/2/2 56/2/2
f 55/1/2 56/1/2 57/1/2
f 57/1/2 56/1/2 58/1/2
f 57/2/2 58/2/2 59/2/2
f 59/2/2 58/2/2 60/2/2
f 61/1/2 62/1/2 63/1/2
f 63/1/2 62/1/2 64/1/2
f 63/2/2 64/2/2 65/2/2
f 65/2/2 64/2/2 66/2/2
f 65/1/2 66/1/2 67/1/2
f 67/1/2 66/1/2 68/1/2
f 67/2/2 68/2/2 69/2/2
f 69/2/2 68/2/2 70/2/2
f 71/1/2 72/1/2 73/1/2
f 73/1/2 72/1/2 74/1/2
f 73/2/2 74/2/2 75/2/2
f 75/2/2 74/2/2 76/2/2
f 75/1/2 76/1/2 77/1/2
f 77/1/2 76/1/2 78/1/2
f 77/2/2 78/2/2 79/2/2
f 79/2/2 78/2/2 80/2/2
f 86/1/3 82/1/3 81/1/3
f 87/2/3 83/2/3 82/2/3
f 87/1/3 82/1/3 86/1/3
f 88/1/3 84/1/3 83/1/3
f 88/2/3 83/2/3 87/2/3
f 89/2/3 85/2/3 84/2/3
f 89/1/3 84/1/3 88/1/3
f 90/2/3 85/2/3 89/2/3
f 96/1/3 92/1/3 91/1/3
f 97/2/3 93/2/3 92/2/3
f 97/1/3 92/1/3 96/1/3
f 98/1/3 94/1/3 93/1/3
f 98/2/3 93/2/3 97/2/3
f 99/2/3 95/2/3 94/2/3
f 99/1/3 94/1/3 98/1/3
f 100/2/3 95/2/3 99/2/3
f 106/1/3 102/1/3 101/1/3
f 107/2/3 103/2/3 102/2/3
f 107/1/3 102/1/3 106/1/3
f 108/1/3 104/1/3 103/1/3
f 108/2/3 103/2/3 107/2/3
f 109/2/3 105/2/3 104/2/3
f 109/1/3 104/1/3 108/1/3
f 110/2/3 105/2/3 109/2/3
f 116/1/3 112/1/3 111/1/3
f 117/2/3 113/2/3 112/2/3
f 117/1/3 112/1/3 116/1/3
f 118/1/3 114/1/3 113/1/3
f 118/2/3 113/2/3 117/2/3
f 119/2/3 115/2/3 114/2/3
f 119/1/3 114/1/3 118/1/3
f 120/2/3 115/2/3 119/2/3
f 126/1/3 122/1/3 121/1/3
f 127/2/3 123/2/3 122/2/3
f 127/1/3 122/1/3 126/1/3
f 128/1/3 124/1/3 123/1/3
f 128/2/3 123/2/3 127/2/3
f 129/2/3 125/2/3 124/2/3
f 129/1/3 124/1/3 128/1/3
f 130/2/3 125/2/3 129/2/3
f 136/1/3 132/1/3 131/1/3
f 137/2/3 133/2/3 132/2/3
f 137/1/3 132/1/3 136/1/3
f 138/1/3 134/1/3 133/1/3
f 138/2/3 133/2/3 137/2/3
f 139/2/3 135/2/3 134/2/3
f 139/1/3 134/1/3 138/1/3
f 140/2/3 135/2/3 139/2/3
f 146/1/3 142/1/3 141/1/3
f 147/2/3 143/2/3 142/2/3
f 147/1/3 142/1/3 146/1/3
f 148/1/3 144/1/3 143/1/3
f 148/2/3 143/2/3 147/2/3
f 149/2/3 145/2/3 144/2/3
f 149/1/3 144/1/3 148/1/3
f 150/2/3 145/2/3 149/2/3
f 151/1/4 152/1/4 156/1/4
f 152/2/4 153/2/4 157/2/4
f 156/1/4 152/1/4 157/1/4
f 153/1/4 154/1/4 158/1/4
f 157/2/4 153/2/4 158/2/4
f 154/2/4 155/2/4 159/2/4
f 158/1/4 154/1/4 159/1/4
f 159/2/4 155/2/4 160/2/4
f 164/1/5 162/1/5 161/1/5
f 165/1/5 162/1/5 164/1/5
f 168/1/5 164/1/5 163/1/5
f 168/1/5 166/1/5 165/1/5
f 168/1/5 165/1/5 164/1/5
f 169/1/5 166/1/5 168/1/5
f 172/1/5 168/1/5 167/1/5
f 172/1/5 170/1/5 169/1/5
f 172/1/5 169/1/5 168/1/5
f 173/1/5 170/1/5 172/1/5
f 175/1/5 172/1/5 171/1/5
f 175/1/5 174/1/5 173/1/5
f 175/1/5 173/1/5 172/1/5
f 176/1/5 174/1/5 175/1/5
f 177/2/6 178/2/6 180/2/6
f 180/2/6 178/2/6 181/2/6
f 179/2/6 180/2/6 184/2/6
f 181/2/6 182/2/6 184/2/6
f 180/2/6 181/2/6 184/2/6
f 184/2/6 182/2/6 185/2/6
f 183/2/6 184/2/6 188/2/6
f 185/2/6 186/2/6 188/2/6
f 184/2/6 185/2/6 188/2/6
f 188/2/6 186/2/6 189/2/6
f 187/2/6 188/2/6 191/2/6
f 189/2/6 190/2/6 191/2/6
f 188/2/6 189/2/6 191/2/6
f 191/2/6 190/2/6 192/2/6
