# Export of Cubik Model: FloresPlaya2
# Designed by Ihton with Cubik Studio - https://cubik.studio
# from Cubik OBJ Exporter v1.0
mtllib FloresPlaya2.mtl
v -10.56 3.2 -6.559999 0.8313726 0.9529412 0.8784314
v -10.4 3.2 -6.559999 0.8313726 0.9529412 0.8784314
v -10.4 3.2 -6.4 0.8313726 0.9529412 0.8784314
v -10.56 3.2 -6.4 0.8313726 0.9529412 0.8784314
v -10.4 3.52 -6.559999 0.8313726 0.9529412 0.8784314
v -10.56 3.52 -6.559999 0.8313726 0.9529412 0.8784314
v -10.56 3.52 -6.4 0.8313726 0.9529412 0.8784314
v -10.4 3.52 -6.4 0.8313726 0.9529412 0.8784314
v -10.4 3.52 -6.4 0.8313726 0.9529412 0.8784314
v -10.56 3.52 -6.4 0.8313726 0.9529412 0.8784314
v -10.56 3.2 -6.4 0.8313726 0.9529412 0.8784314
v -10.4 3.2 -6.4 0.8313726 0.9529412 0.8784314
v -10.56 3.52 -6.559999 0.8313726 0.9529412 0.8784314
v -10.4 3.52 -6.559999 0.8313726 0.9529412 0.8784314
v -10.4 3.2 -6.559999 0.8313726 0.9529412 0.8784314
v -10.56 3.2 -6.559999 0.8313726 0.9529412 0.8784314
v -10.4 3.52 -6.559999 0.8313726 0.9529412 0.8784314
v -10.4 3.52 -6.4 0.8313726 0.9529412 0.8784314
v -10.4 3.2 -6.4 0.8313726 0.9529412 0.8784314
v -10.4 3.2 -6.559999 0.8313726 0.9529412 0.8784314
v -10.56 3.52 -6.4 0.8313726 0.9529412 0.8784314
v -10.56 3.52 -6.559999 0.8313726 0.9529412 0.8784314
v -10.56 3.2 -6.559999 0.8313726 0.9529412 0.8784314
v -10.56 3.2 -6.4 0.8313726 0.9529412 0.8784314
vn 0 -1 0
vn 0 1 0
vn 0 0 1
vn 0 0 -1
vn 1 0 0
vn -1 0 0
vt 0.125 0.328125
vt 0.109375 0.328125
vt 0.109375 0.3125
vt 0.125 0.3125
vt 0 0.4375
vt 0.015625 0.4375
vt 0.015625 0.421875
vt 0 0.421875
vt 0.015625 0.40625
vt 0.03125 0.40625
vt 0.03125 0.375
vt 0.015625 0.375
vt 0.046875 0.40625
vt 0.046875 0.375
vt 0.0625 0.40625
vt 0.0625 0.375
vt 0.078125 0.40625
vt 0.078125 0.375
v -10.56 3.36 -6.72 0.9843137 0.6784314 0.8196079
v -10.4 3.36 -6.72 0.9843137 0.6784314 0.8196079
v -10.4 3.36 -6.56 0.9843137 0.6784314 0.8196079
v -10.56 3.36 -6.56 0.9843137 0.6784314 0.8196079
v -10.4 3.84 -6.72 0.9843137 0.6784314 0.8196079
v -10.56 3.84 -6.72 0.9843137 0.6784314 0.8196079
v -10.56 3.84 -6.56 0.9843137 0.6784314 0.8196079
v -10.4 3.84 -6.56 0.9843137 0.6784314 0.8196079
v -10.4 3.84 -6.56 0.9843137 0.6784314 0.8196079
v -10.56 3.84 -6.56 0.9843137 0.6784314 0.8196079
v -10.56 3.36 -6.56 0.9843137 0.6784314 0.8196079
v -10.4 3.36 -6.56 0.9843137 0.6784314 0.8196079
v -10.56 3.84 -6.72 0.9843137 0.6784314 0.8196079
v -10.4 3.84 -6.72 0.9843137 0.6784314 0.8196079
v -10.4 3.36 -6.72 0.9843137 0.6784314 0.8196079
v -10.56 3.36 -6.72 0.9843137 0.6784314 0.8196079
v -10.4 3.84 -6.72 0.9843137 0.6784314 0.8196079
v -10.4 3.84 -6.56 0.9843137 0.6784314 0.8196079
v -10.4 3.36 -6.56 0.9843137 0.6784314 0.8196079
v -10.4 3.36 -6.72 0.9843137 0.6784314 0.8196079
v -10.56 3.84 -6.56 0.9843137 0.6784314 0.8196079
v -10.56 3.84 -6.72 0.9843137 0.6784314 0.8196079
v -10.56 3.36 -6.72 0.9843137 0.6784314 0.8196079
v -10.56 3.36 -6.56 0.9843137 0.6784314 0.8196079
vt 0.015625 0.484375
vt 0 0.484375
vt 0 0.46875
vt 0.015625 0.46875
vt 0 0.5
vt 0.015625 0.5
vt 0.0625 0.3125
vt 0.078125 0.3125
vt 0.078125 0.265625
vt 0.0625 0.265625
vt 0.09375 0.3125
vt 0.09375 0.265625
vt 0.109375 0.265625
vt 0.125 0.265625
v -10.88 3.2 -6.24 0.9882353 0.8470588 0.9803922
v -10.72 3.2 -6.24 0.9882353 0.8470588 0.9803922
v -10.72 3.2 -6.08 0.9882353 0.8470588 0.9803922
v -10.88 3.2 -6.08 0.9882353 0.8470588 0.9803922
v -10.72 3.52 -6.24 0.9882353 0.8470588 0.9803922
v -10.88 3.52 -6.24 0.9882353 0.8470588 0.9803922
v -10.88 3.52 -6.08 0.9882353 0.8470588 0.9803922
v -10.72 3.52 -6.08 0.9882353 0.8470588 0.9803922
v -10.72 3.52 -6.08 0.9882353 0.8470588 0.9803922
v -10.88 3.52 -6.08 0.9882353 0.8470588 0.9803922
v -10.88 3.2 -6.08 0.9882353 0.8470588 0.9803922
v -10.72 3.2 -6.08 0.9882353 0.8470588 0.9803922
v -10.88 3.52 -6.24 0.9882353 0.8470588 0.9803922
v -10.72 3.52 -6.24 0.9882353 0.8470588 0.9803922
v -10.72 3.2 -6.24 0.9882353 0.8470588 0.9803922
v -10.88 3.2 -6.24 0.9882353 0.8470588 0.9803922
v -10.72 3.52 -6.24 0.9882353 0.8470588 0.9803922
v -10.72 3.52 -6.08 0.9882353 0.8470588 0.9803922
v -10.72 3.2 -6.08 0.9882353 0.8470588 0.9803922
v -10.72 3.2 -6.24 0.9882353 0.8470588 0.9803922
v -10.88 3.52 -6.08 0.9882353 0.8470588 0.9803922
v -10.88 3.52 -6.24 0.9882353 0.8470588 0.9803922
v -10.88 3.2 -6.24 0.9882353 0.8470588 0.9803922
v -10.88 3.2 -6.08 0.9882353 0.8470588 0.9803922
vt 0.015625 0.515625
vt 0 0.515625
vt 0.09375 0.328125
vt 0.09375 0.40625
vt 0.09375 0.375
vt 0.109375 0.40625
vt 0.109375 0.375
vt 0.125 0.40625
vt 0.125 0.375
vt 0 0.40625
vt 0 0.375
v -10.88 3.36 -6.08 0.8980392 0.6156863 0.7490196
v -10.72 3.36 -6.08 0.8980392 0.6156863 0.7490196
v -10.72 3.36 -5.92 0.8980392 0.6156863 0.7490196
v -10.88 3.36 -5.92 0.8980392 0.6156863 0.7490196
v -10.72 3.84 -6.08 0.8980392 0.6156863 0.7490196
v -10.88 3.84 -6.08 0.8980392 0.6156863 0.7490196
v -10.88 3.84 -5.92 0.8980392 0.6156863 0.7490196
v -10.72 3.84 -5.92 0.8980392 0.6156863 0.7490196
v -10.72 3.84 -5.92 0.8980392 0.6156863 0.7490196
v -10.88 3.84 -5.92 0.8980392 0.6156863 0.7490196
v -10.88 3.36 -5.92 0.8980392 0.6156863 0.7490196
v -10.72 3.36 -5.92 0.8980392 0.6156863 0.7490196
v -10.88 3.84 -6.08 0.8980392 0.6156863 0.7490196
v -10.72 3.84 -6.08 0.8980392 0.6156863 0.7490196
v -10.72 3.36 -6.08 0.8980392 0.6156863 0.7490196
v -10.88 3.36 -6.08 0.8980392 0.6156863 0.7490196
v -10.72 3.84 -6.08 0.8980392 0.6156863 0.7490196
v -10.72 3.84 -5.92 0.8980392 0.6156863 0.7490196
v -10.72 3.36 -5.92 0.8980392 0.6156863 0.7490196
v -10.72 3.36 -6.08 0.8980392 0.6156863 0.7490196
v -10.88 3.84 -5.92 0.8980392 0.6156863 0.7490196
v -10.88 3.84 -6.08 0.8980392 0.6156863 0.7490196
v -10.88 3.36 -6.08 0.8980392 0.6156863 0.7490196
v -10.88 3.36 -5.92 0.8980392 0.6156863 0.7490196
vt 0.03125 0.421875
vt 0.015625 0.328125
vt 0 0.328125
vt 0.03125 0.328125
vt 0.046875 0.328125
vt 0.0625 0.328125
v -11.04 3.2 -6.559999 0.9333333 0.6117647 0.6901961
v -10.88 3.2 -6.559999 0.9333333 0.6117647 0.6901961
v -10.88 3.2 -6.4 0.9333333 0.6117647 0.6901961
v -11.04 3.2 -6.4 0.9333333 0.6117647 0.6901961
v -10.88 3.68 -6.559999 0.9333333 0.6117647 0.6901961
v -11.04 3.68 -6.559999 0.9333333 0.6117647 0.6901961
v -11.04 3.68 -6.4 0.9333333 0.6117647 0.6901961
v -10.88 3.68 -6.4 0.9333333 0.6117647 0.6901961
v -10.88 3.68 -6.4 0.9333333 0.6117647 0.6901961
v -11.04 3.68 -6.4 0.9333333 0.6117647 0.6901961
v -11.04 3.2 -6.4 0.9333333 0.6117647 0.6901961
v -10.88 3.2 -6.4 0.9333333 0.6117647 0.6901961
v -11.04 3.68 -6.559999 0.9333333 0.6117647 0.6901961
v -10.88 3.68 -6.559999 0.9333333 0.6117647 0.6901961
v -10.88 3.2 -6.559999 0.9333333 0.6117647 0.6901961
v -11.04 3.2 -6.559999 0.9333333 0.6117647 0.6901961
v -10.88 3.68 -6.559999 0.9333333 0.6117647 0.6901961
v -10.88 3.68 -6.4 0.9333333 0.6117647 0.6901961
v -10.88 3.2 -6.4 0.9333333 0.6117647 0.6901961
v -10.88 3.2 -6.559999 0.9333333 0.6117647 0.6901961
v -11.04 3.68 -6.4 0.9333333 0.6117647 0.6901961
v -11.04 3.68 -6.559999 0.9333333 0.6117647 0.6901961
v -11.04 3.2 -6.559999 0.9333333 0.6117647 0.6901961
v -11.04 3.2 -6.4 0.9333333 0.6117647 0.6901961
vt 0.078125 0.328125
v -11.36 3.2 -6.4 0.7568628 0.6392157 0.8862745
v -11.2 3.2 -6.4 0.7568628 0.6392157 0.8862745
v -11.2 3.2 -6.24 0.7568628 0.6392157 0.8862745
v -11.36 3.2 -6.24 0.7568628 0.6392157 0.8862745
v -11.2 3.84 -6.4 0.7568628 0.6392157 0.8862745
v -11.36 3.84 -6.4 0.7568628 0.6392157 0.8862745
v -11.36 3.84 -6.24 0.7568628 0.6392157 0.8862745
v -11.2 3.84 -6.24 0.7568628 0.6392157 0.8862745
v -11.2 3.84 -6.24 0.7568628 0.6392157 0.8862745
v -11.36 3.84 -6.24 0.7568628 0.6392157 0.8862745
v -11.36 3.2 -6.24 0.7568628 0.6392157 0.8862745
v -11.2 3.2 -6.24 0.7568628 0.6392157 0.8862745
v -11.36 3.84 -6.4 0.7568628 0.6392157 0.8862745
v -11.2 3.84 -6.4 0.7568628 0.6392157 0.8862745
v -11.2 3.2 -6.4 0.7568628 0.6392157 0.8862745
v -11.36 3.2 -6.4 0.7568628 0.6392157 0.8862745
v -11.2 3.84 -6.4 0.7568628 0.6392157 0.8862745
v -11.2 3.84 -6.24 0.7568628 0.6392157 0.8862745
v -11.2 3.2 -6.24 0.7568628 0.6392157 0.8862745
v -11.2 3.2 -6.4 0.7568628 0.6392157 0.8862745
v -11.36 3.84 -6.24 0.7568628 0.6392157 0.8862745
v -11.36 3.84 -6.4 0.7568628 0.6392157 0.8862745
v -11.36 3.2 -6.4 0.7568628 0.6392157 0.8862745
v -11.36 3.2 -6.24 0.7568628 0.6392157 0.8862745
vt 0.015625 0.453125
vt 0 0.453125
vt 0.03125 0.265625
vt 0.015625 0.265625
vt 0.046875 0.265625
vt 0 0.265625
g Element #1
usemtl Element
f 1/1/1 2/2/1 4/4/1
f 2/2/1 3/3/1 4/4/1
f 5/5/2 6/6/2 8/8/2
f 6/6/2 7/7/2 8/8/2
f 9/9/3 10/10/3 12/12/3
f 10/10/3 11/11/3 12/12/3
f 13/13/4 14/10/4 16/14/4
f 14/10/4 15/11/4 16/14/4
f 17/15/5 18/13/5 20/16/5
f 18/13/5 19/14/5 20/16/5
f 21/15/6 22/17/6 24/16/6
f 22/17/6 23/18/6 24/16/6
g Element #2
usemtl Element
f 25/19/1 26/20/1 28/22/1
f 26/20/1 27/21/1 28/22/1
f 29/23/2 30/24/2 32/20/2
f 30/24/2 31/19/2 32/20/2
f 33/25/3 34/26/3 36/28/3
f 34/26/3 35/27/3 36/28/3
f 37/29/4 38/26/4 40/30/4
f 38/26/4 39/27/4 40/30/4
f 41/3/5 42/29/5 44/31/5
f 42/29/5 43/30/5 44/31/5
f 45/3/6 46/4/6 48/31/6
f 46/4/6 47/32/6 48/31/6
g Element #3
usemtl Element
f 49/33/1 50/34/1 52/24/1
f 50/34/1 51/23/1 52/24/1
f 53/35/2 54/2/2 56/29/2
f 54/2/2 55/3/2 56/29/2
f 57/17/3 58/36/3 60/18/3
f 58/36/3 59/37/3 60/18/3
f 61/38/4 62/36/4 64/39/4
f 62/36/4 63/37/4 64/39/4
f 65/40/5 66/38/5 68/41/5
f 66/38/5 67/39/5 68/41/5
f 69/42/6 70/9/6 72/43/6
f 70/9/6 71/12/6 72/43/6
g Element #4
usemtl Element
f 73/44/1 74/7/1 76/10/1
f 74/7/1 75/9/1 76/10/1
f 77/8/2 78/7/2 80/42/2
f 78/7/2 79/9/2 80/42/2
f 81/43/3 82/12/3 84/46/3
f 82/12/3 83/45/3 84/46/3
f 85/11/4 86/12/4 88/47/4
f 86/12/4 87/45/4 88/47/4
f 89/14/5 90/11/5 92/48/5
f 90/11/5 91/47/5 92/48/5
f 93/14/6 94/16/6 96/48/6
f 94/16/6 95/49/6 96/48/6
g Element #5
usemtl Element
f 97/50/1 98/49/1 100/26/1
f 98/49/1 99/25/1 100/26/1
f 101/50/2 102/35/2 104/26/2
f 102/35/2 103/29/2 104/26/2
f 105/16/3 106/18/3 108/49/3
f 106/18/3 107/50/3 108/49/3
f 109/37/4 110/18/4 112/35/4
f 110/18/4 111/50/4 112/35/4
f 113/39/5 114/37/5 116/2/5
f 114/37/5 115/35/5 116/2/5
f 117/39/6 118/41/6 120/2/6
f 118/41/6 119/1/6 120/2/6
g Element #6
usemtl Element
f 121/51/1 122/52/1 124/6/1
f 122/52/1 123/5/1 124/6/1
f 125/21/2 126/22/2 128/52/2
f 126/22/2 127/51/2 128/52/2
f 129/45/3 130/47/3 132/54/3
f 130/47/3 131/53/3 132/54/3
f 133/48/4 134/47/4 136/55/4
f 134/47/4 135/53/4 136/55/4
f 137/49/5 138/48/5 140/28/5
f 138/48/5 139/55/5 140/28/5
f 141/46/6 142/45/6 144/56/6
f 142/45/6 143/54/6 144/56/6
