# Blender v2.93.5 OBJ File: ''
# www.blender.org
mtllib Model2.mtl
o Model2
v 0.500000 0.797741 0.400000
v 0.500000 -0.002260 0.400000
v 0.700000 -0.002260 0.400000
v 0.700000 0.997740 0.400000
v -1.000000 0.797741 0.400000
v -1.000000 0.997740 0.400000
v 0.700000 0.797741 -0.200000
v 0.500000 -0.002260 -0.200000
v 0.700000 -0.002260 -0.200000
v 0.500000 0.797741 -0.200000
v 0.700000 -0.002260 0.200000
v 0.500000 -0.002260 0.200000
v 0.700000 0.797741 0.200000
v 0.500000 0.797741 0.200000
v 0.700000 -0.002260 -0.400000
v 0.500000 -0.002260 -0.400000
v 0.500000 0.797741 -0.400000
v 0.700000 0.997740 -0.400000
v -1.000000 0.797741 -0.400000
v -1.000000 0.997740 -0.400000
v 0.700000 -0.002260 0.200000
v 0.700000 0.997740 0.400000
v 0.700000 -0.002260 0.400000
v 0.700000 0.797741 0.200000
v 0.700000 0.797741 -0.200000
v 0.700000 -0.002260 -0.400000
v 0.700000 -0.002260 -0.200000
v 0.700000 0.997740 -0.400000
v 0.500000 -0.002260 0.400000
v 0.500000 0.797741 0.400000
v 0.500000 -0.002260 0.200000
v 0.500000 0.797741 0.200000
v 0.500000 -0.002260 -0.200000
v 0.500000 0.797741 -0.200000
v 0.500000 -0.002260 -0.400000
v 0.500000 0.797741 -0.400000
v -1.000000 0.797741 0.400000
v -1.000000 0.997740 0.400000
v -1.000000 0.897740 0.200000
v -1.000000 0.997740 0.200000
v -1.000000 0.897740 -0.200000
v -1.000000 0.997740 -0.200000
v -1.000000 0.797741 -0.400000
v -1.000000 0.997740 -0.400000
v 0.500000 -0.002260 0.400000
v 0.700000 -0.002260 0.200000
v 0.700000 -0.002260 0.400000
v 0.500000 -0.002260 0.200000
v 0.500000 -0.002260 -0.200000
v 0.700000 -0.002260 -0.400000
v 0.700000 -0.002260 -0.200000
v 0.500000 -0.002260 -0.400000
v 0.500000 0.797741 0.200000
v 0.700000 0.797741 -0.200000
v 0.700000 0.797741 0.200000
v 0.500000 0.797741 -0.200000
v -1.000000 0.797741 0.400000
v 0.500000 0.797741 0.400000
v 0.500000 0.797741 -0.400000
v -1.000000 0.797741 -0.400000
v 0.700000 0.997740 0.400000
v 0.700000 0.997740 -0.400000
v 0.500000 0.997740 0.200000
v 0.500000 0.997740 -0.200000
v -1.000000 0.997740 0.400000
v -1.000000 0.997740 0.200000
v -1.000000 0.997740 -0.200000
v -1.000000 0.997740 -0.400000
vt 0.986328 0.500000
vt 0.986328 0.500000
vt 0.986328 0.500000
vt 0.986328 0.500000
vt 0.986328 0.500000
vt 0.986328 0.500000
vt 0.986328 0.500000
vt 0.986328 0.500000
vt 0.986328 0.500000
vt 0.986328 0.500000
vt 0.986328 0.500000
vt 0.986328 0.500000
vt 0.986328 0.500000
vt 0.986328 0.500000
vt 0.986328 0.500000
vt 0.986328 0.500000
vt 0.986328 0.500000
vt 0.986328 0.500000
vt 0.986328 0.500000
vt 0.986328 0.500000
vt 0.986328 0.500000
vt 0.986328 0.500000
vt 0.986328 0.500000
vt 0.986328 0.500000
vt 0.986328 0.500000
vt 0.986328 0.500000
vt 0.986328 0.500000
vt 0.986328 0.500000
vt 0.986328 0.500000
vt 0.986328 0.500000
vt 0.986328 0.500000
vt 0.986328 0.500000
vt 0.986328 0.500000
vt 0.986328 0.500000
vt 0.986328 0.500000
vt 0.986328 0.500000
vt 0.986328 0.500000
vt 0.986328 0.500000
vt 0.986328 0.500000
vt 0.986328 0.500000
vt 0.986328 0.500000
vt 0.841797 0.500000
vt 0.841797 0.500000
vt 0.841797 0.500000
vt 0.841797 0.500000
vt 0.986328 0.500000
vt 0.986328 0.500000
vt 0.986328 0.500000
vt 0.986328 0.500000
vt 0.986328 0.500000
vt 0.986328 0.500000
vt 0.986328 0.500000
vt 0.986328 0.500000
vt 0.986328 0.500000
vt 0.986328 0.500000
vt 0.986328 0.500000
vt 0.986328 0.500000
vt 0.986328 0.500000
vt 0.986328 0.500000
vt 0.986328 0.500000
vt 0.986328 0.500000
vt 0.986328 0.500000
vt 0.986328 0.500000
vt 0.986328 0.500000
vt 0.986328 0.500000
vt 0.986328 0.500000
vt 0.986328 0.500000
vt 0.986328 0.500000
vt 0.986328 0.500000
vt 0.841797 0.500000
vt 0.841797 0.500000
vt 0.841797 0.500000
vt 0.986328 0.500000
vt 0.986328 0.500000
vt 0.841797 0.500000
vt 0.986328 0.500000
vn 0.0000 -0.0000 1.0000
vn 0.0000 0.0000 -1.0000
vn 1.0000 0.0000 0.0000
vn -1.0000 0.0000 0.0000
vn 0.0000 -1.0000 -0.0000
vn -0.0000 1.0000 0.0000
usemtl banco2:palette
s 1
f 1/1/1 2/2/1 3/3/1
f 4/4/1 1/1/1 3/3/1
f 4/4/1 5/5/1 1/1/1
f 6/6/1 5/5/1 4/4/1
f 7/7/1 8/8/1 9/9/1
f 10/10/1 8/8/1 7/7/1
f 11/11/2 12/12/2 13/13/2
f 13/13/2 12/12/2 14/14/2
f 15/15/2 16/16/2 17/17/2
f 15/15/2 17/17/2 18/18/2
f 17/17/2 19/19/2 18/18/2
f 18/18/2 19/19/2 20/20/2
f 21/21/3 22/22/3 23/23/3
f 24/24/3 22/22/3 21/21/3
f 25/25/3 22/22/3 24/24/3
f 26/26/3 25/25/3 27/27/3
f 28/28/3 22/22/3 25/25/3
f 28/28/3 25/25/3 26/26/3
f 29/29/4 30/30/4 31/31/4
f 31/31/4 30/30/4 32/32/4
f 33/33/4 34/34/4 35/35/4
f 35/35/4 34/34/4 36/36/4
f 37/37/4 38/38/4 39/39/4
f 39/39/4 38/38/4 40/40/4
f 37/37/4 39/39/4 41/41/4
f 39/42/4 40/43/4 41/44/4
f 41/44/4 40/43/4 42/45/4
f 37/37/4 41/41/4 43/46/4
f 41/41/4 42/47/4 43/46/4
f 43/46/4 42/47/4 44/48/4
f 45/49/5 46/50/5 47/51/5
f 48/52/5 46/50/5 45/49/5
f 49/53/5 50/54/5 51/55/5
f 52/56/5 50/54/5 49/53/5
f 53/57/5 54/58/5 55/59/5
f 56/60/5 54/58/5 53/57/5
f 57/61/5 53/57/5 58/62/5
f 57/61/5 59/63/5 56/60/5
f 57/61/5 56/60/5 53/57/5
f 60/64/5 59/63/5 57/61/5
f 61/65/6 62/66/6 63/67/6
f 63/67/6 62/66/6 64/68/6
f 61/65/6 63/67/6 65/69/6
f 63/70/6 64/71/6 66/72/6
f 65/69/6 63/67/6 66/73/6
f 64/68/6 62/66/6 67/74/6
f 66/72/6 64/71/6 67/75/6
f 67/74/6 62/66/6 68/76/6
