# Export of Cubik Model: Vaya
# Designed by Ihton with Cubik Studio - https://cubik.studio
# from Cubik OBJ Exporter v1.0
mtllib Vaya.mtl
v -0.8 0 -16 0.6941177 0.9215686 0.9960784
v 0 0 -16 0.6941177 0.9215686 0.9960784
v 0 0 -15.2 0.6941177 0.9215686 0.9960784
v -0.8 0 -15.2 0.6941177 0.9215686 0.9960784
v 0 4 -16 0.6941177 0.9215686 0.9960784
v -0.8 4 -16 0.6941177 0.9215686 0.9960784
v -0.8 4 -15.2 0.6941177 0.9215686 0.9960784
v 0 4 -15.2 0.6941177 0.9215686 0.9960784
v 0 4 -15.2 0.6941177 0.9215686 0.9960784
v -0.8 4 -15.2 0.6941177 0.9215686 0.9960784
v -0.8 0 -15.2 0.6941177 0.9215686 0.9960784
v 0 0 -15.2 0.6941177 0.9215686 0.9960784
v -0.8 4 -16 0.6941177 0.9215686 0.9960784
v 0 4 -16 0.6941177 0.9215686 0.9960784
v 0 0 -16 0.6941177 0.9215686 0.9960784
v -0.8 0 -16 0.6941177 0.9215686 0.9960784
v 0 4 -16 0.6941177 0.9215686 0.9960784
v 0 4 -15.2 0.6941177 0.9215686 0.9960784
v 0 0 -15.2 0.6941177 0.9215686 0.9960784
v 0 0 -16 0.6941177 0.9215686 0.9960784
v -0.8 4 -15.2 0.6941177 0.9215686 0.9960784
v -0.8 4 -16 0.6941177 0.9215686 0.9960784
v -0.8 0 -16 0.6941177 0.9215686 0.9960784
v -0.8 0 -15.2 0.6941177 0.9215686 0.9960784
vn 0 -1 0
vn 0 1 0
vn 0 0 1
vn 0 0 -1
vn 1 0 0
vn -1 0 0
vt 0.078125 0.375
vt 0.0625 0.375
vt 0.0625 0.359375
vt 0.078125 0.359375
vt 0.09375 0.375
vt 0.09375 0.359375
vt 0 0.34375
vt 0.015625 0.34375
vt 0.015625 0.265625
vt 0 0.265625
vt 0.03125 0.34375
vt 0.03125 0.265625
vt 0.046875 0.34375
vt 0.046875 0.265625
vt 0.0625 0.34375
vt 0.0625 0.265625
v -4 0.8 -16 0.9294118 0.8745098 0.6235294
v -0.8 0.8 -16 0.9294118 0.8745098 0.6235294
v -0.8 0.8 -15.2 0.9294118 0.8745098 0.6235294
v -4 0.8 -15.2 0.9294118 0.8745098 0.6235294
v -0.8 1.6 -16 0.9294118 0.8745098 0.6235294
v -4 1.6 -16 0.9294118 0.8745098 0.6235294
v -4 1.6 -15.2 0.9294118 0.8745098 0.6235294
v -0.8 1.6 -15.2 0.9294118 0.8745098 0.6235294
v -0.8 1.6 -15.2 0.9294118 0.8745098 0.6235294
v -4 1.6 -15.2 0.9294118 0.8745098 0.6235294
v -4 0.8 -15.2 0.9294118 0.8745098 0.6235294
v -0.8 0.8 -15.2 0.9294118 0.8745098 0.6235294
v -4 1.6 -16 0.9294118 0.8745098 0.6235294
v -0.8 1.6 -16 0.9294118 0.8745098 0.6235294
v -0.8 0.8 -16 0.9294118 0.8745098 0.6235294
v -4 0.8 -16 0.9294118 0.8745098 0.6235294
v -0.8 1.6 -16 0.9294118 0.8745098 0.6235294
v -0.8 1.6 -15.2 0.9294118 0.8745098 0.6235294
v -0.8 0.8 -15.2 0.9294118 0.8745098 0.6235294
v -0.8 0.8 -16 0.9294118 0.8745098 0.6235294
v -4 1.6 -15.2 0.9294118 0.8745098 0.6235294
v -4 1.6 -16 0.9294118 0.8745098 0.6235294
v -4 0.8 -16 0.9294118 0.8745098 0.6235294
v -4 0.8 -15.2 0.9294118 0.8745098 0.6235294
vt 0.125 0.3125
vt 0.0625 0.3125
vt 0.0625 0.296875
vt 0.125 0.296875
vt 0.0625 0.328125
vt 0.125 0.328125
vt 0.125 0.34375
vt 0 0.359375
vt 0.109375 0.375
vt 0.109375 0.359375
vt 0.125 0.375
vt 0.125 0.359375
v -4 2.4 -16 0.6352941 0.827451 0.6941177
v -0.8 2.4 -16 0.6352941 0.827451 0.6941177
v -0.8 2.4 -15.2 0.6352941 0.827451 0.6941177
v -4 2.4 -15.2 0.6352941 0.827451 0.6941177
v -0.8 3.2 -16 0.6352941 0.827451 0.6941177
v -4 3.2 -16 0.6352941 0.827451 0.6941177
v -4 3.2 -15.2 0.6352941 0.827451 0.6941177
v -0.8 3.2 -15.2 0.6352941 0.827451 0.6941177
v -0.8 3.2 -15.2 0.6352941 0.827451 0.6941177
v -4 3.2 -15.2 0.6352941 0.827451 0.6941177
v -4 2.4 -15.2 0.6352941 0.827451 0.6941177
v -0.8 2.4 -15.2 0.6352941 0.827451 0.6941177
v -4 3.2 -16 0.6352941 0.827451 0.6941177
v -0.8 3.2 -16 0.6352941 0.827451 0.6941177
v -0.8 2.4 -16 0.6352941 0.827451 0.6941177
v -4 2.4 -16 0.6352941 0.827451 0.6941177
v -0.8 3.2 -16 0.6352941 0.827451 0.6941177
v -0.8 3.2 -15.2 0.6352941 0.827451 0.6941177
v -0.8 2.4 -15.2 0.6352941 0.827451 0.6941177
v -0.8 2.4 -16 0.6352941 0.827451 0.6941177
v -4 3.2 -15.2 0.6352941 0.827451 0.6941177
v -4 3.2 -16 0.6352941 0.827451 0.6941177
v -4 2.4 -16 0.6352941 0.827451 0.6941177
v -4 2.4 -15.2 0.6352941 0.827451 0.6941177
vt 0.125 0.28125
vt 0.0625 0.28125
vt 0.125 0.265625
vt 0 0.375
vt 0.015625 0.390625
vt 0 0.390625
vt 0.015625 0.375
vt 0.03125 0.390625
vt 0.03125 0.375
v -4 0 -16 0.7490196 0.9019608 0.827451
v -3.2 0 -16 0.7490196 0.9019608 0.827451
v -3.2 0 -15.2 0.7490196 0.9019608 0.827451
v -4 0 -15.2 0.7490196 0.9019608 0.827451
v -3.2 0.8 -16 0.7490196 0.9019608 0.827451
v -4 0.8 -16 0.7490196 0.9019608 0.827451
v -4 0.8 -15.2 0.7490196 0.9019608 0.827451
v -3.2 0.8 -15.2 0.7490196 0.9019608 0.827451
v -3.2 0.8 -15.2 0.7490196 0.9019608 0.827451
v -4 0.8 -15.2 0.7490196 0.9019608 0.827451
v -4 0 -15.2 0.7490196 0.9019608 0.827451
v -3.2 0 -15.2 0.7490196 0.9019608 0.827451
v -4 0.8 -16 0.7490196 0.9019608 0.827451
v -3.2 0.8 -16 0.7490196 0.9019608 0.827451
v -3.2 0 -16 0.7490196 0.9019608 0.827451
v -4 0 -16 0.7490196 0.9019608 0.827451
v -3.2 0.8 -16 0.7490196 0.9019608 0.827451
v -3.2 0.8 -15.2 0.7490196 0.9019608 0.827451
v -3.2 0 -15.2 0.7490196 0.9019608 0.827451
v -3.2 0 -16 0.7490196 0.9019608 0.827451
v -4 0.8 -15.2 0.7490196 0.9019608 0.827451
v -4 0.8 -16 0.7490196 0.9019608 0.827451
v -4 0 -16 0.7490196 0.9019608 0.827451
v -4 0 -15.2 0.7490196 0.9019608 0.827451
vt 0.046875 0.390625
vt 0.046875 0.375
vt 0.0625 0.390625
vt 0.078125 0.390625
vt 0.09375 0.390625
vt 0.109375 0.390625
vt 0.125 0.390625
v -4 1.6 -16 0.8470588 0.8588235 0.7490196
v -3.2 1.6 -16 0.8470588 0.8588235 0.7490196
v -3.2 1.6 -15.2 0.8470588 0.8588235 0.7490196
v -4 1.6 -15.2 0.8470588 0.8588235 0.7490196
v -3.2 2.4 -16 0.8470588 0.8588235 0.7490196
v -4 2.4 -16 0.8470588 0.8588235 0.7490196
v -4 2.4 -15.2 0.8470588 0.8588235 0.7490196
v -3.2 2.4 -15.2 0.8470588 0.8588235 0.7490196
v -3.2 2.4 -15.2 0.8470588 0.8588235 0.7490196
v -4 2.4 -15.2 0.8470588 0.8588235 0.7490196
v -4 1.6 -15.2 0.8470588 0.8588235 0.7490196
v -3.2 1.6 -15.2 0.8470588 0.8588235 0.7490196
v -4 2.4 -16 0.8470588 0.8588235 0.7490196
v -3.2 2.4 -16 0.8470588 0.8588235 0.7490196
v -3.2 1.6 -16 0.8470588 0.8588235 0.7490196
v -4 1.6 -16 0.8470588 0.8588235 0.7490196
v -3.2 2.4 -16 0.8470588 0.8588235 0.7490196
v -3.2 2.4 -15.2 0.8470588 0.8588235 0.7490196
v -3.2 1.6 -15.2 0.8470588 0.8588235 0.7490196
v -3.2 1.6 -16 0.8470588 0.8588235 0.7490196
v -4 2.4 -15.2 0.8470588 0.8588235 0.7490196
v -4 2.4 -16 0.8470588 0.8588235 0.7490196
v -4 1.6 -16 0.8470588 0.8588235 0.7490196
v -4 1.6 -15.2 0.8470588 0.8588235 0.7490196
vt 0.015625 0.40625
vt 0 0.40625
vt 0.03125 0.40625
vt 0.046875 0.40625
vt 0.0625 0.40625
vt 0.078125 0.40625
vt 0.09375 0.40625
v -4 3.2 -16 0.8117647 0.8823529 0.6745098
v -3.2 3.2 -16 0.8117647 0.8823529 0.6745098
v -3.2 3.2 -15.2 0.8117647 0.8823529 0.6745098
v -4 3.2 -15.2 0.8117647 0.8823529 0.6745098
v -3.2 4 -16 0.8117647 0.8823529 0.6745098
v -4 4 -16 0.8117647 0.8823529 0.6745098
v -4 4 -15.2 0.8117647 0.8823529 0.6745098
v -3.2 4 -15.2 0.8117647 0.8823529 0.6745098
v -3.2 4 -15.2 0.8117647 0.8823529 0.6745098
v -4 4 -15.2 0.8117647 0.8823529 0.6745098
v -4 3.2 -15.2 0.8117647 0.8823529 0.6745098
v -3.2 3.2 -15.2 0.8117647 0.8823529 0.6745098
v -4 4 -16 0.8117647 0.8823529 0.6745098
v -3.2 4 -16 0.8117647 0.8823529 0.6745098
v -3.2 3.2 -16 0.8117647 0.8823529 0.6745098
v -4 3.2 -16 0.8117647 0.8823529 0.6745098
v -3.2 4 -16 0.8117647 0.8823529 0.6745098
v -3.2 4 -15.2 0.8117647 0.8823529 0.6745098
v -3.2 3.2 -15.2 0.8117647 0.8823529 0.6745098
v -3.2 3.2 -16 0.8117647 0.8823529 0.6745098
v -4 4 -15.2 0.8117647 0.8823529 0.6745098
v -4 4 -16 0.8117647 0.8823529 0.6745098
v -4 3.2 -16 0.8117647 0.8823529 0.6745098
v -4 3.2 -15.2 0.8117647 0.8823529 0.6745098
vt 0.109375 0.40625
vt 0.125 0.40625
vt 0 0.421875
vt 0.015625 0.421875
vt 0.015625 0.4375
vt 0 0.4375
vt 0.015625 0.453125
vt 0 0.453125
vt 0 0.46875
vt 0.015625 0.46875
g Element #1
usemtl Element
f 1/1/1 2/2/1 4/4/1
f 2/2/1 3/3/1 4/4/1
f 5/1/2 6/5/2 8/4/2
f 6/5/2 7/6/2 8/4/2
f 9/7/3 10/8/3 12/10/3
f 10/8/3 11/9/3 12/10/3
f 13/11/4 14/8/4 16/12/4
f 14/8/4 15/9/4 16/12/4
f 17/13/5 18/11/5 20/14/5
f 18/11/5 19/12/5 20/14/5
f 21/13/6 22/15/6 24/14/6
f 22/15/6 23/16/6 24/14/6
g Element #2
usemtl Element
f 25/17/1 26/18/1 28/20/1
f 26/18/1 27/19/1 28/20/1
f 29/21/2 30/22/2 32/18/2
f 30/22/2 31/17/2 32/18/2
f 33/15/3 34/23/3 36/21/3
f 34/23/3 35/22/3 36/21/3
f 37/3/4 38/24/4 40/15/4
f 38/24/4 39/7/4 40/15/4
f 41/25/5 42/5/5 44/26/5
f 42/5/5 43/6/5 44/26/5
f 45/25/6 46/27/6 48/26/6
f 46/27/6 47/28/6 48/26/6
g Element #3
usemtl Element
f 49/29/1 50/30/1 52/31/1
f 50/30/1 51/16/1 52/31/1
f 53/19/2 54/20/2 56/30/2
f 54/20/2 55/29/2 56/30/2
f 57/3/3 58/28/3 60/15/3
f 58/28/3 59/23/3 60/15/3
f 61/2/4 62/32/4 64/3/4
f 62/32/4 63/24/4 64/3/4
f 65/33/5 66/34/5 68/35/5
f 66/34/5 67/32/5 68/35/5
f 69/33/6 70/36/6 72/35/6
f 70/36/6 71/37/6 72/35/6
g Element #4
usemtl Element
f 73/38/1 74/36/1 76/39/1
f 74/36/1 75/37/1 76/39/1
f 77/38/2 78/40/2 80/39/2
f 78/40/2 79/2/2 80/39/2
f 81/40/3 82/41/3 84/2/3
f 82/41/3 83/1/3 84/2/3
f 85/42/4 86/41/4 88/5/4
f 86/41/4 87/1/4 88/5/4
f 89/43/5 90/42/5 92/25/5
f 90/42/5 91/5/5 92/25/5
f 93/43/6 94/44/6 96/25/6
f 94/44/6 95/27/6 96/25/6
g Element #5
usemtl Element
f 97/45/1 98/46/1 100/33/1
f 98/46/1 99/34/1 100/33/1
f 101/45/2 102/47/2 104/33/2
f 102/47/2 103/36/2 104/33/2
f 105/47/3 106/48/3 108/36/3
f 106/48/3 107/38/3 108/36/3
f 109/49/4 110/48/4 112/40/4
f 110/48/4 111/38/4 112/40/4
f 113/50/5 114/49/5 116/41/5
f 114/49/5 115/40/5 116/41/5
f 117/50/6 118/51/6 120/41/6
f 118/51/6 119/42/6 120/41/6
g Element #6
usemtl Element
f 121/52/1 122/51/1 124/43/1
f 122/51/1 123/42/1 124/43/1
f 125/52/2 126/53/2 128/43/2
f 126/53/2 127/44/2 128/43/2
f 129/54/3 130/55/3 132/46/3
f 130/55/3 131/45/3 132/46/3
f 133/56/4 134/57/4 136/55/4
f 134/57/4 135/54/4 136/55/4
f 137/58/5 138/59/5 140/56/5
f 138/59/5 139/57/5 140/56/5
f 141/60/6 142/61/6 144/59/6
f 142/61/6 143/58/6 144/59/6
